<mxfile host="Electron" modified="2024-06-21T20:34:54.219Z" agent="Mozilla/5.0 (Macintosh; Intel Mac OS X 10_15_7) AppleWebKit/537.36 (KHTML, like Gecko) draw.io/21.3.7 Chrome/112.0.5615.204 Electron/24.5.0 Safari/537.36" etag="8rPX0T6xVWVHefsI2SbU" version="21.3.7" type="device">
  <diagram id="AfBQXj6-0Y2lYiI796s1" name="Page-2">
    <mxGraphModel dx="1242" dy="854" grid="1" gridSize="10" guides="1" tooltips="1" connect="1" arrows="1" fold="1" page="1" pageScale="1" pageWidth="850" pageHeight="1100" math="0" shadow="0">
      <root>
        <mxCell id="0" />
        <mxCell id="1" parent="0" />
        <mxCell id="59yADgTFWXwvZRfuQB0F-35" style="edgeStyle=orthogonalEdgeStyle;rounded=0;orthogonalLoop=1;jettySize=auto;html=1;exitX=1;exitY=0.5;exitDx=0;exitDy=0;entryX=0;entryY=0.5;entryDx=0;entryDy=0;strokeWidth=2;" parent="1" source="59yADgTFWXwvZRfuQB0F-2" target="59yADgTFWXwvZRfuQB0F-9" edge="1">
          <mxGeometry relative="1" as="geometry" />
        </mxCell>
        <mxCell id="59yADgTFWXwvZRfuQB0F-2" value="" style="shape=image;verticalLabelPosition=bottom;labelBackgroundColor=default;verticalAlign=top;aspect=fixed;imageAspect=0;image=data:image/png,iVBORw0KGgoAAAANSUhEUgAAAMgAAADICAYAAACtWK6eAAAABHNCSVQICAgIfAhkiAAAAAlwSFlzAAALEwAACxMBAJqcGAAAB6RJREFUeJzt3cuvXWUZx/Fvi6fQBEEDGi6BiIooaGmxpZDUghAkoANH4oAYIlonMtMwcmBCwtWgMQT0HxCmKA2QMBDGFgZiYGaLECXRECqlpxeOg3efeGjOfvd7Wde9vp/kmezs/a4np++ve6+1nrMPSJIkSZIkSZIkSZIkSZIkSZIkSZIkSZIkSZIkSZIkSZIkSZIW29LSupcA3wb2A9cAlwPnASstHU/TchJ4HzgMvA68DPwJ+GefTaW4DXgeOA2sWVaHdQo4CNzCAH0ZeIn+f0iWtQa8CFzJQPwIOEb/PxTL2lgfAPdQ6azK1z8KPITnFhqeFeC7wDmETzdFagLyCPDzitdLXdhHRUhKA3IAeLDwtVLX9gFvAa/mvrDkMu9XgEOEVEpj8SGwC3gz50VbCw70JIZD47MdeCL3RbkBuR24Kfcg0kDcOqtkuQH5WebzpaHJurCUcw5yGeHWflvjKVIXPiKMPr2d8uScd5DvYDg0fluBO3OenGp/fi/SICWfR+cE5OqCRjZaBX4DXA+cO6u9wG+BE5XrXD97bDVjnePA48Ceyn40PrV7eVP/oXwu5h/Ajsjau4B3EtZ5C/haZJ2vAkcS1jlMGMOfZ8es577niax26t+04GRhM8eJh2PddYT/ueet8yEhAItcM3vuvHWOEW52LrJj1nvf/5hW89XKJ4TSZn6dcYwnI+v8KmOdRyPrPJyxzuORdaxxV+NKG9mTcYx9kXWuy1hnZ2SdlHezdbsj61jjriQ5l22TFz3DuYTZ/BSfJpzrbOYc0k/CV5j/NrpC+O2zFNsJH8m0fJL2fsksljQZXQQkdrXoTLGT8JQT9JTnNtWPJqCLgNzd0HOHto70MaUnQ6uEk+ZFdhO/lJx6uXjR5dnUy8U7Z733fTJptVONq2nmHeIh+TrhO40WrfM2cG1knWtJu8G36Ibjrtmx+v5HtNqrxtU2tEoY47gB+OSsbiT8EkvsBmHKOjfMHsv5H/84YTxlL+FKW2k/1jgrSReXeaUh8jKvVMuASBEGRIowIFKEAZEiDIgUYUCkCAMiRRgQKeITDazhd2VpyKomQHwHkSIMiBRhQKQIAyJFGBApwoBIEQZEijAgUoQBkSIMiBRhQKQIAyJFGBApwoBIEQZEijAgUoQBkSIMiBRhQKQIAyJFGBApYowBeZi6P5xyf/ctawqq/lJPw34X6SelDnTfsnrS2b4dUkC2Ak9HelpUp4G7Ou9afZhkQABWgIORvhbVCeCOzrtW1yYbEIDtwCuUh+QYsK/zrtWlSQcE4HzgEOUheY/wZ5+1nCYfEIDPAm9SHpJ/AV/qvGt1wYDMXA4coTwkR4DLOu9abTMgG1wFvEt5SN4APtN512qTATnDLsJ5RWlIDhHOa7QcDMgmvkG4QlUakpcJV8g0fgZkjjsI9zpKQ3KQcK9F42ZAIu4i3DUvDcnTjHNeTf9nQBY4QHlA1ghzXxovA5LgfupC8lD3LashBiSRY/LTZEAyOCY/PQYkg2Py02NAMjkmPy0GpIBj8tNhQAo5Jj8NBqSCY/LLz4BUckx+uRmQBjgmv7wMSEMck19OBqRBjskvHwPSMMfkl4sBaYFj8svDgLTEMfnlYEBa5Jj8+FXtWz8GSA2Z2jvIT6h793iq+5a1CT9iteD71J2k/wHfnYfCgDTsTuou8z6Hl3mHxIA0yBuFy8eANMRRk+VkQBrgsOLyMiCVasfdD+O4+5AZkAr+wtTyMyCFzgdepTwc7wE7O+9auQxIAb+0YToMSCa/9mdaDEiGrcAzlIfjNPC9zrtWDQOS4feUh2MN+HH3LauSAUnkl1dPkwFJ4O91TJcBWcCx9WkzIBGOrcuAzOHYusCAbMqxda0zIGcY6th6zXnQEGssDMgGQx5b73tDG5CJB2ToY+t9b2gDMuGAjGFsve8NbUAmGpCxjK33vaENyAQDMqax9b43tAGZWEDGNrbe94Y2IBMKyBjH1vve0AZkQgEZ49h63xvagEwkIGMdW+97QxuQgv63ZB6odg2pa1X71klVKcKASBEGRIpoIiD+zoSGalvtAk0ExG8011B9qnaBJgLyhQbWkNpwRe0COQE5Nefx3bVNSC3ZM+fxk6kL5ATk/TmPfytjDalL8/bmvL1c5TU2vyO5ClzQxgGlChcS9uZme/YvqYvkvIO8PufxbcB9GetIXbiP+Vex/tbGAWNfwHYUuKSNg0oFLiXsyXn79d62Dhr7ErbncS5L/dsCvMj8fXoKuLitg78QOfAa8FhbB5YSPUZ8jx5s8+C3LTj4ekh8J1HXtrA4HGvAN9tu5KWEJl7AcxJ151IWf7pZPw1o3VWkfa3nUeCXhMttUhsuJOyx2An5ev0X+GJXjf0woaGN90meBX4K7CV8h1X1EJkmZxth7+wl7KVnmX+fY7P6QdcNP5jRnGX1WQ9Q6KzSFxLORc4mfJO6NFQPAL/os4F7gA/o/38Jy9pYR4G7GYgrSbuKYFld1HPA5xmgmwnNnaL/H5I1rToJ/BHYT4PauqF3EeFPoN0EXA18DjgPr16pGScII+t/B/4K/Jlwh/zdHnuSJEmSJEmSJEmSJEmSJEmSJEmSJEmSJEmSJEmSJEmSJGkp/A/Im+SNC2/WjwAAAABJRU5ErkJggg==;" parent="1" vertex="1">
          <mxGeometry x="100" y="132.5" width="120" height="120" as="geometry" />
        </mxCell>
        <mxCell id="59yADgTFWXwvZRfuQB0F-3" value="" style="ellipse;shape=cloud;whiteSpace=wrap;html=1;" parent="1" vertex="1">
          <mxGeometry x="180" y="120" width="590" height="450" as="geometry" />
        </mxCell>
        <mxCell id="59yADgTFWXwvZRfuQB0F-4" value="" style="sketch=0;points=[[0,0,0],[0.25,0,0],[0.5,0,0],[0.75,0,0],[1,0,0],[0,1,0],[0.25,1,0],[0.5,1,0],[0.75,1,0],[1,1,0],[0,0.25,0],[0,0.5,0],[0,0.75,0],[1,0.25,0],[1,0.5,0],[1,0.75,0]];outlineConnect=0;fontColor=#232F3E;gradientColor=#945DF2;gradientDirection=north;fillColor=#5A30B5;strokeColor=#ffffff;dashed=0;verticalLabelPosition=bottom;verticalAlign=top;align=center;html=1;fontSize=12;fontStyle=0;aspect=fixed;shape=mxgraph.aws4.resourceIcon;resIcon=mxgraph.aws4.route_53;" parent="1" vertex="1">
          <mxGeometry x="484" y="271" width="78" height="78" as="geometry" />
        </mxCell>
        <mxCell id="59yADgTFWXwvZRfuQB0F-5" value="" style="sketch=0;points=[[0,0,0],[0.25,0,0],[0.5,0,0],[0.75,0,0],[1,0,0],[0,1,0],[0.25,1,0],[0.5,1,0],[0.75,1,0],[1,1,0],[0,0.25,0],[0,0.5,0],[0,0.75,0],[1,0.25,0],[1,0.5,0],[1,0.75,0]];outlineConnect=0;fontColor=#232F3E;gradientColor=#60A337;gradientDirection=north;fillColor=#277116;strokeColor=#ffffff;dashed=0;verticalLabelPosition=bottom;verticalAlign=top;align=center;html=1;fontSize=12;fontStyle=0;aspect=fixed;shape=mxgraph.aws4.resourceIcon;resIcon=mxgraph.aws4.s3;" parent="1" vertex="1">
          <mxGeometry x="380" y="190" width="78" height="78" as="geometry" />
        </mxCell>
        <mxCell id="59yADgTFWXwvZRfuQB0F-30" style="edgeStyle=orthogonalEdgeStyle;rounded=0;orthogonalLoop=1;jettySize=auto;html=1;exitX=1;exitY=0.5;exitDx=0;exitDy=0;exitPerimeter=0;entryX=0.5;entryY=1;entryDx=0;entryDy=0;entryPerimeter=0;strokeWidth=2;" parent="1" source="59yADgTFWXwvZRfuQB0F-6" target="59yADgTFWXwvZRfuQB0F-17" edge="1">
          <mxGeometry relative="1" as="geometry" />
        </mxCell>
        <mxCell id="59yADgTFWXwvZRfuQB0F-38" style="edgeStyle=orthogonalEdgeStyle;rounded=0;orthogonalLoop=1;jettySize=auto;html=1;exitX=0.5;exitY=0;exitDx=0;exitDy=0;exitPerimeter=0;entryX=0.5;entryY=1;entryDx=0;entryDy=0;entryPerimeter=0;strokeWidth=2;" parent="1" source="59yADgTFWXwvZRfuQB0F-6" target="59yADgTFWXwvZRfuQB0F-5" edge="1">
          <mxGeometry relative="1" as="geometry" />
        </mxCell>
        <mxCell id="59yADgTFWXwvZRfuQB0F-40" style="edgeStyle=orthogonalEdgeStyle;rounded=0;orthogonalLoop=1;jettySize=auto;html=1;exitX=0.75;exitY=0;exitDx=0;exitDy=0;exitPerimeter=0;entryX=0;entryY=0.5;entryDx=0;entryDy=0;entryPerimeter=0;strokeWidth=2;" parent="1" source="59yADgTFWXwvZRfuQB0F-6" target="59yADgTFWXwvZRfuQB0F-4" edge="1">
          <mxGeometry relative="1" as="geometry" />
        </mxCell>
        <mxCell id="59yADgTFWXwvZRfuQB0F-44" style="edgeStyle=orthogonalEdgeStyle;rounded=0;orthogonalLoop=1;jettySize=auto;html=1;exitX=0;exitY=0.75;exitDx=0;exitDy=0;exitPerimeter=0;entryX=1;entryY=0.5;entryDx=0;entryDy=0;strokeWidth=2;" parent="1" source="59yADgTFWXwvZRfuQB0F-6" target="59yADgTFWXwvZRfuQB0F-41" edge="1">
          <mxGeometry relative="1" as="geometry" />
        </mxCell>
        <mxCell id="59yADgTFWXwvZRfuQB0F-6" value="" style="sketch=0;points=[[0,0,0],[0.25,0,0],[0.5,0,0],[0.75,0,0],[1,0,0],[0,1,0],[0.25,1,0],[0.5,1,0],[0.75,1,0],[1,1,0],[0,0.25,0],[0,0.5,0],[0,0.75,0],[1,0.25,0],[1,0.5,0],[1,0.75,0]];outlineConnect=0;fontColor=#232F3E;gradientColor=#945DF2;gradientDirection=north;fillColor=#5A30B5;strokeColor=#ffffff;dashed=0;verticalLabelPosition=bottom;verticalAlign=top;align=center;html=1;fontSize=12;fontStyle=0;aspect=fixed;shape=mxgraph.aws4.resourceIcon;resIcon=mxgraph.aws4.cloudfront;" parent="1" vertex="1">
          <mxGeometry x="380" y="472" width="78" height="78" as="geometry" />
        </mxCell>
        <mxCell id="59yADgTFWXwvZRfuQB0F-33" style="edgeStyle=orthogonalEdgeStyle;rounded=0;orthogonalLoop=1;jettySize=auto;html=1;entryX=0;entryY=0.25;entryDx=0;entryDy=0;entryPerimeter=0;strokeWidth=2;" parent="1" target="59yADgTFWXwvZRfuQB0F-5" edge="1">
          <mxGeometry relative="1" as="geometry">
            <mxPoint x="305" y="210" as="sourcePoint" />
            <Array as="points">
              <mxPoint x="305" y="210" />
              <mxPoint x="342" y="210" />
            </Array>
          </mxGeometry>
        </mxCell>
        <mxCell id="59yADgTFWXwvZRfuQB0F-9" value="" style="shape=image;verticalLabelPosition=bottom;labelBackgroundColor=default;verticalAlign=top;aspect=fixed;imageAspect=0;image=data:image/png,iVBORw0KGgoAAAANSUhEUgAAAOEAAADhCAMAAAAJbSJIAAAA8FBMVEX///9BuIM1SV7X298fOVAiO1MeOFEss3nV2Nvi8+ssQln3+/kzR11Bt4PFyc3e4OJGV2goP1aDjJd9h5Ha8OUps3g2tX739/g/uoIxQFrv8fJFwoj4/Pru+POWnqcwPlkwO1iBzKlaaXm6v8XH59jd8eeMlZ/x8vN0yKCV07aepq+p28K94tBVzJJGTGdve4gtNFVbh4ERMEtcv5JTanVTw49JWmyssrlfbXzJzdIArG1MqYQgKE4AJkNAqH5ZfX1glolkr5FlpI9Kb3JcjoNbpYpguZJNUmw+P2BIYm6v3sdKanBQW3A3Nltoq5JUmILWkMN4AAANZElEQVR4nO2dYUPayBaGMTVB00EIqCgqutDiltbSxlvB3fW2e9vrdtvt7v//N5eZAMkJIecNSZiE6/OpRUxymOScZ86EWKmEOX++kosp+1NeHh4+41nachzA9g59Xu6v4gLY14tfqtXqUZBqBL/+tsvwcJ8gwPsHbnO//Tu4+8hjmvLLPrK3n493eM4+nhrxCCNBhA3BbO30/VmNP6rjV9DeLo6ACHduT7mDcrpwgEOH+7guPyAHtQPu7zUyiCefLpmjMuw6uMOOzW3q8p8z4Jiqb8AdngPnw87OzVs2whG4wxEb4dsb4IiOb8H9TZNNFdjeye/vuOOysGSzZ3Ebevf7CRLhIRwhmGy+c1eiENDeDHY736E08xMeYGUfSjaPV9xnbyLJZmhym7m6RQ6n+jxBhJVXwCDWzt5zFcMwO+yuOmyAWKWovk4SYOU58qHtfGAHEUg2fJq5girFh0QBVipvoGTzHzZEq8/s6MBlA/wHSTPVFwkjrECn/s0dmyQa7fj9sDYjGlCl+DlpgJXDjCoGYzZ8mnn3KzSEiHKH+CkbPTXcuGTTYc9R8TlDIaVcIIO4c3vFnWX2JGYnQJqBLhdUSCnfoEH8wleMg5W7uOcrxZdMhTQE8unVbr5yBxmTbNhEZfxA0swOLqSUrPR0ZbIBbOa/UJpJIKQUTE//xQ6EGz2N6lhspbhDztFEQkrB5sKP7Hlq9yI3z6cZrFIcJRJSSlZ6Gmk29+ykycYqRTIhDQHNhT+8Zc82IyLZsJOmnISUAunpGd/QcAZLm+bTDFgpEgsp5RZJNjd/sINohpNNh2s+GcbXnISU8jKjirGUbIA0A7UuqlCHNA5QT9njDSWbe15I/8xNSCnnSIQ7t+yVGEo27KTJuHqEuk/nqSPMTE9JsgHSzEeodbGmkFIguf/Adk8Ny082SJpBKkWCDmkcL6AW+N98z8ZPNnyaufwE+draQkqBkg3f0PCTDZ9mwCb3+kJKgebCJ49sxTCs2QYF+2G8w+YUa7QuonkFhIjoqdNUm+uyaUZ8h2wmlZBSID29vWTNxpELw0CawSpFOiGlQHNhQE9Vz4ZPM2ClSCmkFGQuXOPX22SyAdLMD6hSpBVSyn5GemrYbcBmoCb3cWohpSAVo8avtxnijj1HRQMqhemFNATS0DjhGxr8tBdtXWQdIDQXrgF6yn8EUOsiGyGlZKWnHFiTOxshpWBLNfx6GwO4HJqRkFIwPf2Lv9Bi+XGT9ZI9zgU0xwD0NA6syX2cmZBSoDuJgPW2GMBKkaGQUjA9TZNssEqx3loaQlZ6upLTz5vokMYBLdUAerpyCDUIKWUfSjaAnq4YQqjJffwyxwihpRpkvS0arMmduZBSsIrB62kUYKXIoEMaB6anfEMjAvEnlGa+5RsgqqdsQyNqCKHWRR5CSslNTwXWushFSCmYnrLrbUtgrYt8hJSC6WniinH1SaeQUhA9rZ19Z7sVBPGHntZFNJieJqsYWJM7PyGlYHqaqKGB3cmdp5BSoGSTqKFx9QhsMVchpWB6+jeebLAmd9Yd0jgwPe3BFQOrFBtKMx7AAU319Ad6jmJN7pyFlPIGaRCjDQ2sdZG/kFKguTDY0LiCbpzJX0gp0J1EWEMDXA7dgJBSoGQD6ekPZLqyESGlQN+qQfQU/HboRoSUgt1J9JnVU6x1kVuHNA5sBYWbKGKV4kRHgNBcmF1vwyrF0caElJKFnkJN7g0KKQWbC8feDiagJne+HdI4oKWa2PW2AgopBZkLx+npJXYn90aFlILMhWsxegrdn7dpIaVgeroqQqzJneXNXcmB7iRapadgk3vjQkrB9DS6YkBNbm2VYg70hIloPQW/86NBSCnYt2qi1tsKXynmQHoasd52CTW59QgpBZsLL623ga0LTUJKWU9PoUqR0bcN0nIBBLi03oZVCn1CSllHT99BTe7Nty5WgCRFejvY6UdkCHdSfP01W7ClmuD327Dv/GgVUgqmp37FwFoXNd1hBYCeSXT2Za6nooEMoW4hpUDJZlExrqDWRWHSjALT09l6G9bk3uRaGgKmp956229Qk7sAQkqBvvStKsbpe6hS6A5oCSzZTPVUnEJpphBCSoHmwrdvBVQpCiKkFEhPzz5dYU3ugggpBVmqqd18hSpF4dKMB5IiTx6hNKO9dRENpKc72T8gcINAeop8CLoDWQn2ADSWo0IJKQXSU46CCSkFez4vF2HBhJQC6SkTYEErxZz0yaamcS0NAXs+bwx5fP01W6DuaQxFFNIQKYewkEJK+ZYm2RS6UizAHji6goIKKeVw/WSj5+au5KyfbIorpJTn60ZYrA5pHGvqqfYl+wSsl2yye+xT/mBz4fAQFlxIKWvpacGFlII9n5dQfCGlQN1TQgmElJB4LlzMDmkcCefC5RBSCrRUs+CkRJVizsskERa3QxpHEj3Vew/pupzjFUPXtw3SAs+FyySkFFRPi90hjQPU03IJKQXT06J3SOOAlmrKJqQURE/LJqQheD0tn5BSXnBFsYxCSmGTTQmFlMLoaVk6pHHEJ5uydEjjOI+rGEVesseJ0dPyCilltZ6m/xMqxWDll77LLKSUVXPhMgspZcWXvsstpJToilFyIaVE6WnZhZQSMRcuv5BSIvS09EJKWXoAWjk7pHGEk005O6Sx0AiL+G2DtJClmm0RUkpwqeZoS4SUEtDT7RFSSkBPt0ZIKQs91fs8ljx5Xd1CIaXUtlBIKap7up2VYo7U0+PCfMs+D6bJZvuElPKquoVCStlGIaVsRQv4iSeeeOKJJ/5PuG6OWu3llzutUXfzB5MHbcOxzcny673ol0vIgSWfpHMdfrkj/1yz20m36YY7SreFTKjLv45u3YdfHsuXzVTHN3aF4RhptpAR8k9P263wq/IhSfYo1YbVc5Z2+6m2kQljR/4B6nCukeeuOU6z3fadjNAsQIR1dcXV6Yv96UkqnHr0b4AM5DbCG9aC/PvaTqgytGw5sCk3PHItO9VpkBUDGU2PviYvTmeYdsud+lKO1sKetVQY1Evmnq4jypq2PE1pVhk4MkJdB5Q96qIj/qJqxUDX8WTPwe40wuCIKaHZXbKA8tKR3mYe+C8ME5yk7fb1dYS4R7+10wbfmjWTkNaM7Pn/70d3A3JQe9MXAglyr2W4U+4GUWVv+svNxXvrgzvXtVy30TzQEKWUUNHwd+zOZaRj2cIMuht9oT6Z/lc95NOxWksO23Fs4cxr6sByvMcrC9syDsJvzZ1rGZK1GAYpNIYjj/hAhR54Z31aRoQ1+8/YCjxO2LbCw7gXeO/EDD4e2938Ja4K/CJ3NuVJqnJrZITG7KjHrjcmjqMCFeEQVYTe1TxQAdrzt6YT3rWQqcXXGnkUjjqIuAj31FHv3jXH45aQvyIMeoH5EdYtIUduNBgORsIUxsPmZbUenO/u+dYdF6Ecd8P1RqM9kdnXoRXUj7ArP8DGM++t44arQ1blTMeZ7dg7HvXPmAj7u2TmLNOv4dK0u4hQ5mpLswNK+55PeHu+dcdEOLFJhYlQPz9C6UwNzRL+TNm3+qfX1vBOqZgIXf9dCvUZNYPb9COUp7DQHGFbXlXefFx1aGbpcnWE6h9GoAbuhd8aOktp9BpoLU46eUXNc8bqCNXhB6fIasJlV0KveBEqC3SMvtZhVLHIxlh7V/gZJCZCmWgaTR85TrQr4EfYUeYjTGs01NfUaNuzOa8nNLOkGD+GsoYvkDHQXkig4vetmfg4Vk9bX2My05pBMEdyEYagbadAhNN/m7O/+iFMQ9M4qu5aL2DdkgRjaNumQ4cnGGGlPbybWfpUbvR0GNtq1tvxEsY8RzLXodEKMg7NLkiE8ncHPddRMabrpa+NpzVjYqgJcuky4Qjlr3ddeb0vt9g3gkzpdvOOqMl9OEKVh0TFUwRhxI5FRIQVz4UMJ7vDToCyby8lLlJB3Ql1FZsLu1MndWzOiI5QNaA1NSrnfyFeBNaL1Dnl28i1GoDh/CdObDtuRYTSKMzNz/Ilg9mMPdjr9hqni+PxZhBq5OQMhE4YIuf4XsUfB36mMcJnsxIXPGzVVzRc74DaI3kVzqYgHTWrfVgk/nrP9arAvfFgqfcvImy7prsY7Y5akdJTEpV9h+Wyq2by1qRfr3cNlevnRzf7SW9cn7LXMu3ptHn6cv1BzBoxiwilyzuNcb3Tvq735U6ErnVTdQ6GJwE970XTmjXL/Al6TwUsHMu0rV2Voh4qnsJ740wilO8zGg1TqY2ly9wOvFGhjbDrhhPwMmH5yaX919zEZjgyLpWvVB/Lvw6N2RUuvPc7oYWuDaIurfBUtd2y5oEIxybCNXAC0du76gIdKnOX50Eg00ws/7MQlsZbPLqu47jLd9EcTG3LsW3HtAahEl8fOJb6kWO6k9nY35mOqVQgWC36E9f03mg1tC6aHnS7kXm8M+y2msN+RDu+vTfsNlvdYWB2O+4O1RtpPez0p9uYvrEIq95ZsaLibxHeQrLuo8gTNYa7uo8iT5YmJluHNNdtWipfprfUBd8uOmpFLeXdjQWmZSrdSXnvX4EZW4YIT8S2i67nq27q+8YKizdLsbOeyf8PtMxZABcx30MAAAAASUVORK5CYII=;imageBorder=default;dashed=1;" parent="1" vertex="1">
          <mxGeometry x="250" y="160" width="65" height="65" as="geometry" />
        </mxCell>
        <mxCell id="59yADgTFWXwvZRfuQB0F-1" value="" style="shape=image;verticalLabelPosition=bottom;labelBackgroundColor=default;verticalAlign=top;aspect=fixed;imageAspect=0;image=data:image/png,iVBORw0KGgoAAAANSUhEUgAAAfQAAAH0CAYAAADL1t+KAAAACXBIWXMAAAsTAAALEwEAmpwYAAAgAElEQVR4nOydeXxU1fn/P5mQQDITtiwzoGxJqAhKgkurLIobm9aNxV0WtQVxqStaWxesC2Lrgoh1A6RWqyDaRSB+qyJLa6tCqIL9SZClQiYJEGBmAgkkvz8my0zmnnvPOffcO3dmnuf16qty5zmf87n3Tu57zr3PPSdt5PjNTdCKNM2teh/EZmqm8rdX4YGVmmZaw5r9ENtlAQ8KNLTPp6APEcvsDvllBTQsaQ8gzQEeWBpCyjbuh2XnkynOvFDwZoomm/LAVjCvYdV+iJ06e/dD6K9D6BpmVkA7nXWeXUwRbczrfRCbqZnK316FB1Zqk2kNa/ZDbJcFPCjQ0D6fgj5ELLM75JcV0LCkPYAmB3hgaQgp27gflp1PpjjzQsGbKZpsygNbwbyGVfshdurs3Q+hvw6ha5hZAe101nlmA123X4K6Kg8EdekO+WUdAFSCunh7grqcBkHdIDmJoa4PdN1+CeqqPBDUpTvkl3UAUAnq4u0J6nIaBHWD5CSFujHQdfslqKvyQFCX7pBf1gFAJaiLtyeoy2kQ1A2SkxDqfEDX7ZegrsoDQV26Q35ZBwCVoC7enqAup0FQN0hOMqi7zJsRM0RQN0olqEt2yC/rAKAS1MXbE9TlNAjqBslJBHWXGjNiIgR1o1SCumSH/LIOACpBXbw9QV1Og6BukJwkUHfpfShmRkyEoG6USlCX7JBf1gFAJaiLtyeoy2kQ1A2SkwDqLr0Pxc2IiRDUjVIJ6pId8ss6AKgEdfH2BHU5DYK6QXKCQz22KI6gHrGZoC6qQVCXlYi/B4K6kThBXTeZoC7nQeF1W7vKnaAesZmgLqpBUJeViL8HgrqROEFdN5mgLudB0XXbZZ0ZMRGCulEqQV2yQ35ZBwCVoC7enqAup0FQN0hOQKi7rDUjJkJQN0olqEt2yC/rAKAS1MXbE9TlNAjqBskJBvWIW+4EdaNUgrq4BkFdViL+HgjqRuIEdd1kgrqcBxPX3HbP0AnqRqkEdXENgrqsRPw9ENSNxAnquskEdTkPktdcjaI4grpRKkFdXIOgLisRfw8EdSNxgrpuMkFdzoPENZcxlztB3SiVoC6uQVCXlYi/B4K6kThBXTeZoC7nQfCaq7M4C0HdKJWgLq5BUJeViL8HgrqROEFdN5mgLudB4LtmsNoaQd0olaAurkFQl5WIvweCupE4QV03maAu54Hzu8axfCpB3SiVoC6uQVCXlYi/B4K6kThBXTeZoC7ngeO7xrkeOkHdKJWgLq5BUJeViL8HgrqROEFdN5mgLufB4LvGCXQrzYiJENSNUgnqkh3yyzoAqAR18fYEdTkNgrpBsoOg7rL9gBDUDTQI6lI+COpx8UBQNxInqOsmE9TlPDC+ay4gDgeEoG6gQVCX8kFQj4sHgrqROEFdN5mgLudBI7f1ljtBXa0GQV1cg6AuKxF/DwR1I3GCum4yQV3OQ7vcqGfoBHW1GgR1cQ2CuqxE/D0Q1I3ECeq6yQR1OQ8RuTFFcQR1tRoEdXENgrqsRPw9ENSNxAnquskEdTkPzbma66ET1NVqENTFNQjqshLx90BQNxInqOsmE9TlPDTprIdOUFerQVAX1yCoy0rE3wNB3UicoK6bTFCX8qC7HjpBXa0GQV1cg6AuKxF/DwR1I3GCum4yQV3Yg+F66AR1tRoEdXENgrqsRPw9ENSNxAnquskEdSEPXOuhE9TVahDUxTUI6rIS8fdAUDcSJ6jrJhPUuT1wr4dOUFerQVAX1yCoy0rE3wNB3UicoK6bTFDn8iC0HjpBXa0GQV1cg6AuKxF/DwR1I3GCum4yQd1ws/B66AR1tRoEdXENgrqsRPw9ENSNxAnquskEdd3NUuuhE9TVahDUxTUI6rIS8fdAUDcSJ6jrJhPUmZul10MnqKvVIKiLaxDUZSXi74GgbiROUNdNJqhrbja1HjpBXa0GQV1cg6AuKxF/DwR1I3GCum4yQT1ms8usGYK6Wg2CurgGQV1WIv4eCOpG4gR13WSCetRmlwozBHW1GgR1cQ2CuqxE/D0Q1I3ECeq6yQT11nAZfM5thqCuVoOgLq5BUJeViL8HgrqROEFdN5mgDqD9M3SCurgJgro6Dwo0COqyEvH3QFA3Eieo6yYT1DWK4gjq4iYI6uo8KNAgqMtKxN8DQd1InKCum5ziUNeucieoi5sgqKvzoECDoC4rEX8PBHUjcYK6bnIKQ91llRmCuloNgrq4BkFdViL+HgjqRuIEdd3kFIW6y0ozBHW1GgR1cQ2CuqxE/D0Q1I3ECeq6ySkIdZf+x+bNENTVahDUxTUI6rIS8fdAUDcSJ6jrJqcY1F36H6sxQ1BXq0FQF9cgqMtKxN8DQd1InKCum5xCUNcoiiOot2YS1A1SCeqSHfLLOgCoBHXx9gR1OQ2CukGygSxjLneCemsmQd0glaAu2SG/rAOASlAXb09Ql9MgqBsk68jqLM5CUG/NJKgbpBLUJTvkl3UAUAnq4u0J6nIaBHWDZEZ7g9XWCOqtmQR1g1SCumSH/LIOACpBXbw9QV1Og6BukKyxiWP5VIJ6ayZB3SCVoC7ZIb+sA4BKUBdvT1CX0yCoGyS328S5HjpBvTWToG6QSlCX7JBf1gFAJaiLtyeoy2kQ1A2SIzZxAt06MwR1tRoEdXENgrqsRPw9ENSNxAnquslJBnWX3SeGoK7OA0FdnQZBXVYi/h4I6kbiBHXd5CSCukuJkAINgrpaDYK6uAZBXVYi/h4I6kbiBHXd5CSBukvnM9vNENTVahDUxTUI6rIS8fdAUDcSJ6jrJicB1F06n9luBiCoq9YgqItrENRlJeLvgaBuJE5Q101OcKjHFsUR1KVECOpGqQR1yQ75ZR0AVIK6eHuCupwGQT02WbvKnaAuJUJQN0olqEt2yC/rAKAS1MXbE9TlNAjq0ckuyw6IAg2CuloNgrq4BkFdViL+HgjqRuIEdd3kBIS6K5xPUDfOJair8kBQl+6QX9YBQCWoi7cnqMtpENTD0XrLnaDOk0tQV+WBoC7dIb+sA4BKUBdvT1CX0yCot3uGTlDnySWoq/JAUJfukF/WAUAlqIu3J6jLaaQ61DvE5jchDWnaQhqb2b2q12hqAtLs9MDM5RfR9ixgQoEH9qFgnGtuDWv2Q2yXhb5UUhpFfTLhyQ7/9vVku1DctyNXV+VbDrf+d2X1UfhrjvJ0184a/5eefdyE/nDUt0cY6mlx9sDSELss2XcsLTufTHH+ayb7mAkl8xoTvNRYxDAF+2E1w9LOumSTJvOZF3qh75E1GmLfZQUemLn8ItqeBUwo8MA+FGY1rNkPsV0WvMBFpPvyO8Cbl4GSE7PgcbtQ3DsTbrcLRb0zxTQ5Y9O3YdCXbzmMQKgRFTvrUbGjHoFQo45fge+aAg1L2gPmoK7IA0tD7LJi335Ydj6Z4vzXTLYDoWRTHtgKFjFMwX5YxTAm0MP5BHXjXIK6Kg92QL2oTyaK+3Rs/f/BJ3YybGNX+GuOtsK9/NvDsZB3AgQI6up8OOF8MsUJ6rrJDoW6LtDD+QR141yCuioPqqFe1CcTpSdmoWRgJ5ScmAV3tsACgw6IbTvrUb7lMMq/PRwe0dfxP4gjqMtpENQNeiSoq2kP9QwzBHo4n6BunEtQV+XBDNQ92S4MO82DYadlJyTAjWLTt4ex7qs6rPsy1PZMXicI6nIaBHWDHgnqatpDLcO4gB7OJ6gb5xLUVXkQgbqvoAOGnerGqLM7W/bc24mxbWc9Vq0NGsKdoC6nQVA36JGgrqY91DGMG+jhfIK6cS5BXZUHPah7sl0YfXYORp3VGUV9UgfirNi2sx7Lyg5h/ZchzeI6grqcBkHdoEeCupr2UMOwtLMu3tTkiAOiQIOgrlbDiVAfdpobY87OwdBT3fzaKRZlawMoWxNE+beHo7YT1OU0COoGPRLU1bSHeYaFgS5ohqDOk0tQV+XBl5+B0Wd1xuizc+DNi5k6gYIRLaP2sjWB1m0EdTkNgrpBjwR1Ne1hjmFtQBc0Q1DnySWom/FQ3Kcjxo/tilFn5fC3p4gJf81RlK0N4r1VBxEINRLUJTUI6gY9EtTVtIc8w6KBLmiGoM6TS1AX9VAyKAuTx3dHyYlZ/H1SGEawrhHvrTqE91YdRJA1iY0DgEpQF29PUJfTSDaoxwJd0AxBnSeXoM7joWRgFiZPIJBbHS1gX948Yo8JBwCVoC7enqAup5FMUE876+LyJrNmCOo8uQR11kZffgZuvj4Pw06jQjc7I1jXiAVv7o96xt4aDgAqQV28PUFdTiNZoN4MdPNmCOo8uQT1yI2ebBcmT+iOy8d25dejUB7+mqN4+pW9MVXxBHV9DYK6QY8EdTXtwX/qIoBu3gxBnSeXoA4Aw07zYNYMryNncvPXHIW/+ii27jgSXjxlRz0CwUYgDSjfUtcuW/84lDTPFd+ySpsn24WiPpko6p3puH1f/1UIC97cHz1JjQOASlAXb09Ql9NIdKi3A7p5MwR1ntzUhbovPwP3zvA65jl5eDGUI6jYXo+tO+o1gN0uTJ6PyPPZAveSE7NaIR/v1/KCdY1YsvwA3lt1sG2jA4BKUBdvT1CX00hkqGsA3bwZgjpPbupBffy4rpg8ITeuI9OKnfVY90UQ5ZvrUNE8Ahf8UimFensNb14HlJzYqfV/8QL8tp31mPvKXlTsrG+2Fn+gEtTF2xPU5TQSFeoMoJs3Q1DnyU0NqHvcLtw7wxeXordgqBHrvgi2QjwQajQNZHa6GqhHRlGfTAw7NRvDTs1GYRzmqV/y/gEsWV7bbC3+QCWoi7cnqMtpJCLUdYBu3gxBnSc3uaFeMjALj97d09ZReTDUiFWfHcLaL4LYtJlxCz2BoN4S3rwOGH2WB6NGeGwduW/bWY+HnqsOP1t3AFAJ6uLtCepyGokGdQOgmzdDUOfJTU6oT56Qi+sndOfXNREtI/G1zaPxaF+MSECot0TJiZ0wakQY7nZE1CtuDgAqQV28PUFdTiORoM4BdPNmCOo8uckDdY/bhdl39UTJQOsL3yp2HMGyFQew7otAxCQpGueZJZDAUAfChXWXj+ls26j9o7UBLHhzPwJ13Is0agdBXZ0PgrpBpA7UOYFu3gxBnSc38aFe3LcjHr37OMvhUvbZISz7sBZbdx7hNpesUG+JUWd5cP1lXS0/9q0Fc7sazAkR1NX5IKgbRGpAXQDo5s0Q1HlyExfqw0/3YNYMn2XPy4OhRixbUYtVqw+hsjoCJgL7kexQR1r4dvz1l3XF4AGd+NsJRrCuEXNf2Yv1Xxm85mcUBHV1PgjqBpH8UE8766flQuuhE9QVekgiqI85uzPuneHjbyMQLSBf9mGt9tzjzR54P0gFqAPAsFOzMeOa7paO2Je8fwBL3j9gToSgrs4HQd0gkhzqZ/20XHg9dIK6Qg9JAPWZk/Mxflw3/v4EouyzQ1i8dF/0iJwVBHXN1FEjPLj5mu6W3Tn5aG0Ac1/dZ06EoK7OB0HdIJIX6m1At9kMQZ0n1/lQn3WzD6PP7szfD2eUb6nD4qV7Ub65ztBDVBDUNVM92S5cProzrrvMmnnzt+2sx91PVrHvoPAEQV2dD4K6QSQn1KOBbrMZgjpPrnOhbgXMg6FGLF66F8tW1HJ50AyCOjPVm9cB9/4sz5Ln69t21uOh52ui54IXDYK6Oh8EdYNIPqjHAt1mMwR1nlznQd0KmJdvrsNTC/zh2+s2/jhJNagD1t2GD9Y14u4nqtqmjJUJgro6HwR1g0guqGsD3WYzBHWeXOdAXTXMW0flH7YblRPUw5kWQd2T7cI9P8vD0FOy+XU4gqBurEFQN+iRoC7VPu2sn25ssgqGjjggCjQI6m0x6+YeSmFeseMInlrgx9btjPfJCerhTIugDlgzWieoG2sQ1A16JKgLt2/+C2a8ii40GZRGskD7Jqs8KNBostsDM5dfRNuz0AmJCdUj87LVB3Hn7P+xYc7wYXY/WB+IHXbBmdJMarC/g+aPRdmaAH7+q93YZga+7cKd5cLT9xegyMyCMmJ/eAwJkxoKPLA0xC4r9u0H+6um4lgI9CiEFHP8UXHdtoxhAu0jfpLH3wxBnSc3PlCfObkAo8/uwt/WIJ5aUIk5C/wIBDmqognq4UwLoe6vOYqf/2o3lkeug24yCOrGGgR1gx4J6kLt291jI6jrJacq1MeM7KLsPfNgqBF3zv4fVq4+yD7XDB+cGwXaa3+QqlAHgBff3IeHn6tC0MzrZxFBUDfWIKgb9EhQ526v8dCMoK6XnGpQH366R9kMcP6aBtwxexc2bg5FuCCoi2pYDfV1X4aU3oInqBtrENQNeiSoc7V3CX29COrhLSkC9eK+HTFrZg/uPvSiYscR3HTvDs3n5QR1cQ2roe6vOYq7Hq/E+q9C7CSBaIG6qWloCerqfBDUDSIxoe5if05Q10tOdqh73C4883BvJZXPFTuO4I5HdoWflzMPBUFdVMNqqAdCjXjo2Splz9XdWS48clsePGa+UwR1dT4I6gaReFB36X9OUNdLTmaoq4J5+ea6Npizu2veTFAX1bAa6kD4ufrcV2r49XSisHcmnr6vwJwIQV2dD4K6QSQW1F0Gn7N7JaiHtyQh1GdOKUBRn44CprRj1eqDsTCP7a7dZoK6qIYdUC9bE1AK9Xtu7G5OhKCuzgdB3SASB+oxQzCCurhGMkFdVUV7+eY6zHmx0sAEazNBXVTDLqhP/9VuJRXwFwz34PJROeZECOrqfBDUDSIxoK55T5WgLq6RDFAv7tsJM6eYvB2K8DPzXz/9A6cJ1maCuqiGHVCv2FmPux6vVAL16Vd3w9BTssyJENTV+SCoG4Tzoe4S0yeo6yUnOtRnzexh+rl5uABuJwLBY/yNCOrKNBIN6vfclAtvbro5EYK6Oh8EdYNwNtRdekIEdXGNRIX6zCle08/N/dUNzTBvudCbhwhBXVwjkaDuznLhkdvzbQURWyL+HgjqRuIEdb1kl85nOpsJ6nrJiQb10kHZpp+bB0ON+PXTP2gUwBHUhT0o0EgkqBf2zsSMa7oT1A00COoGPRLU2z1DJ6gr00gUqHvc6bhPweQxv577A7Z+z1pkhaAu7EGBhl1Qf/HNffx6jLhsVA6GnppNUDfQIKgb9JjiUI99YEpQV6aRCFCfMikP3vwMgU5iY/7iKmz8JiTtgTeVoC6ukUivtN1zU2540hkHAJWgLt6eoC6noZJhLpEdIqiLazgZ6iputa9afQDL/rZf2gMzCOrKNOyC+pLltfx6GuHOcuHh2/Ob+4s/UAnq4u0J6nIaqhjGXg+doK5Mw4lQV3GrvWLHEcxfVCXtwTAI6so07ID6G8trUbY2wK+nEYMHdMLlozs39xd/oBLUxdsT1OU0VDBMfz10groyDadBfcKF3Uzdag+GGjFn/h799cwJ6uo8KNCwA+oL/rDP9Cpt113WpW0RFwcAlaAu3p6gLqdhlmHG66ET1JVpOAXqvvwOmDwxT8RMTMxfVKW5chqvB4K6hAcFGlZDPRBqxIPPmltP3Z3lwj035Ub0F3+gEtTF2xPU5TTMMIxvPXSCujINJ0D9vlt6ipiIiXX/DmDlpwLPSwnq6jwo0LAa6v6ao3joOcajGM4YPKATRo3wRPQXf6AS1MXbE9TlNGQZxpgWjKCum5zAUC8dlI2SgdkiBqLCX92AOS/uETdBUFfnQYGG1VAv33LYdJHcjGu6RS+16gCgEtTF2xPU5TRkGKYzzydBXTc5QaF+30xzo/M5L+5pN60rQV3vg1SG+hvLa7Hp28P8Wu3CneXCjGvavYXhAKAS1MXbE9TlNEQZZjBxN0FdNznBoD5mZBdThXDLPtyPDV+HzJkgqKvzoEDDaqg/9XKNqefpFwz3oGRAp3b9xR+oBHXx9gR1OQ0RhnGsxEFQ101OEKh73Om4ZapPpLOoCIYaseid8OQh2p4J6nofpCrU/TVHTc8kd91lXTT6iz9QCeri7Qnqchq8DOvAbyjNcBN7s1CyaQ/arZuQZoUHBRpNTUCaxR4mXNjd1EpqT86PvtWu7VnohDBSzWswzzW3hjX7IbbLQl8q0xrs76D5Y1G2JoBhp2Zj6ClytRstBXJla9q94y72hxMbBu092S4U9Wbf0aqsOQZ/zVGkWejBjIbYZcnaYxmVCtbfgYpjoSXOf81kHzNz/FHBDh6GcQKd0TNBXZmGlVD3uNMx4aLuvOIxUb45hLX/OhTbHUHdIJWg3hJzX67BH353vPSPyusu7RILdEAJiDzudAwe0BFFvTNRMqAjPNkuFPbifzQVrGtExc4GVOxswLadDajYVY+KnQ1CHgjqijwwxVMD6gJAZ/RMUFemYRXUTY/OX9jD/IygbpRKUAfC76e/+OY+3HOT3PwH3rwOuO6yrtqV8xIQKOqdiVHD3Sg5sSMKe2VKeWoJd5YLg0/oiMEntC0/HKxrxKZvj2D9V4exfkMdAkZ1BAR1dR6Y4skP9bQRF25oErlehEOjAUNDe7NQsmkP2q0t8qBAQ+y7rO/B407H2wuKpYG++N2a1mfnui40bQidENEPuFO5oc7UsGY/xHZZ8I/UpAb7O2juWPz2lz4Mbl/kxhnBukZce+cP7CI7gz8cb14HXD4qB0NPzYI3V3AsYzL+saEOZetCWP9VnX6iWZDpaIhdVkz6EGjP/qqpOBYCPQohxRx/VLBD67oW/lYLDgJopG6Q7KCR+phzukjDPBhqxNL2C6+wXNBI3SCVRupAuOr9D787nq99u3BnuXD56M54Y3mt0MiuZEAnXHdpFwwe0FGjkT1x5pAsnDkkC1V7j6FsbRDLPwpoj9pppK7OA1M8eUfq6X1+NP3h1n/RSF2dBwUaKkbqD955HDzudBGh1njlzSps/CbI1NZ0QSN1g9TUHqkHQ41IA1ByotwovbhPJv76cQD1DTo3FptNlwzohHtuzMV1l0bMDR/ncGe7MHhAR1x0jhuZGWnYtqsB9Q1NsYk0UlfngSmefCP16KGbxvdKPzQaMDS0Nwslm/ag3doiDwo0zL7SNuYc+ffO/dUNWPq3lteN+I3QK21GqRrn2SoPCjSseKXtvVUHpd9Nbxml6zko6pWBp+/zYu59BXEdleuFO8uFay/pjDfm+nDZBZ7YBHqlTZ0Hpjj/dZvtwBx/VLAj8roWey+WoK7OgwINM1A3U9m+6J1qXW1dFwR1g9TUhnpLgZxsXD46p3VK2EgHnmwXZlzTHQse7eFYkLcPd5YL06/qigWPeGNfkSOoq/PAFE8uqLvMm2E0IKgr05CBeumgbBT1lbut6a9uwMpPD3B5Y7ogqBukpjbUy9YE4K85yt82IiJH6S2yJQM6YcGjPXDZqBwpzXhHYa8MvPiwF9dd0jn6A4K6Og9M8eSBukuNGTENgrq4hijUx5zbVaRBVCx6p1oJUAnqRqmpDfW5rxi/PcGKy0e3gfv6y7pi7v1exzwnNxPXXtIZCx5pty8EdXUemOLJAfXIpYxMmhHTIKiLa/B+lz3udIweqTFdJkf4qxuw8pMDLAtMb8xMgrpBaupCvXzLYenFW1pG6b+934vrLpX7rjs1CntlYMEj7Z7/E9TVeWCKJz7U2z1DJ6iHUxMb6mPOkb/AtRXCMS0YfRCbSVA3SE1dqL9hYonVGVd3k36n3enhznJh7r35GDXM3baRoK7OA1M8saGu8YIyQT2cmrhQH3OO3O32YKixbXSub8Hog9hMgrpBampC3cwoPRXirhu6RT9XJ6ir88AUT1yoM2YcIaiHUxMP6r6CDOliuJWf1LZb61zXgtEHsZkEdYPU1IS6mVF6KsS1l3TG3TdEvLFCUFfngSmemFDXqSJpgrmZcMQ0tDcLJZv2oN06sWaUm3BRLq9gTMTcbje2YPRBbKaGZ8ETQjPKqfKgQEPFjHLlmw9j2856FPY2N6e6yti2qx4VOxpQWXMUwVBj1GIr7uw0FPUJP98uGdAR3rx0y6eSvWBYNgKhRrz0VvOPH5pRTp0Hpjj/dZt9zMxyVIwdBt9Cgno4NXGgPvzHcq/tlG8OobKKY4UogrqBBkFdRmPZyoO452dyC7eoCP/eo1j/ZR3Wf1WHco5HAOu/qgPS0rCk+d/evA4oGdARQ0/JwtAhWZZ4vOwCD7btbEDZumB4A0FdnQemeGJBneNnJUE9nOp8qBf36yQ9M9zKjwVuexLUDTQI6qIaZWsCuP7yrra+ehasa8T6L+vwXtkhVOysFxeI2Gl/zVGUrT2KsrVBeLJdGHpKFi4flSO0DCtP3HVDNwTqGtsWeSGoq/PAFE8cqKf3+dHPH+YT1BATPnb8GtqbhZJNe9BubZEHBRrXXJ6HgT8SHx0EQ42Y/bsfxD0wc/lFaO53o9TYD8R2WfCP1KSGqbnf04DTB1szuo2MYF0j/vS3g3j8xRp8+nkQ+w/KTUPbGu12ur6hCRU7G/DXTwLY9N8j8OV3UPpD5fSTO+GLrw9j/4EI3zT3uzoPTHH+6zbbgVmO6nsQWIariWuTKg3tzULJpj1ot7bIgwKN0kHZIgKtsfZfh+Q8MHP5RahQzig19gOxXRb8IzWpYaZQruyzgPQc77zx0doArrvzByxZXtu22pmFxV3l3x7B3U9W4enX9iFYp2bf3Fku3H1D99bpb408cAcVyhmI81+32Q7MclTfg8vsAiAEdYUeTGiYqm5vf7udoB6xmaAuqiEL9UCoEeu+DHH3IxL+mqO4+wk/nnplL3vZUjNh0L5sbRDX3b0HH7U8/zYZhb0ycPcN3YQ8cAVB3UDc2VB3AaL7TlAPpzoL6rLFcP7qBmz8RuMiSlCP2ExQF9WQhfp7qw5y98EbZWsDmP7rPa3FbpZBwKB9INSIua/uUzZaP3NIFoae0u4RBUFdnQemuHOh3nrPhqAu3t5JUB9ykts4TSPCt9sVeCCoG2gQ1Hk0KnbUY5tMgRoj5r66F3M1RuXxgjoQHq3f/WQV/HvlFqeJjLtv6BZ967X398wAACAASURBVJ3Tg2EQ1A3EnQn1qG8CQV28vVOgXnqS3PPzjV+33AIkqBulEtTFNWSgvmyl+VF6sK4RDz9fjbI1AWZOPKFesbMBMx70Y9sujldFdSL8PL1b7AcEdXUemOLOg3pMURxBXbx9vKFe3K8T3NnpIp0BCFe3RxXEEdQNUwnq4hqiUF//ZchUcVww1Ii7HvdzPY+PJ9QDoUbc/WSVaaifOSRLe/13gro6D0xxZ0Fds8qdoC7ePp5QLx0kd7u9bXRu3gNfLkFdlYdkhrrZ4ri7Hq9ExY4j3PnJAPV7IqeGFfRgGAR1A3HnQN3FRCRBXbh9vKBu7vm5Gg/8uQR1VR6SGerrJYE+95WatklinAABTqjPfXWvqUK5gtz06JXZBD0YBkHdQNwZUHfptSKoi7ePB9Sln59/o/cKDUHdKJWgLq7BC/V1X4bgrxErGluyvDb2mbkTIMD5TP3h52tMdTP96i6xBXICHgyDoG4gHn+oR85MoC1PUBdubyfUfQUZUs/P/dUNHHO3E9SNUgnq4hq8UJ/7Mj/gNn17mL1qmxMgwNG+/NsjWPKBfEGgO8uFyy7wmPJgGAR1A/H4Qr39+w7a8gR14fZ2Qb24n9xkMvqjczEPshIEdXUekhHq5VsOc0F92856PPRslWyHOg7kNWTbL3n/gKnn6aOGGzx+I6ir88AUjx/UNe7PENRlPGi3th7qxX3l5r7+bpvxilK8HsxIENTVeUhGqJetCWD6r3Zj/Vexz9T9NUcx9+Ua/PxXu7Vnf+PvUMeBvIZs+7mv7pWW132WLuDBMAjqBuLxgTpjxYAmaK551iQy772GhrasEg2GY5Fk0x60W1u7Slt/6RF6yPz51NksIiEiou1Z6ITQKm2qPCjQYH8H2zQqdtTjoWfCI/CSE8Pf98rqo9HP2Lm/g/xfevZxE/rDEW5fsbMBSz44iOsu6Swlf92lnduWWJX0wBUMDbFLm7XHMioVyb9Km87iLDRSl/Gg3dq6kbrsLfet3zdPg6nwboEZCRqpq/OQjCP1lijfchjlWw7HFswJfQcdMLIzaL+87JD0THIFuena76ULeuAKGqkbiNs7UjdYbY2gLuNBu7U1HmTWP6/YHn27naCuVoOgLq4hM6OcmVRHQECnfSDUiCXvyxfIGd525/DAHQR1A3H7oM6xfCpBXcaDdmu1HmRH5999H/v8nKCuVoOgLq5BUI+OsrVB6VH60FM6sV9hE/DAHQR1A3F7oM57xrW3EtSF26uEusct/roagObX1TQu9gR1pRoEdXENgnp0yI7S3VkuDB0iUDBLUFfngSluPdQ5gc7ugqAu3l4V1KWfn2+vY3ZIUFerQVAX1yCot0XZ2qD0DHJDTxG8PhDU1XlgilsLdZdpkIGgLtNeBdQ9boHfYxERCEZeIAjqqjwQ1NVpENTb4r0y9opxenHmkCz+2+4GHlRoENQNelQAdZdBK24zBHXx9mah7ivI5O8sImIXZSGoq/JAUFenQVAPR9la3kmgYoOr2p3DgyoNgrpBjyah7tL5TCcI6jIetFvLe+hRIF7hruckZgtBXakGQV1cg6AenkBn/YY6RrJ+CD1H1/GgUoOgbtCjCai7dD4zCIK6jAft1io88EX7V9aMOiSoq9UgqItrENSB9V/JAb1EZoTO8KBSg6Bu0KMk1GMfsBDUJX3YD3WZKvdA8Jihk5gtBHWlGgR1cY1Uh7os0Aty0+HNY0wIKuhBtQZB3aBHCahrV0wQ1CV92Av1or5yVe48TmK2ENSVahDUxTVSGeqBUKP0bffBJ8jV2rT3YIUGQd2gR0Gos0sgCeqSPuwfqVsTBHVVHgjq6jRSGeqbvj0i1bxkQEc02QhDUQ2CukGPAkjRf6eBoC7pw7lQ3/B17KpVek5ithDUlWoQ1MU1UhXq5d+KrJDYFkW9M5slCOqi7RMN6sYvKRLUJX04F+pm94OgrlaDoC6ukYpQr9hRLzXJTGGvtrdhCOri7RMJ6nyzDhDUJX0Q1HU7I6hHbCaoi2qkItTLt8jfdm+zQFAXbZ8oUOefRoigLumDoK7bGUE9YjNBXVQj1aBesbNeql3Lbfc2CwR10faJAHWXkBmCuqQPi6CuIgjq4iYI6uo8KNBIJajLFsa5NaaAJaiLt3c61F3CZgjqkj4I6rqdEdQjNhPURTVSBeqyI3TWBDMEdfH2ToZ6xNSvBHX9zckB9SEnZbPEBYKgrsoDQV2dRipAPRBqlCqM01ukhaAu3t6pUG839StBXX9zckDdqv0gqKvVIKiLa6QC1Ct2NAjlA+FK91HD3cxZ4wjq4u2dCPXYs9vUBKSl8XfKmcpKFulOU0PIg5gGw7FIsmkP2q2bkIY0VGw/bGK2OGv2w/T5FPXAzOUX0fYsdEJMe2AfivC5ltewZj/Edlnwj9SkBvs7qOJYCHXILyug4a85CkB8jva7b+gebr/3KDZ9ewTl3x7B+q/qEAg1NltoQhr/H29siP3xC2mIXZZM+rD5fIqJ618zWT/XCOq6m+MLdV9BJkb8pDN8pldbI6i3ZhLUDVIJ6pId8styalTWHOU0pR3e3A64YFgHXDDMDdwAbPpvGOzrvqqDv+YoQV2wvZOgzp61n6BusNleqHvc6Rjxk84Yc143lA5y83YQEyUxbQnqrZkEdYNUgrpkh/yyHBrBkPgzdL0YfEJHDD6hI6Zf1RXbdjWgbG0QH60LtY7chYOgrs4DU1y7R/1leAjqBputh7qvIBNTryzAiDM6w50tvrqatAedzbwaBHW1GgR1cY1khHrFTvFn6LxR2CsD06/qiulXdcU/NtShbF1IbqU3gro6D0zx2I3G6+oR1A02WwPD0kFuTL3aa2o0zgqPO11jGVWCemsmQd0glaAu2SG/rAoImIwzh2ThzCFZqNp7DGVrg1j+UUBs1E5QV+eBKR69kW+hXIK6wWZ1MBx7XjdMvdILr+nn4+wo7tcJG78OMj3wbtYOgroqDwR1dRoEdfkoyE3HtZd0xrWXdMZH60JY8sHB5sI8jiCoq/PAFG/byAd0UTMEdWEfbSA3uXax6SCot2YS1A1SCeqSHfLLamhIP9tWEBcMy8YFw7LFwE5QV+eBKR7e2MGyA0JQ5/JRepIHU6/yovQk9bfWWRF7u719ENRbMwnqBqkEdckO+WXbaVTsDK+65s7iX4pDdQiDnaCuzgNTvAlpw8Z80QRWx6wQMSMmbLo7TQ3hY8evwXBsmOwryMStN/bE8J90FvRmLoKhY7jwmi2c2UI7za1h+nyKemDm8otoe1bxd2BegwX14r4dMfrszijqE35n2V/dgI1b6rBq9UHlHjTPs5CG4B+pSQ32d9Cia5vAl55tre2T6y7tgusu7SJgwNr4aF0IL71Va3z3QMUjBIaGZQwz2Z7nfMr7aPfPFqDrdmzWDEE9avPUq7yYeHGehVXr7Fj0dhUW/alKoAVBvTUzQaDuy8/AvTO8KBmYpZnrrzmKxUv3tgM7QV3KRxyh/tKjPhT2ivcjurYI1jVieVkASz5o/4OxXRDU1XloJx4FdN2OzZohqKO4MAv3394Lxf1kZ3czFxXbD+P2B74P33K3G6gEdWUeWKk57nTMvD4fo87mu+tTseMI5r9RjfLNLa8lEdSlfMQJ6p5sF+6+MRdDT9H+4RavqNp7DHNf26e/MhxBXZ2HCPEYoOt2bNZMCkN96lVeTLnKK9q5soiCeUsQ1KVEnAZ1j9uF8WO7YcK4bprLZBpF+ZY6PLXAj8rqBmkPRh8Q1Lk65JeN0CgZ0AmjhrtR1CfDUSP25R8F8IcPDrJvwxPU1XloFtcEum7HZs2kGNR9BZl47IF+cRuVb91+GEv/XIOVH9dqJxDUpUScAvUxZ3fG5Im58OaZf82x7LODmL+4GoGQ5iWB6YH3A4I6V4f8sgyNkgGdUNQ7A4MHdEJRnwx4c/lfZlIdhqN1gro6DwDSho3+d5PtByRFoD7ijC64/xe9bH1WHgwdw5p/HsTGr4NY8/nBqBE5syKaoC4lEk+olw7Mxswp+a0Fb6oiGGrEshW1WPYhR4FTSxDUpVLtgoA3rwNKBnREyYBOGHpqVlyq45d/FMBLb7EGFQR1VR7CQNcRIqjLaUy7ymfbLfYWiK/9/CDWfK5fkEJQ58l1LtR9+RmYdbOPWfCmKsKFc/s0KuIZQVCXSo0HBEoGdMLQU7Iw9NQsW0fv23Y14OF5e7VfcSOoK/HQBnQdIYI6v4bHnY5f/qIXhv/E+ldK1n5+ECs/3o81/zwoeL0hqBvnOgvqHrcLMycXYDRnwZuq8NccxZwF/ojCOZ0gqEulxhMCRb0zMWq4G6NGuG0ZuQfrGvH0a/u154cnqJv2EA10HSGCurGGx52O5x8vQnE/60ZPwdAxvPvnGqz4ey0qq+oNbbGCoM6T6wyoT56YK13wpirKt9ThxcU12LpDp3IZIKhLpsZ7ZAcAQ0/NxuWjcjD4BLWPcbTipbdqsfyjQOwHBHVTHmKBriNEUGc36F+Yhft/0csymPur6rHwbT9W/H0/0wNrEysI6jy58YP6mJFdMHlCLrz51s3rLxplnx3C4qX7miviGUFQl0p1AtSRlgZvXgdcf2lnDD3F2uftH60L4enX9ml6MB0pCnVtoOsIEdRjG/QvzMLzjxfB7VZf/KYN8lgPRptYQVDnybUX6qUDszF5Yi5KBmbzt7MxuArnCOpSqU6BOhB+z/2yUTm4fJTHMrD/Y0Mdnn5tf+z3iKAup8EEuo4QQb0t+hdmWwLzYOgYFr7lx7t/ruHIJqgr8xBHqPvyMzBzSgGGne7h7iueEQw1Yv4bNezCOYK6VKqToA5YD/Ztuxpwz5xqgjrMn099oOsIEdRbRubFymG+9C81WPhHPwIho0VUIoOgrsyDzVD3uF2YPDEP48d149Z3UugWzhHUpVKdBnUgDPYZV3fFBcPULyRFUI9INaFhDHQdoVSGusedjtefPwE+hcudbv3+MOa9uhsb/xNRLGLjHQeCOk+uWqhPnpiHCRfGt+BNVTAL5wjqUqlOhDoAFPXOwIyruykvniOoR6RKavABXUcoFaHucafj+SeKlRbALXrLj4Vv+bmtsYOgrsyDhVAfM7JLeIY3BxW8qQrNwjmCulSqU6EOAJePysF1l3ZWeht+264GzHhI4zpIUOfSSO9d/LOHzZpJNag/PKsvSk9S85wzGDqGex7+Hiv/3lLtaRFQCepyHhRDvXRQNmbN7IHx47rBY0ERZfuo2HEEv3muEvOXVKF71w4o7mv9K0lFfTpizNmdkZmZhortR1Df0DxmIKhLpToV6lsq6vHp53Uo7pMJb56aCWq6dUmHL68D1m+g99QB8fPJP0I3ElKgoUDYdHdGMLztpuMw4eJ8EUFmbPw6gAce2x69YArLg85m7mSCupwHBRfwHgUZmDnFa1vBm7+6AYuX7sXKTyMK1tKaZ5qbYf1Mcy0RUzhHUJdKdSrUW+LyUTmYflVXc/oRwZwqlqCuqyEOdB0zyQ71EWd0wWMP9BMRYsbKj/fh8Wd3sXpjbiWoN29JEKh73OmYMsm+grdgqBFLP9yPZR/uRyCo8UpZs93SgdmYOVn9XPCsiCqcI6hLpTod6kW9M/D0fQXKbsH/9rX9KFsXFPLAHUkKdTmg65hJVqj7vJlY+PwJSiran3huF1b8PXpCBYK6uIbToT7hwu6YMinPtoK3VasPYv7iKm2QR0aEXZWrtfFEa+HcTtaMcwR1yQ75ZS0EkSfbhafvK0BhLzXfp5sf9qNip8YkRgR1TQ15oOuYSUaoP/9ksZLn5k88uwsrPtaYHQlMx0bWOIKgrswDxwV8+I9zcMuUAtsK3so3hzDnxUpUVmssesGKiP0wu566TJR9dgiLl7FmnCOoS3bIL2sxiO65sbuS19uq9h7DjIf82hMYEdRjNMSK4gTMJBPUp17tw9jzuos00ownno0YmQuxhaCul+wUqJcOcuO+W3rgqktzbSx424PFS/dGXPDE/5bqG5pQvrkOf/m/WvsL5zLSULEjonCuvTndLXofENQNZS0E0fqv6uDL74Ci3uZe63Vnu9C7Rwd8+i/G4kAE9SiNtGGj/sVcD92smWSAev/CLLz2/ACRDjUjCuatJrRzCeriGvGEui8/A1Mm5WP0SOtX2AOaC80WVWHl6gPG5oxCI9WXn4GZkwsw7DT1E4hoRWvh3GftZ5wjqEt2yC+bICN15vN0Dg9ckSRQDwPdQjOJDvXnn+xv+lb7E8/ubIY5P1AJ6uIadkPd40nHhAu7Y/LEPJGOpSMYasTSv+3Hsg/3tT0ntxAipQOzMXlCrm0V8f6ao5jzUvsZ5wjqkh3yyyYA1IN1jZjxUJX2WuocHrgiCaCe3rvopoetNpOoUB97fndMvLhApJOYmPfqD/hgxV59HwR1ZRp2QX3CRd3xm3t74fRSe0axq1YfwKPP7sG6fwdib09bBJHK6gaUrT4Ef/VRFPfrBI/Fz9c92S6MPqszSgdmoWJHPfYdaHmdk6Au2SG/rMNvv2dmpMGXl86+9W7ggTsSHOrRQLfQTKJB3eNOx29nFyMzU/4itvLv+/D7xXv4fBDUlWlYCfXhP87BU7/qjXOGhZ//Wh3lm0N4cO4P+MtHB9grmwGWjtQrdtRj2Ye1SEMaivt2tHy/ffkZ+On5XdAjPwMVO+qb1zQgqEt2yC/rcKj36pGBbbsasGuPTvFnikO97Za7DWYSCepTr+6BqVf7RISjYuv3dZh223/FfBDUlWmohnrpoGxMuSLftiVN/dUNmPPiHmz8RmdE0j4shEjLufa4XZg8IReXj1U3iYhRvLFsH5atqEUgpHGpYjUiqMvJWgyil2b7TL3Splv1zumBKxIU6tpAt9BMIkA9/M75AOl3zoPBY5h6239RWVUv7oOgrkxDBdR93ngUvPmx8tPIgjcVfwfqoA6ER9E3T863tXBu8bJ9WLYithCQoM7VIb+sxe+pL3m6h6nJZ/7wwUEs+YCxZC+HB+5IQKizgW6hGadD/Zd39MEYE6+pPfDY91jzT1YFMocPgroyDVmoe9zpmHBRd0y4qLst72aHC972Yenf9iOouWyu86AOACUDs2wvnJv/Rg3WfRFd8UxQ5+qQX9ZCEJUM6Ii5s+Rrk4J1jbj+nkr9UbqBB+5IMKjHPkO3yYxToe7zZuKXd/QREYmKtf88gIVvVQq2IqjrJtsM9THndMFTv+6N00vdtjwnX/XpAcx+ZjfWRhS8aXt2HtT91UexavVBWwvnzjnTg9KBWaisOQp/xGQ6BHWuDvllLbr2+2uOAWlpKBkgN99BZkYaGhqasOm/rNkGjT0IRQJBXX+EbrEZJ0L9tp8dj4mXyC2+Egwew8Rpm8OLrQgfMoK6brINUC8d5MZ9t/a0dYa3FxZWYev2w5qfJwrUI2PyhFyMH9c1DjPOHW32xQiCupyshSAy8zyde5Ru4IE7EgTqxiN0i804CeoedzoeuLOPdGX77xfvwcb/BCQ9MBoQ1JVpsL4+xf064cE7j8fkK/JtmeEtXPBWiZffrMa+Wv3pWhMN6uEZ5w6gY6YLJ/bvxN+HZBT16YjxY7siDW0zzhHUuTrkl7Xo2r+l4gguOkdujg+hUbqOB6FIAKjzA91CM06B+qXj8jH8TLnip63f1+GJZ3aa9MBoQFBXphH59fEVZOCWaT7c8bMe8BVYPyoPhhrxyptVmP3sD9j5g1HBZFskGtTrG5rw7/IQylYfgq8gA717mpv+kydKBmbh4vO7oL6hCZu3HiGo83XIL2vBtX//gUaYufVe1CcDf/s0qDFtML8H4XA41PluudtgxglQf3fhSfAVyF18br//O2z4T0C7Q4K6Og8KNHI8LQVvubbdGl78bg2W/m1f+HGMjjdWJBrUIyNehXPrv2BNFcq9kR0EdfHQaO/JdmHBbC+8uR2kJHWnhOX0IBwOhrrYCN1iM/GE+pCTczDxErnKy41fB7Dwj5GFcAT1cKrzoD7m3K6Y++s+OL3UY1vB26+f+h/W/vsQYySR/FCPV+FcycAs+NsVzrUGQV1OVvG1v76hCcFQE4aeIvdjr7hPJpZ/FDBO1PEgFQ6FuhzQLTIDxA/q067tgf6FcpOGPPHMDo13zgnq4VRnQL30JA+ee7QvxpzT1bYZ3ua8sLt5VK5u3vVEhToQXh3O7hnnRp+VA19+Bso313FOmUtQN5RVfO2v2NmAUSPcUj/03NkubPrvkXDlvAkPUuFAqMsD3QIzrZut8qCT+sAdfaWK4WJH5wYdEtTVeeDUGHNuV/xmVi/7Ct7m78HLf6jSXus7xaEOxKdw7pyhOVj/RTC2KpqgLier+NpvZpSehjSs3yAwoyLDg1znzoK6uXtfTWKP33nbC6mKeGCkjjizq/SscCv+b6/OpxodCh8yfg2hoyl2kE21b7LKA4fG8J/k4L5bjhPpSCpaZni7csZWrP3XIXYi0y//wdD+ypv/O1ChwTzX7SIQbMT8xdW45rbtMZPEWBHevA545M4esR+YPZYKNNiXMBXnVKhDflnF1/6ytUH49+q/8cGKoadI/ig0uw86GpYxzKC9+YdZSQD1EZKV7ZVV9Vjxf/sMsgjq4dT4QP3WaRoXccWx+J0aXDl9K5b+1ei70BwE9daorGrAg7/djTsf/R/Kt0iMsgSiqE8mRp+VE/sBQV1OVvG1f8n7BtO5MsKd5ZIe3Scb1F1NFu6Q2fZ2Qf2sM+QWmljLPb0rQT2cai/Uh/8kx9JJYlZ9egBXzdiKRX+qDlevC11QhT+IzUwSqKMpfBv+ztn/w1Mv+dlrXiuIoacz5p4nqMvJKrz2l60NIljHMVGMRgwdYuINiiSCuiv8/6kL9f6FWdK32//0fpVANkE9nGof1Iv7WvOaVPk3Idzx4A48OW83KqvaPScnqEdsFtdYtfogrr71e7z4RjWCPLOACUbpiVmCu0xQN5RVDHWZkL7truFBtYadUG+95Z6qUB9xptzofOv3daj01wvuMkE9nGrvSF1lVGw/jF88uB0bvwmq8UBQ19RYtqIWi5fq1afIRcu8AwR1rg75ZRVd+98rE3wFrTncWS4MPsHkBEZJAPWoZ+ipCPUhJ2s8U+OIFR+1PS8lqIu3T1SoF/XthLdf6o/hP2753hDUjVJFoV4yMAsvP9kbN18vt6aCQFcCHxDUDWUVXPv9NUexbZfG2yEcMXhAJ/MMS3CoxxTFpRrUS0+Wm0v4s3/WynTXks21SZUGQV1tePMz8OisXnh2dl+UDnKr8UBQhy8/A7978Hj87tfHo6iP3HSgokFQ5+qQX1bBtV/2tnvLFLKpDHXNKvdUgfqQwXKj88qqelT6Y+fiJqiLt7cU6hZHyaBsPDO7D+67tSd8BYypKwnqEZu1P/C4XZg1w4s35/W1bXrYyCCoc3XIL2vy2r/uy5BUu8EntP0ITFWoM19bSwWo9y+Uu3hs+M8hpguCunj7RIY6AIwe2RVvLeiPKVfkaU9eQ1CP2Nz2gcftwuQJufjjvH4YdXZnfm3TEWuOoM7VIb+siWu/v+ao9DvpkQu9pCLUdd9DT3aoF0sCfc0/Wl5XI6jLeNBundhQB4DJk/Lx9kvFmHBR99gPCeoRm5sw+uzOeHlOH1w/obttC+S0d2G8Re8DgrqhrIlr//ov5eYkGDwguto91aBu+JeUzFCXnbv9u22Rt4QI6jIetFsnPtTd2S7MnOrF2y8VRxTONQdBHaUDs/HKnD64d4YX3jy5FbbUBUFdskN+Wclrf/m3h6XaFfWOnXcilaDO9RfV1NSENLPzzTY1mZuzltG+CQLz5rbTkBmhaz8/13YhtssaGkI7J6bBcCySbNqDdusm7fnAzXqwOcKFc8ej/JsQFv2pGhu/CYlbY+byi2h/B4VOiGkPaAqvPT9rhi8uz8j1I3Y/xHZZ8LtmUoN9TVFxToU65JeVuPZv+vaIUH5LaAE9bMEkw8zyS0fDDMPaB/dP5GSDuuzz863bWLeCCOoyHrRbq4J6/KOlcG7Vpwew6E/V4YloUgjqHrcLMycXYLStz8hFg6Au2SG/rOC1PxBqhH/vUeF10vXyUwHqQg+vkun2u8cjd7sv+nY7nwu6/S7ePhluv0fG6JFd8NaCYky5Ij9cOJfkt989bhcmT8zFWy8UOhzmLUG33yU75JcVvPZX7JB7Hz2yMC7WQnLffheuRkkWqA+RfP/8O+YIXd8FQV28vRqoOysmT8prK5xLUqiPGdkZr8zpg8kTcuNU8GYQAseSoM7VIb+sgEbFzthXg3nC6DuXzFCX+mtLFqjLRKWf59kOQV3Gg3br5IN6VOHc6QJzITgc6qUDs/HKU31w7wyfpYviKAmCulSqnVCXf45uPAVsskJd+udzokN9yGCrRuj6Lgjq4u3thvqv5uyEv1rudp9ItBTOPftIH5QO4nzjwoFQ9+Vn4JmHeuF3D9kzw5u/5iieWuBH+WaTy60S1KVS7YJ6QHJxHk82by1C8kHd1HsjSVMoxxnBliUyTVZbU6GceHs1hXJ8sfbzQ1j7+SFMuCgXU6/MhztbbjU+3igZlI1nHmkunHunOnYFt/bB3Gf+g6GiUM7jaSl468LXxmQEQ41Y9mEtlq3Yj0CwUc2zeYFjKXbYBb+YJjWSsVBO9pY7zwi9zUJyFcp1MGsoUaHu84qPJFpH5wR1SR+JA3UAWPrXvVj5SS0mXJSLKVdYu1AIEC6cG/7jHCz96z4s/du+8BrrrIgj1D1uF8aP644JF3az7Rl52eqDmP9GNQJB9UuqEtTlUu2Aukylu2gkE9Q7qDCUiFD3FZhdao8hLJBMUBdvbzfUA8FjWPSnKqz8ZD+mXFGAMefILbfLG+5sFyZPysOEi7rjhYWVWPnJAXZyHKA+ZmQXTJ6Ya9sz8vLNdXhqgR+VVj8CIahLpVoNdX/1MWGgs95F1/WWJFBvO1IpCHXR2NO+II6gLukjsaAOAJVVDXhy3g9Y+Uktpl6Rj5JBWztdpgAAIABJREFUbms6ag53tguzZvbElEn5ePKF3W0T07QPm6BeOigbM6cU2LYKWsWOI5i/uBobN4e0z7UVQVCXSo3X5DOscGfJ3TVKBqhH//QhqOuG1gprBHVZHw6Guo7Gxq+DuP3rIIb/JAe3Tuth+UjVm5+BZx7pg/LNIbzwuh9bt2tMiWkh1H35mZg104eSgXLTJIuGv6YBi9/di5WrD0a4YJxrK4KgLpVqFdQrdtZjsM575aoj0aEeey+DoC7Rn4gwQV3Gg3br+EAdiEPh3MBsvPJ0P3bhnGKoe9zpmDnF3oK3pR/ux7IP92tWNxPUxTWSAeqyle5mIpGhrv1wIsmhforkOuj6/YGgLuXDQqibDQ4fjiqcUwB1d3Y6JlzYDRMutG8VtFWrD2L+4qrogjfNU0pQF9VIBqjLhDevA/w1ckuwhi0kJtT1Jr5NaqhbEgR1SR+JDXVHFc6ZgPqYkV0wZVKerQVvc16s1C54Y36tCOqiGqkIdV9uuimghy0kHtT1yweTGOqWBUFd0odFUFcRnD7aCucONBfOWfvcmVk4Jwj10kHZuGWKF0V9bSx4WxQueNMNy6CuAmQEdckO+WVVTPxi8tqfaFA3fh+AoC7RHwjqUj4SH+oAsPHrQEThnPXToGoWznHQxZefgftu6WFfwVt1AxYv3YuVnx5gmYsNHaibC4K6lA+7oW42UgzqfC/4EdQl+gNBXcqHE6CuZj/aCue6Y+qVBZY/k9YsnNPw63G7cMsUL0aPtLvgbV/Ec3KLICIUBHUpHwT1uHjggTr/G/sEdXENgrqkj+SBOpCGpX/dh5WfHMCUK/LDq6xZHDGFc6Fw4ZzHnY4JF3a3ueDtAOYvqmJUKxPUhT0o0CCoy0o4H+piU/AkC9TNBkHdYLMzoG4+1O1HIHgML7xeiaV/3Ytbp/kw7McWvGkREe0L5wBgyqR8GwveQpgzv13Bm50QEQqCupQPgnpcPOhBXXyS3CSA+obyg8ZJKj0Q1CV9qNgPs6F2PyqrGvDAk7tQepLb1sI5uyJc8FalPbOdGOG0Q8X5NwtUgrpUqp1Qr2RVuCc51OVmvU8CqCsJgrrBZoI6K7llxrmx53bFlCvsGzlbFf7q5hnePtWZex4gqKv0oEDD6VCXDd1X1pIY6vLL2KQg1DXXUCeoG2wmqOslr/i4Fis/qW1+vp5r27NtVREMNWLp3/aFZ3jjXQlNFdTNBkE9nOlgqFsWSQp1c+vSpSDUTXsgqEv6SF6oNzUBi/5UjaV/3YcpV+Rj/IXWF86piNaCt6hlXtXD0NIgqIczHQr1EivncU9CqJsfDpgsMmtSVaQmGBv/c0i4je4a6iIehOxqJ4vtskay8CHj12A4Fkk27cG6sGY/mprQWjh31YzvsO5f4t9Pu6J8cwhX3VyBJ1/Yo7Fmu4q/A5tPqmZ31uyH2C4LHgeTGuxrikXXNhXXfrOhwINphilkYAfbX+XSbJ4YI3XDNdRppG6wmUbqeskt57OyqgG/mrMLpYPcmGJD4RxvVGw/ghcW+aMK3rS/g9aMcC0NGqmHMx02UvdIPILa9O0R4yQBD3wSzhipu1rFzEaCjdS/qzCYdpIR/QsNLq40UjfYTCN1veTI87nxmyB+8eB2zHlhN/xa853bFP7qBsyZvwc33vO9ZvW69neQRup6H9BInatDFPY2GESpiiQZqbf9/EkxqB8KtL9VyBc+L8cXjKBusJmgrpfc/nyu/KQWV07/DovfqUbQxuUkg6FGLH63Bjfes92wep2gbpRKUBft0JsnV+IlvShLEkA9+n5GCkH9u22SI/QiztufBHWDzQ6GuoLzoRrqQLhw7srp32HZ3/aJiEvFqk8P4Mqbt2LRO9Uaz8m1g6BulEpQF+nQJwl05jvoEh7kJOIH9dgHFCkC9Up/vZSs5qtrkh6ic0VcENRlPAiFQ6FudeFcuOBtK56cvzsC5GYhQFDX+4Cgrt1hUR+52+1ml01NZKhr/wRKgUI52WfopSfniJWpUKGcwWahZDEPZkPB+TCrwTqfqgvnKrYfxgsLmwveTBZFUaGcUarGeeZPFfOgQCNehXJFveUmW/JXHzXPsAQtlHOxf4Al/0hd5tU1IFwYJzb4opG6/maLRuoqwqEj9ZaILJyTeb4eDDVizvzduPHu76PXU+f0xsx08EhdaJ5/GqmHM+MwUi+WLIir2FnfqmEqEnCk7gL0vkjJDXXZUfqIoV3Dsgo8aOcKCZvujqCuUtZ+qAPhwrmt3x8W6QQAsHX7Yaz8RKPgjaBu0B1BXcqHQKpMhXuwrjF6Zb8Ug3rrM/RUhPpXm+RG6Ged2bVN1qQHdq6QsOnuCOoqZeMDdeVBUDfojqAu5YMjteTETvx6EVGxQ6M2KoWgHlUUl2pQ31pRJyVTXJgFjzu9TdaEB/1cIWHT3RHUW1pb6IGgLtyeoK7QgwINO6BeMkAO6OWsSWVSBOoxVe6pBPU9/iOorJKrdj9raNeofxPU5TQI6uIaBHW1QVAX17Aa6tIj9J311jEsAaCuOa9eKkF9zfr9UhLjLsiNlZX0YJwrJGy6O4J6S2uCuo4Fow9iMwnqBqkEdSA83etg2RH6lsP6DpIc6syJclMF6rLP0UtPzkEPjVnjCOpyGtZB3VwkPdRFNJIF6szTQVAX1bAC6kNPlXsFc9vO+qiCuFSEuu7M96kA9TXra7lnwmofY8+PHaUDBHVZDYK6uAZBXTII6so0VEN9mCTQtZ6fpxrUDZeySRWoy8S4UXnMfSCoy2kQ1MU1COqSQVBXpqEK6p5sF4aeIgt07dc2UwnqXGvTJTvUP5N8ju4ryMS4CwjqqjUI6uIaKQl1FUFQV6ahAuqyMAfanp8LOUgyqHMvNpvMUF+zfr/0bfdJlxW0mND8nKAup0FQl9QwGwT1iM0EdVENs1AfP6Yzd1+Rsf6rUPSEMiIOkgjqLhEzyQ51mSguzMaQwTktJjRzCOpyGgR1SQ2zQVCP2ExQF9WQhXrJiZ2k1z9f9xXfnCLJDnWXqJlkhfo7y/3SbW+4rmekCc0cgrqcBkFdUsNsENQjNhPURTVkoD5qhMBKlu1i/RdB7txkhnrbLfcUh/p3FSFslVwjvfTknPCz9DYTmnkEdTkNgrqkhp0eCOoGGgR1PQ1vXgdpoLfebncCw+IM9ehn6E44IAo0ZA+ImVH6tMhRetiEZh5BXU7DVqgLHXaCunEuQV1XWCg1OaF+/eVdGXnGse7LiIGYExgWR6jHFsU54YAo0JA5IB+W1UhPBesryMS0awnqBHVZDwT11kyCukFqckHdzOg8GGpE2ZoAb4cMB1ofJCbUtavcnXBAFGjIQl02Jl3mRQ9vx/YmNHMJ6nIaBHWrg6Bu1B1BXVxDD+o3X9ddzEtExMDcuEMNB6wPEg/q7NfWnHBAFGiIHpB3lldKv8Lmcafjgbv7apnQzCeoy2koOJr8QVCX8+BoqJv/WyKoi2tonc+SEzuZevd82aqDYh2yUhVoWNIeYgzTfw/dCQdEgYbIAQkEjpl6lh5TINdmQjOfoC6nQVC3OgjqRqkEdXGN9ufznp/li/UfEeu/CsFfc1SsQ71UBRqWtAc/w4wnlnHCAVGgIQJ1M6N0ALhteq/YW+9hE5r5BHU5Deugbm4/COo8uQR1VR4SFerXX94N3rwOYn1HxHt6o3OtDnlSFWhY0h58DOObKc4JB0SBBi/UA4FjeP6lndL9eNzpeOKhIpYJ7c0iHRDUDTYT1NWFk6GuIgjqwh4UaBT2zsR1l8lXtm/69jDKN7Oneo0JJzDMBqhzT/3qiAOiQIMX6mYq3oHwDHK3T+/FMqG9WaQDgrrBZoK6uiCoG6US1Pk1PNkuzL7DK9ZXu3jjvVre7trCCQyzGOr8QA8r8acq0FDhQ7s5X/vH5m4z1c/ES73az9PDJrQ3i3RAUJeXtsCDdmuCunEuQV2Vh0SA+r0/zzd1q339V6HohVgI6q0hBvSwEn+qAg0VPrSbG7ffsOkQ1vxDbmnVlrhtei/0L2JUcRLUlWoQ1K2OJIG6Ag8EdTmN8WM6Y6jkeuct8eKSfbzdaYcTGGYR1MWBHlbiT1WgocKHdnPj9o89vc1UgZzHnY55T52gXSQXNqG9WaQTgrq8tAUetFs7F+qmz6eoB4K6gUZyQn30WR7MuDZXTLddLFley65sJ6hLAj2sxJ+qQEOFD+3m+u0DgWN4fckPpvpoKZLzeNJZJrQ3i3RCUI/ZzDzeBuFxs9oR1JV5UABUT7bs+XUp80BQ59Mo6pOJm03C3F9zFO+tNKhsT3GoywM9rMSfqkBDhQ/t5vrt31nux8ZNh0z1UVyYjReeOoGgLu2BX8NXkIn7f9ELE37KqF8wiNef7Y+x53Uz5YEVlkLdZCQK1EsHZePVuf1Q1Jdx18sg3ppfhPEXdjPlgSeVoB6Ooj4Z+N0DPeDONoebBX/YZ7jmOcsDO9cBDFMIdaH10M2aSWSo3/fId6ZuvQMEdauh7nGnY+pVPrzz6okYc678dJLegkzcd1svvPbsj1B6ktYc0wR1XQ8WQd2Xn4FnH+mNZx7uLQ1zAHBnuzBzcgHeml+I0kHZBHWVHtqlF/XJxO8e6Gka5uu/CmHdl/xLpKYq1IXXQzdrJlGhHggcw2NPf29KHyCoWwX1iRfn493XTsTUq8y9DhMZxf064bnHCvHcY0XwFWQaekhMqGtc7B0GdY87HffN7IG3XixCyUBzBVWR4c3PwO8e6oVnHu6F4j6sHwgEdWEPzemqYO6vOYq5v68W95GCUE/v1e+Gh1v/lZZmTk2gPTPTrAcFGmmM9jt3HUaOpwMGnSi3MlBLdO+WgfNH5mLDpkPYt7+BZUJ7s0hHIsdBTNh0d5oawqctDSPO6IKnHynEeSO6IjPD3IWDFb6CTEy8OA89vJnY+HUQ9Q2Rf3jm9iONlSxxLMee21Xjh4d++KsbsPKTWs0OTZ9Pnc08uR53Oq6+LBcP3nEcTuyfJWJGKHz5GfjpBV3hK8hAxfYjjNu65v+WmOeaW0PF37PGebbAw7DT3Jh9h880zAHg4Wf92LWn/XXSomubExhmon000G02k4hQ//yLAzilpDN8rKp1zvC403H+yO74/MuDBHUJD0NO9uCXd/TGNRMKdIrY1EZxvyxcOjYXmZkubPw68vafM6BuDujaHcYL6mNGdsGDdxyHYafnIDNDwfWAI4r7dsKYkV2QmelCxY7D7X64RZjjiRSG+vgxXXDPz/OVnLc33qtlr6hGUI+JWKDbbCYRof7ZP/bj/HNyTYMkM9OFSy/MR6W/Ht9tC7FMaG8W6SiJoO4ryMRtNx2HW286ThheKiIzw4XSkzwYd143BELHsPX7lgku4g/1sed2Mwl07Q7thHrpoGz85t7j8dNR3Wz7oRYZmRlpKB2YjXOHdkYw1Iit24+0yyCoszZ6sl34xQ15uPKn8lO6Rsb6L0N4dmF4OWv2d5CgHhnaQLfZTKJBvb6+CRs2HcL5I8OjNbMxYmhX9PB2xIb/HEJ9vcZzFII6PO50XDPRi8cf6IfiQutuv/KGx52O4T/pgiEne1BZ1dA8TXB8oa4G6NodWg11X0EGfjOrFyZPykf3rvKziKkKjzsdw073YPiPc7Drh3pUVkfeRSOot99Y1CcTs+/y4fTBamocKnbW46Fn/FF3SQjqHOlnnrOO/SSeoN7cXLv9kME5mDd3gCntyNi6LYTHfrsd31VojNZTGOoTL8nHtKt8cMdhxMYbaz8/iHmv7kZllcbjE5ug/txv+qFkkJu/MwDl3wRx+6+3c3VoBdQ97nTcMtWL0SO7iIjbHuWbQ5jzYmUE2AnqLRvHj+mC68d3U/K8HACCoUb8/IEfUFkdO4EMQV0/2CP0OJhJNKhX+utRWVWPEUNZ7yyLRfduGbj0wvD6wBu03ntPMaiPOKMLnp5dhPNGdFNyJ8TK6H18R0y8OA85nnRs/m9d7PNXG6CuboTO7lAV1MMFb3l48E5rC95UhS8/A+PHhR8DbNnacn5TG+q+/A6YfacPF53XWVmdQzDUiDsf24Nduxl1RSCo64Ux0G00AyQe1L+rCCmFOhAe+Z81tCu++TYYWzCXAlAfcrIHv7yzN66Z4I3Lc1QzMfCEbFw6trtG4Rwsh7p6oGt3aBbqY87pggfvPA7DfmxfwZuqGNg/CxdfEP6BWb45hFSF+vXju+PenxegV091dSwtMK/YYbzKJUFdO/iAbpOZ1lSrPCjQsAvqLaP1HE86vvk2GP1sPUmh7vNm4rafHR+3gjdVES6cc2Pced1RWV2Pnf+LKKyyEOrWAF27Qxmolw7Kxm/ui1/Bm6poKZwbM7ILo3BOJxIc6sNOc+PJ+3pi2Klu5T/G7n+qElu28h9Lgnps8APdBjNRqVZ5UKBhF9QBYNAADy69sAD1DU345tuIEV8SQT1c8ObD478qtK3grbKq3nKoeNzpOHdE1+bCufq25+sWQd06oGt3yPv1aS14u8Kegjd/dQMqdhyBLz/D0n5aCudKB2XBX320XeGcTiQg1EsGZmHW9AJceXE3eBQ9K2+JYKgRtz78QwTMBThBUI+K9OP73fCwZRAw2Z6gHo7MTBd+cloXjBuVh0DgWNsrbkkA9YmXFOCJXxXix6d2FhGXjpV/34dfPr4dC9/yo7KqAf0LsywHu68gE2PP64Ye3kxs/f5weAphC6BuLdA1OoT+18fjTsed03tg1i3HwVdgLVyBMBjeen8vnpxfiT+X1aJixxEM+pEN5zc/A6NHdjaYmKZdJAjUSwZm4d7pBbh+fHd4LfiBFL7NvlvjNjtBXcZD2hnNVe4EdZnm2u3HjcrDL+/qZ0pbLyqr6vFhWQ3eed+PQFD74uF0qI84owtu/dnxtt1a3/h1AAv/6MeG/wSirHnc6Zh4cT4mXZIHt+TqXaKx6O0qvPvnGgRC/GsD8EBdbZU720nMlnabPO50TLioOyZclKus8tkoVn16AC8sqtJcb2HKpDxMuLC7bV4WL92LZR/uZ/5ttoaDoT76rM6YPKE7vHnW3VEJhhpx52+aYW5yPwjqzZvOiHhtjaAu01y7ff+ibMybO8DS0UEgeAxr1tfinferNCemcSLUh5zswbRreqD0ZHPT5/JGZVU95r3yA9b8U2PZxQhrHnc6brupp6lFXUQiGDqGhW9V4d2/1HC3MYK6NNB/td30D7WWr8+Yc7piyhX5lozmtKJ8cwhPvrDb8HUyjzsdUyblYfw4tXfPWBEMNWLRu2Gw64aDoO7Lz8D4sV0w+qzOlv/4qdhZj7se3R19N4OgLh7t2kcBXbdjG8zoplrlQYGGHtQfuLsfigvVLSjBiq3b6vDhRzVY849a7PG33b5yCtR93kxMu6YHxp5nEzCDx/D6W5V494PqiK0apttt8hVk4pe/6MVYZU19+Ksa8Pjzu2Ir4hmhB3VTQG/W4I/o5NKT3Lh1mhdFfTsJ9S8bFdsP44VFfmz8RmuGRfaO+PIzcMtUL4adbtP5rW7AnBf92LiZMRMkEFeo+/IzMOw0N0afnYMi5gI1aqNszSG8+MZe7UcTBHXxiGgfA3Tdji02Y5hqlQcFGiyoezzpeODuQow4U810iDyxdVsdPvtHLTZsOoQNmw7FFeoedzomXVqAqVf3EHFhKhY2g1x7uVtjqAPNc8Xf3gteux4JfBPEvFd3R0wlyw7Whf65x0wCPSwuEGnwFWTg1mk+DPtxjlC/suGvbsCid6qx8pMDLRaY3vSidFA2bpniNbUMq0iUb67D/MVV7Ir4OEB91gwvRp1lz3lriQVL9mLZygP6SQR18Whurwl03Y4tNMOVapUHBRosqAPAtOuOw7Rre5rSl4lA8Bg2bDqEX86u4G+kCOqTLinAtGt62DbD28q/78Prf6xsnoZVL/igDgDjzuuOW2/qadvz9ZUf78fCt6sM90HrQq8E6GFxw/C40zHlinxMuChXqD/ZCIYasfSv+7D0b/tif6iZuICPGdkFUybl2faIYNXqg1j87l7tiniboT7z+jxcPtaegYa/5iieeqka5Vvq+BoQ1MUjLQ3px/ed9rDt1dIm2yci1FtGy6eUdrb1HdzMTBf21zbgw4/22jZSH3FmV/z20WKcd5Y9M7xt/DqAJ57diXf/zBqVawUf1L/7vg5/XrEXDQ1N6F+UZdkSrS1R3C8L487rhswMF7Z+r7XiV1u0v9CPPU+yyv1jjSp3ndM/5YoCPHTX8SgV/PEgG6s+PYB7f7ML/9oYYB8PyQv41u1HsPLTg+Hz26+T5RPdFPft2LyiWxoqdhzhnlHQCqjvrz2Gn55v/ZS7678M4v45ezSWQDUIgrpwpJ0xcm2TnhBBXaY5u73Hk47bp/fG2AvyTPUhEq+/uQev/2E3AGufqfcvzMJtP+tlb8Hbyz9gzT+Nbr+ygn+knobw8/WpV3ttLZyb9+oerPiYXVgVeaFXNkJvE4+KMed2xdQrCuwrePsmhCfnM+bH1wqTF/DwvPIFGH22PfPK+6sbsHjpXqz8tF3Bpo1Q/+O8vpZVsgdDjXjq91VY94XBUsN6QVAXijag6wgR1GWa67cfMbQbbp/R25bXtm6d9f+i5oZXfT5bC97Ot+n2a/AYXv9j+4K35rAY6gBQXJiFW2/saV/hXHUDHn+OXTjXcqGXB/r30Nvp0pPcmHpFvrC2bFRsP4wXXo8oeBO6oAp/EBP9+3XCzCkFKBlofTErAFTsOIL5i6qjC+dsgrpVz9HLPjuEF9+oQaBO69U9grqhrCR/ooGuI0RQl2mu397jSccN1x6HiZd5TfVjFMPHfhmzTcX5bCl4m3RpgW3PyRf+sRLvfhD5vjE/kNkhDnUAKI1D4dwTz/1P8/l6GtJMAj2sEhm+ggzcekMPewve/hRR8BYZNkM9LS1cODfr5h42voJXF72imw1QH3aaG7PvUlewWrGjHi8uqUH55ohn5SaBrEIjVaAeC3QdIYK6THPj9v2LsnH79N4oHaz+wrl1WwhTZm7R/MzM+Rx7QS5u/9nxNhe87UGlX6tYLH5QB4CJF+dj6tVeWwvn5r22J6Ze4PnHCk0CHQDSwgVvV9pd8LYXS//aUvDGeeD1QhHUgXDh3MwpXtsmpln24X4sXro3PDGNDVD/82uFpvctGGrE/DdqUPaZxiqRHB64gqBuGOGiOAEhgrpMc/32+/Y34MOPavDdtjqcNNCjtGju76v34fMvDig7n0MG52DenB9h7Pm59hW8PbND5zW0VnNcm/RDDuqb/xvCB82Fc3bUDxT3ywqv6NaucG6MgqK4KVcW4KG77Sx4q8W9j+7Evza0L3hzDtS3bj+Cv3xUi/qGJpQOsv42fHhFt67IzExD+Td1lkO993GZ0u+gB0ONePvPtfjNPH/rXOxih52gbigroqE5QjcQIqjLNOdvP25UHqZdp2bFsftnb8Wa9bUtJrS9cej0L8zGbdOPR+nJ9tx+rayqx/Mv/w9r/2nwzmpUxHekDgC+go7NhXP2zEjmr27Awrf8WPHxfjz3WKEwiFtG6GPO7YapV9pb8PbCwkqD9+6dA/WW8OVnYPKkPPsL51ZrzHQINVCXue0eDDVi2YpaLFtRi0BI4yavoAehIKiz2+sCXUeIoC7TXKy9CrBPnPwf7PFHLt8pdj593kxMu7anvQVvb1binQ+q2ryJfdm4NqnSYB3N0pM9mHqVF6Un2TPS3br9MHLc6cJA9lc3oLKq3raCN391A56ctxsbv+GbGc+JUAfCz9cnT8yzrXCufHMdFi/dqznjnFmoe7LT8cFrhVzN/TVHsWxFLVatPthuprdYYYI6V4f8shwaxkDXESKoyzQXbz9kcA4mXe4Tnm2usqoeE67fpGVC21vEf3vc6Zh0mdfmgrc9eOd97VvriQh1ABhxRmfcemNP2wrnnBrBUCPmvV7Zenvf9PnU2SyWaw4Cw0/Pwcwp9t3ZWLX6IBYvjZ2YxizUZ9/VE8NOY/+oK99Sh1WrD2HV6oNCx5KgztUhv6yBBh/QdYQI6jLN5dr38HbE2FF5GDcqj2vUvuKjvXjst99rf6hzPsdekIvbf97LNpCv/ecBPPfyroiCN4a3BIU6AEy9youJNq7o5pQIho7h3b/siyh4a4tkgTqQhskT8zDhwm72rui2InpFNzNQH312Z9w7PfptG3/NUaz7dwDLVhyIndmOoC6VajXD+IGuI0RQl2lurv2QwTkYNyofI4Z2ZRbRPf/7XXhnuV/PRIzmA3f1tW9J0/8E8Pqbe7DhP1qVsckHdY87HVOv9mLCT+2bVCiesfKTWiz6U1XExDAaF/skgrrH7cLkiTav6LY0ekU3Wah7sl344LUiBEONWPdFEGv/HWg3IYx+e6MPCOpcHfLLslgsBHQ9IQUaVrRPZqi3eOhflI1xF+RiyOCcqJXdps7cjO8qdFZ5amlfmI3bbS54e/3NPVjxf3sNMpMP6kB4xrlbb+qJ4T/pLGokIaL8myDmvc4qeEtuqAPhwrmZUwrsW9GtJnpFN1moF/fpiK07jkDoYBLUpVKtYpg40HXMENRlmqv14PGkY8jgHPQvzG6d7pUVPbwdwwVvF9hX8PbO+1V4/Y97BFolJ9QB2F44Z3X4qxvwxLwfOJaCTX6oA+HCuZlTCmxblrR8cx3mvxFe0S0e66nzfEBQ5+qQX7adhhzQdcwQ1GWa2+9h2rU9Mekyr20Lxbz7QRVe/0PEZCgKLuDJAHUAGHt+N0y90puwhXPB0DHMe60SKz/RWOSFGakBdSA8Mc3kibm2Fs7Nf6MKwaDApZ2gHs5McKjLA13HDEFdprk9HjyedLzw1AlRt+atjLX/PIDnfr9Le4Y3gnrU5qlXeTHx4sQpnGstePvLXmU/1JIV6h63C+PHdbetcK5ixxHcMXsXQV1CI5Ghbg7oOmYI6jLNrffwxEPFwq+/yURrwdsmxlSQLUFQj9rscafj1ht72jYxjWys/KQWi96u0l4JjaDObO9xuzBzij0rulXmewZIAAAgAElEQVTsOIKbZu2g2+8SGokKdfNA1zFDUJdpbp2HIYNzMO+pE8zr60RlVT1e/8NurPi/ffyNCOoxm30Fmbj/9l6Oe75e/k0Q817bE1HwpgCoKQZ1ILwuuh0ruj21oBIrVx8kqEtoJCLU0844e22T+MWM3wxBXaa5NR5un94LEy+1ZmW31oK3yEI8kf0gqGtuLj3Jg1tv7Inifp0EvakNf3UDnnj+f4yCN4J6a6YgRMIruvkse76+7osAfv307mYXBHVRjUSDehjoop0KmiGoyzRX7+GFuSdY8mrau80g11w8haBusJkveex58Smcay14+3i/QSZBvTVTAiLhFd0KlD9fD4Ya8dNpWyNcENRFNRIJ6m3fHvM33oEmbREhaYaGFe2ZmWY9KNBocoAHnlj45h48//td7JXQRDyIfVFMd6epIXzI+DWE/jrabV7x9/1Y87n2Ah1WxoqPazlgDgjuNLeG6fMp6oF9UeCX0EzVb7/y0wOYM38PglHzo5uP9j8QmkQOhsR+8KVqnGerPCjQYH8HLbq2mWBYh5hPzQ4Mm5o0f2EISTM0zHrQTAXDl1kPCjSamprMj9RV7IdOTL2mB4YM9uD1P+gUwIl4EPuiaCaL7bKGhvDfAb8Gw7FucrxG5wAw4aJcjPhJZyx8u4oD7EI7za1h+nyKemBfFLhFtD1rtw+v4JZr2wpuTWjiH6lrWhY4mALHUuywC/6RmtRgfwdVHAuhDnVl2265RwbdflfnQYGGqtvvVt1yb4m1/6hlv6LW7IE76Pa74yaeKf8miIVvV0lNHKO3mTc52W6/t7zKNnmitRM7nXvl/9PcTrffxTWcfvu9g5oRikbQSF2ZhrKRusUx/MyuGH5mV/YzdRqpG2wOb/UVZNq6pjpvlAxy49lH+0W8ssb44UYj9bZMxkh9zMiuljwz1zYBxqGgkbqohtNH6h2YPRDU1XlQoKEG6uaa88bESwsw7oLc2Kp3gKCus9njTsfEi/MdvyrbmHO6Ysw5XbHoT1XRk8pEBUG9NTPCc7iqvYdts8a1mQBBXZGGk6GedsbZayIu8ypuO2r1wnODUU7DivbsuyoKDkYcb7+/MHcASgfbswBLS1RW1eP5l3ZhzT/aTQtKt9+jNo89rztuvamno0GuFcZV8ApufSfB7Xdffgbuu6WH5e+da8W5V0TccmceCrN/jyr+njXOs1UeFGg48fZ7O6AzeiCoq/OgQEMW6vEAekts/M+h2MI5gjqGnNzynnmWqLijgt5T1w6POx1TJtm3pKpWRAEdIKgr1HAa1DvEbqLb70AK3H63OUpPzsHz/7+9c4+OokzX/ZMEQe0GgZCkA2GAAT3LASTMWo43mLMFVMLIRSVBQJEkqHMcAuo6M0tlr7PO2qPizHbmQGDGQYaADqhJ8AYjwQvM3gPeZq+1uc85e3NTueRGuKZRweycPypJd9JV9dX31VfV1fC8/7BW1fM+9XZXun9UvW9/9aueqPmoCRVrjxuDc5fx7fdIdnc88/hA5I/w5xGbXkdO1hVY8ssh2LUvisXlx7r01y/P2+9zi/ph+k/6+tMnlwneftfmEbTb7yZAtzgCoa6vBg0eqQh1ACiYkImCCZlYva4WVW/XG/3Xywjq4VAGSmZFMH1KPxmTlIlRw0N4Y8V1WP/nJqx5oyGuv375QH3Mj3pi/txs//vkMkGoa/MIEtS7Sb1ThLq+GjR4pCrUAeP360XTslGx9jiq3mm4LKBeODULJTNzEPLpkbXJjOl3Z6JgXG9UbzTAbsSlDfX84VdhblFWUvrkSkGoa/MICtTTbv5xWw9dpheggyHsqWvzcAr1ZPbQ7aJjcO6zM86T5P5QzLe69XCYP/bma1D28ABEUvR5526jvvEilq2qxfaOle4s3jiX5yNZPfVI1hWYW5SFu/7Bn4VhZCOhh941LN8KiTfDVOo233yHDKqkYeXSI9k99dgtd16p20vBK3WvIpLdHc//r6HG4Ny6OvEjV4GUuFK/9vtXoezhAZdMn1w1crKuwLNPfa/LwjSpf6UevjoD0+/uG8w+uUzwSl2bR7Kv1Lsu9GtzBPEm6eDa79o8tKz9bhI795zD87/5wnqtdo2RP7Inyl+4Fs88OQiRHAdXs3J/KOZb3XqYbDIG3r6HVUv/my8wr2+4gIWLDjlYwS0xdu6NYuGiQ6g3e6655mhfmOapBXmIZFv0l12eD7/Wfp94+zX444tD8FBhP19g/kp1E97c5GRNfcWwfCsk3lBTqdt88x0yqJKGlUuPZK79njgUxyt1eykuvyv1TR+ewF8/PYWiaTkouicHYY97wJ0G595psP/PRICu1MOhDBROzULRlCxf+uTR8y1YtvI4ara0fdHPVHs07s69URQ9/P9QML4Pyublev5b+Im398bYm3qiemMT1m88abKiIAJ7pZ4//GrML87B0MH+PM72/X89g1eqmlDXeBEPFXo8SMkrdW0eybpS7yZXN6EOXJ5Qb25uQcXa46j5sAklD/RHwR3erj8NxA3OtYHdMgIA9YLxfVE8K+Jbn3zN6/Wo3nBC652Tmi2nsO2zsyic0g9z78/W5msWoaszMHdGNgonZ7YtTNNl4aGAQT2SfQXmF+fgthv9mUHZ9ffzeKX6BHbuO29em1S4hwihLu+RDKh3s8wh1O2luPygDgC19d/iud8cRtU79Vj404GePuwFAEKhDJQ9kofCadl4/rdf2jzRDUmB+uiRYRTPjvjWJ9/++RksW3k87nfees9zc7QFq1+vR83WUyi+P9vz9eRDV2fgqbIBHWDv1DYIANTb++QPFfnzM8P6xot4pfoENv9L/IColi9Y5x6EujYPv6HeccudUJfPv1yhDgD7D57H/J//B0bf0BOL/ucQz69MI9ndUf7Ctdi5pxnlK45g/6GvE0U+Qj2S0x0LHs7DmJv9mWzeubcZq1+vx849zV32ePNlX1d/AYvLjxpgn5mD/OHePvFt6OArseSXg/Hx385h2apa1LX39JMI9el398XcGVm+9Mij5/8L6987ifXvnUJztMX0gS7ug1CXrkGDh59Q79RDJ9Tl8y95qAu+R3bsPofpc3aj6J4clDzQ3/P+ev7IMCqWX2+sOLeuNvFRrR5D3eiTZ6N4VkSiavWoa7hgXDFvOdmxzeWnwyLMP8/tQ3MF4/qgeGaO54ul3PajnrjtRz3bFqZpNFoKPkM9f3gIT5X1921hmPf/5QyWr+k8K2L9PHW3QahL16DBwy+oJwzFEery+Zc+1MU1VL1dj00fnkDRNAPsXkfBhEz8+JbeqHqnIXFwziOoF07NRsmsiD8Db9EWVG04geoNjQl9couKNRzV+vNcs/UUtn1+FoWT+6FwSqbng3PtC9OsfqMR6zc2+QL1YUOuxPziCEYN92dhmF1/P4/lqxtw4ItvTPfr+PowD0JdugYNHn5A3XTpV0JdPp9Q939wLhTK6BicW/ryUdR82BRXL7RBffTIMJ5+YpBvA2+bt5xE+cq458mbfqH6D/XmaAtWv1GP6o0nUFaa60t/fX5JpK2/Xovtn5/zBOrhUAbml+Tgrn/o7bZkR1HfeBEv/K62beDNPgh1kZRQj49udl8NhLpcftCh7joc1tA+OLfpwxMofbC/L4NzzzwxCCWzczsPzrmEeiSnOxY9MQj5I/0ZeNu5txnLVh7D/kNdrtgsv1Ddf8TMw/7z3BxtweLyowbY5/X3vL8evzDNslV1lle0iSGG+twZWZh+d6ZvffI1VY1Y/157+8QtBByGHOGkPAh1eQ8vod7Nbi+hLp8faKi7O7p0DTt2n8P8n/8Hxt7aGwt/+r3kDM4pQD0cysCCR/NQML6vd8XGRV3DBSxbeazL0rfOPkvJgjoAHDj8DRYuOoT8ESE8s3Cg5z3nUcND+ONvh2LzX05jTWVDbHDONsyhXjCuN+bOyPKtT/7mppNYU9X1Z4ZyEHAVhLq+GjR4eAX1brZ7rbYS6vZSBBfqWkKyhm2fnMa2T04nd3DOYbklsyMomprtW5+84vU6VL/baLLX+WcpmVAHYgvTFE7uh+KZ2T4uTHMS6//c5OC3+LGi80eEUDwjy7c++cf/dg7LV9cb//lw+wXuNgh1fTVo8PAC6t1s99ptJdTtpSDUu0bSB+fOW3/xF0zIRMnsXN/65Os3NKLitToBjOSg7k04r6F64wnUbD2Fwsl+LUyTZQzOVTYkLkzTJSLZ3TB3RjYm3u5Pn/zgF99g+er6zn1yHUB1G4S6vho0eOiGuslQHKGuK59QT4ykD8591NRp/+iRPVEyO9e3Pvn2z86gfOWxuIVhROHRZ0kqnNfQPjhXs/UUykpzMeamXp5WlpN1BZ6aPwAFt/fG6srGhPXsw6EMTL87E3NnZHlaR3vUN17EmqpGbP6LxZMDCXWBB6GuVEeb1OJ56IS6rnxC3TySNThXNDUb5S8fRW3DtyiZnYuC8d4vYQsABw5/jWUvH8OO9oVhpN6y1II6YMwFLFr8JfJHhFA2rz+Gebz2+ajhISz5p5CxME2FsTDNxHG9UVYS8bwFALQtDPPnk1j/nsna9F2DUBd4EOpKdbS2X6ET6tpqMJWCULeK2OBcHyz86UDPb3kP+/5VKH/hWk+PER/RaAvKVx5FzUddnpQl/TlIPagDRn+99PH9vi9MU9940deFYdZUNtr0yU2CUBd4EOoqHoLnoRPquvIJdfvY9skpbPv0NEoe6I+iadmeD855HdFoC6rebUT1u/GL3rj9HHj1WZLxUKvB74Vp/ID5rn3nsaay0WGf3CQIdYEHoS7r0bmHTqhrq8FUCkJdlF+x9jiq3q5H6QP9UTjN28Eqr2LzlpOoeM1kWVotn4PUhXp8f734/hxMHOfPgJruqG+8iOUVddj+t3OwIBmh3rGZUJf1cAN1h89DJ9R15RPq4vzmaAuWrjiCqnfqseDRgRh7S2p88e/c24zV62pjfXLT8BDqbsMHqANGf31x+RGs33gCZfNyMcrjhWl0hdEnb8KayvifGVqSjFDv2Eyoy3qoQt106VdCXV8NplIQ6k7ya+sv4Ol/OojRN/RE6QO5ng/OqUZdwwWUv3wU2z+zmGxOCI+griN8gjoA7D/8NRYuOowxN/VC2bxc33reKvHmeyexpjJxXX0jCHWRlFCX91CBujnQJYsh1OXzCXXn+Tt2n8P8X5zDpDsyUfJAf99+Ky6K9j55xbrajm2qj+q02iTtoSN8hHorWrH987PY/vlZTJ+c6cvCNDKxa995vLD8mINV6YIMdW9gKOtBqMt7yELdGuiSxRDq8vmEulz+pg+bsKnt9+szpvmzmptV1GxpQvmKY4lPQpN6yUGAusW9ep+hnoY0rN/YhM1bT2Pu/dmYPtmfnxNaRX3jRSxedhw790bdnU+bzTIWlufJcRDqdjsuFaiLn0hg+ndk/sclITXf4fZvFoDVosdS1m4XTpbIt357NLwZOjySXYNJfsXa47jvoT2ofqfBnbdC7NzTjMKSvXj+t1+iOfqdqUbuJev4HOj4sndr6+51tLaJm6MtWL6qFvc/8p/YtS8qyNIf0fMteGH5ccx4dH/HIjWuz6fNZtdaqZA6IZ55tLr28OZ1yL1kyZPk0sP6b7DzDvsr9PgcXqlrqcFUiuBeqWv5bvHgvYwfnFv46ECM8Xhwrq7hgvEktz3nuhYH089BUq7U3YSGq0tNV+qA8X4vXHS4bWGaXAz1eGEaAFhT2Ri3NnyXKzi359Nms4yF++CVut2OVL9SdwZ0yWIIdfn8QEO91Z/nqavkxw/OlXgwOBeNtpguGdulOAQD6m4jWFAH2hemOYCJ4/qgbJ43q76ZP73N5MueUNfqQajLe4igbvk8dLfFEOry+Z5D3VV6cKHeCmNwruwX51CgcXBu9bpaVHVaGMa2OBDqNmIXUAeAzVtPGYNzUzJROFnPwjS79kVN13+Pr+RSgLp5zYS63Y5Uhbrt89DdFkOoy+d7CnWXt2WDDvU0ADUfNnU8qrVIcXCu02NXAXcgsy7ZuQehDsBos6x5vaFjcE71yWn1jRcdPaGtvRJC3U5KqEvXoMHD6m9Q+Dx0t8UQ6vL53kLdXaQC1JujxhPdAKB4dq60/fO//dLc2FlxpuIgQ13ik5t0qANAXf0FvFB+FM3RFky/W34avvSJg8ZdFxevIylQdxmEukia+lDvMuUu8VdjKjXPl5Ca79Dwx8zpd33RGoQJfB3nU+p47sX+T7+7Opr1AX18HZYT0a1w2ApJjI48l68jFaffzWt2+72vx4PT7/IeXc+nyc/WCHUVDy/yCXW1fEJdLVIR6q4j1aCuIQh1kTR1oW7xO3RCXcXDi3xCXS2fUFeLlIO6jiDU5Ysg1PXVoMGj/Xyme3diCHVd+YS6Wj6hrhaEuryYUNfrQajLe7S2tl+hE+pq1oR6WwnBhbpnQagr1hEEqHvzOgh1vR6EurxH7JY7oa5mTai3lUCoq4gDAXUpthDqdmJCXa8HoS7n0bmHTqirWRPqbSVcIlCX8SDUFesg1PXV4D4IdZE0NaCeOBRHqKtZE+ptJRDqKmJCXSVfRxDqHYcj1AXS4EPdfMqdUFezJtTbSiDUVcRaIOA2CHXhZqfi4EBd4nuFUBdIgw1168enEupq1oR6WwmEuoqYUFfJ1xGEeoeSUBdIgwt1++ehE+pq1oR6WwkBgLqOuOSh7vyzRKjLexDqej0IdeuN9kC3PS6hruLhRb63UHfnQairiQl1lXwdEWCoawlCXVcNQYS6GOi2xyXUVTy8yPcU6i49CHU1MaGukq8jCPUOJaEukAYL6s6AbntcQl3Fw4t8Qt2HCDTUdQShbntAQl06n1DXWIPAI939GyJZEKGurQZTqVc1aPAg1NXEhLpKvo64RKCu4XubUBdJgwH1dOOfIJwYQl1Xvqffe4S6fA2EunCz2xqkQgdQCXXpfEJdYw0W8vTYviCcGEJdVz6h7kMQ6oLNhLqdmFDX60God+mhE+qCINTjzC9dqHt2Pgl14Wa3NUgFoa7kTaiLpMmDesJQHKEuCEI9zpxQl66BUBdu1iD2yDYIUNcQhLrAI3WhbjrlTqgLglCPMyfUpWsg1IWbNYg9siXUO5SEukDqP9TTvXtDJAsi1LXVYCp1dySBOaEuXQOhLtysQeyRLaHeoSTUBVJ/oZ5ul0OoCyLFoO5pEOryNRDqws0axCbZHtZAqEvnE+r6aojdcifU1YJQjwWhLl9DEKAunU+o24oJdel8Ql1PDZ176IS6WhDqsbgUoO73+STUFesg1LUFoS7wSA2oJw7FEepqQajHglCXr8F3iOjIDwLU3QWhbluCaEeiklAXSL2Fuvla7oS6WhDqsQgC1N1GKkLdbRDqijUEGOoyHoS6wCPYULd+OAuhrhaEeiwIdVsPDcYyYg9tCXVbMaEuXwShrlSD/dPWCHW1INRjQajbemgwlhE79yDUFWsg1DuUhLpAqh/q4senEupqQajHglC39dBgLCN27kGoK9ZAqHcoCXWBVC/UnT0PnVBXi0sF6gHwINS1ip17EOqKNXjo4TYI9bjNlxbUnQHd5giEuiBSHOq5OT2QG+lBqMeKMN+swcONcSSnOyI53WWqMPKyu+YR6sahggf1SPYVMolObV1oCXVdNeiCenow3hDbHQ6lhLoX+ZGcHli/djRK5+QhHMpwV4OLOmLphHp8hEMZKJmdi+qKEYhkqwG9atVwPPPEoLjzS6gbhwoG1PNHXI3KFddi4u29ZQ6stQZCXeQRDKh3i+1Nc16MibQVrUhz6eG+DvN8Can5DomyLKO1FUhzWJukh/Ma1FNL5uSh6L5cLP39F9j0wQl1I8D162htbUWam/dBR/h9Pk2MCyZkYuEjeQhp+I/WxPF9Mfbma1D1biOq321Ac7Ql8YDSnwPnnyWJT677z6PU14zF95rciTYXCzyGDbkSZSURjBoecnog7TU40zo3Mf+Td8+fYDDMm9ch85K76SyGUBdEEKDuIsKhDCz6+VDMuDcXS176Ejt2nVU3I9RtPcy1hvHokT2x4NE8DBtyldOjOIpQKAPFsyIomNAXq1+rRc1HJxFoqLuJAEM9kn0F5s7IdnFF7r4GWQtCXV8NbqDezXavQjGEuiBSHOoAMGzo1Vj+4vXY9skpLP39l6it/1bNiFC39egakZzuKJmdi4IJmVIlykYkuzuefnwQCqdmY9nLR7FjT7SzgFBX8hC96HAoA9PvzkTh5L4IXa2hvaVQgxsLQl1fDapQ72a7V7EYQl0QlwDUAWDsrX0w9tY+qPjTMVS+VYvm5hZ5E0Ld1gMwvuiLpmWjaFq2ltvrTmPYkKuwdPG12Lm3Gc//n69QV38htjMoUHcbAYH6xNt7o6w04iHIxTUQ6vGbUxPqFs9Dl/ivr4WUg3KCSMKg3P6DUbFIIUoeHIA3147GpDuz1Aw4KGfpUXBHJlb/7noUz871FebxkT8ijKpVP8AzT3yv82Ck9Nvu/LOk4d10HlJfM1IFCw+YPyKEypevw1NlAzyB+a5954U1ONksp3VuwkE5kTRxh53U5nnoQXhDdNRBqLdH5Zu1Ms5SYfTXv4831+Zj9Khe8gaEeieP0Tf0xLJfXYdnnhikNL3uRUwc3xfVFT9A8axIbGNKQt3d51kH1CPZV2Dps4Ox5JeDkZOl8edoXWLzX07b7CXURdJUg7rgeehBeEN01EGoA0Bt3beoess7qAPGz9yWv3g9lv/meuTm9JBLJtQRyemOZ54chPIXrkX+yLC+ujRF++BcVcUPUDChr7GRUHfsEQ5l4KkFeXhjxXWaptet4+AX3wiADhDqYmkqQb1bgsKDXgB76oLwsae+5HdfIBzupn573GGMvqEX1q/NR9XbdVj16lHn/fUg9NRd/zxQ/nyGQxkouifH9z65ahiDc98zJuLX1WHHnuYk9NTdhrvPs0xPPRzKwPTJmSicnOlLnzx6/r/wwvLjDtVSb7yUhYwJe+oiaeKOrlsSh+IIdfkaUgzqz/7qAHbsPIOFPxuiZ7EYmyi6J4JJd2ah4tWjqHyrzlnSZQb1gjsyUfJA/8DcWpeJ/BFhLF08DNs/O4PylcdQ13BBnNQRbqGuI7yH+sRxfVB8f7ant9bj4+O/ncPiZcfRHG2R+BMm1EXSVIC6yZS7d8UQ6oLwEervvd+If/34FGbcl4vSOXlSZcpGOJSBBf9jEIrujeDZfz7k7PfrGqDuOjyG+ugbeqLkgVzkj+ypfoyAxJibr8GYm6/B+g2NqHitrm1hGidx6UI9f3gIZfNyMXTwla4rdBK79kWxuvIEdu6NDb/K/QkT6iJp0KFuDnQPiyHUBeEj1Jubv8OqV45g0/sNKH1ooOe34dv76zt2n8Vzvz4k/v26DqC6DQ+gnpvTHSUP9Pf89+Ttsf2zMzgX/Q4F470/3vQpWSgY3xdVGxqx+jWHd2QuMahHsrvj6YUDPO+Rt0d940WsrmzA5q3t/fIuX/aEulaPIEPdGugeFkOoC8Ln36nX1n2LZ391AJs2G2BXmlKXiPb+es0HJ7DkpS/s++sB+L29LqjH98m9bnUAwIHDX6N8xVHs2HMOAFCxrhaLnhjs+bBdKJSB4pkRFIzvi9Wv1aFmy0kHWakP9VAoHWWl/TFxnO4V3swjer4F1RtPYk1lQ5c9Jl/2hLpWj6BC3R7oHhZDqAsiCYvP/Puus/j3J/fhJ3dlofShgYjITqlLRsGd/TD2tj6oessYnLOMSwDqkyZkouRBf/rk0WgLlr58FDUfNXXaXld/AWVP/adnS8d2jU6Dc6+1Dc7ZhhzUvQn5z3M4lIHCyf1QOMWfgTcAWP/nJqypbLRpbRDqumpIJaiLge5hMYS6IJK0olx8f33GfbmeXk2GQxkoeXAAJt3ZD0tf+hJ//fiUuTBFoT76hp4ofbC/b33y1etqUfVOQ+yL3qTcHXvOoXj+/0XBhEyUzM71/D8Z+SPCWPr8MGz//AzKXxYNzqUW1AvG9UHxzBxfB96WVdSiruGiAzWhrquGVIG6M6B7WAyhLogkQT0Z/fXF//s67Nh9Fkt//yX2HzRZ4SqFoJ6b08Pok9/hX5986YojnZdnBWz/UGo+asK2T08by8pO9f7ncmNuugZjbnIyOOfRZ0kq7GvIHxFC2bz+GObTwNvBL77BslV1sYE3F1Am1PV6BAnqaT+6dWur1CfFVOo2H87fENvDefM65F6yyQ4dX0QWn0Apaxcw/OGoXiidOxCjb/C2v94etv11h6+j9MEBKHlwgPSxx9z1b2KR1brr4QwUTctB0T05/vTJD32N8pePYsfuc/ZCwVsWDmVgwaN5vgzOAUZbQDw4Z/9ZKp4ZQfHMHOlj//epuyXUnWsw2gh5yPdz4O2N+IE3y9IEkSiW+zqw/OJ2bSFjYl5zENihg2EaajCArsMsCG+IjjoIdbv4ycRslM7J87y/DgDN0Rbr/rqD1+Ep0E1qmHRHP3/75CuOtD3i1GE4OPWRnO6+DM61R13DBSxbeQzbPjtjobD+LCkDfcpuaRiGQxkom5eLieP6SB9PJYyBtyas39hk/mz6WGkSQajrqiGoUNf4PPQg3LrQUQdvv9vFe5sb8N77jSidk+drf33Vq8ew6YPG2M4A3X5PSp/87fq4Prnbz0ws4gfnnnnS+3XkI9nd8dyiIdi5t9licM6rz5Izj3AoA4VT+qFwSj/fBt42/+U0lq+q7dKS0HDrm7fftdUQ1NvvcVfoHZucmVlKg/C/HB118EpdlB8Od8Pjjw3yvL/eHjt2n8WqV491XpjG5nV4fYWem9MDJQ/2R8Ed/aSPoRLbPz1t3icH5M6nhLRgQiYWPpLn23K0m7ecRMVrdSaDc4lFF89ycYVubdsRBeP7oPj+HOT4tILfrn1RLC4XDQ3ySr1DySv1BKkHz0MPwv9ydNTBK3VRfnPzd3j21wdR+WYdHv/ZIM/766Nv6IXlL/ZCzQcnsOrVo8bCNEm4Ug+HM1B0T61NUZ8AAA73SURBVMTfPvmKI/Z9cpn3QeIPxRicO9M2OJflOdgnju+LieP7YvXrdah+N/5nWR5NxZnY5o8IGwNvQ/wceKvttMKbdfBKvUPJK/UEqcWUO6Ful0+od87ffzCKnz35d/z4tr54/LFBvv5+vfKtWmNwzieoT7qzH0oeHOBLn7w52oLyFUdQ82GTWAx4BvXm6HeoWFeLTR81oWR2LgrG93WW6CKKZ0ZQNCULFW1gN8JbqBsrvA1E/ggfB95eb8DmrW0/1fQTqIS6thqCBPW0G2/Z2mp9Enn73S6ft9/N8/3or7dHXf23sf561zo03nI3+uQDkH+DP33yii59cs/Op8Kt1mu/fxUWPJKXxME5ow4tt9xh9MnLHu7v78DbhviBt7jw+9Y3b79rqyEIt9/TbrzF6KET6iIpoS6Tn7T+etxtaR1A97tPvu3T0yhfcQS1Jn3yIEEdAEaPDPsyONcenQfn0lwAfReAtNjA21QfB962nsKytoE3y+81Ql3JhFCPAzpAqIulhLpsfm6kB/7xF0N9/f36qj8dQ239t66A7n+f/DyW/iGuT+73+XTxBV4woW9SBucKJmQqA71gfF9jhTe//jOyL4rFS48mDLwR6k60hLrTGjoBHSDUxVJCXSX/h6N64R9/MdSX368DQMWfjnVAWTaee/GQ8Vt7v/rkfziCTR+eSNyZQlAPhzJ8G5xrjwOHv1Zaj141TyUOfPENlv3xuO3AG6HuREuoO6khAegAoS6WEuqq+e3PX/fjqjfoUbH2OKreqbd/2lwKQR0wFqYpnZ2LiT4MzgU56hsuYvUb9ajZavFsgi5BqDvREuqiGkyBDhDqYimhrpofDnfDvDl5KLpX/ur5Uohtn55G+R+OiJ8H3x4pBnUAuG7oVSh7JA/5I/wZnAtKtA+8VW84YQy8Sb3thLpYS6jbGVsCHSDUxVJC3U2+3/31ZEdCn1wmUhDqaWnG4NzTT/g3OJfM2Lz1FJb9sesKbyDUVWsg1AUeJufIDugAoS6WEupu8/3ur/sdRp/8K2xy+ntyq0hRqANA4dRslMyK+NZf9zN27o1i8dIjcQNv7j7PhLoTLaFutlEIdIBQF0sJdR35P7krCwsfG3xJ9dcr1h5H1dt1sT65R+9lKkA9HMpA4dRsFM+6NFotBw63D7x1XX8eINQ11kCoCzxiGx0BHSDUxVJCXUd+ONwN998bQcmcPHfHS3Js+/Q0yl/6yrxPfhlDHTAG50pmpe7gXH3DBWPgbYto4I1Q11YDoS7wMDY6BjpAqIulhLqu/P6RHlj42GCMvdWf1bt0xYFD57H0pa8cPJ/88oY6YPTXi2fnpszgXPR8C6rfPYHqjScS++SWQahrq4FQF3ikIe3GW7a0un9DLI8gVYy7fEJdGCkG9TQAo0f1wuOPDcawoVe7O67H0dEn/8Dk9+RWQagDAMbefA3KHvHnd/+qsXnrKSxbeTzukbUy2YS6thoIdVuPNqDLFUOoi6SEuq78duWkAPfXE/rkMkGod0QQB+d27m3G4iWJK7wBINTbtxDqWj3cMCwO6HLFEOoiKaGuK79dGQ53w4wA9de3fXJK7vfkVkGod0RQBucOHP7aGHjb0z7w5hFQCXW1Ggh1U48uQJcrhlAXSQl1XfnxytxID5TOyUOBTw9+6RoHDp3Hkpe+wo5dZ43a3L4Phokn+akIdSB5g3PR8y0oX3kcm7ecNNlLqNuJCXW9HioMMwG6XDGEukhKqOvK76ocPaoXSh/K821hmuZoC5a+9KVpn5xQVxOLDufX4Fz0fAuq3j2B6g2NgkfWEup2YkJdr4cswyyALlcMoS6SEuq68s2Uk+7KMh6m4uHCNFVv12HVn47Z9skJdTWxk8N5OTi3ectJVLxeb9onJ9TlPQh1vR4yDEu78eYtrd69IXIehLpCDYQ6gLb++n25KLo3onVwbsfuc3junw857pMT6mpip4fTOTi3c28zlq08jv2HvrYrjVBX8CDU9Xo4ZZgBdE3FEOoiKaGuK99KmRu5sq2/3s9VKXX13+LZFw939MllglBXEzs9XDiUgZLZuZg+RW2Goq7hAhYv+Qo79pg80pRQ1+ZBqOv1cMKwGNA1FUOoi6SEuq5867cnzeivzxkg3V9vjrag4tWjqHy7XiovsQRCXUUsc7hITg8seHgAxtx8jSN9NNqC8pXHUNNp4M35Z4lQl/cg1PV6iBjWGeiaiiHURVJCXVe+HdQBYNKdWSidM8BRf73q7TqsevWotnXXCXU1sSwEjMG5iOXgXDTagqoNjah+t9FihTdC3VZMqMsXkSSoJwJdUzGEukhKqOvKF0E9HM7AjHut++s7dp/Fc7+26JMT6vI1JAHqgDERXzChLyI5scG5bZ+dwbZPz5gvDCOqg1DX5kGo6/WwOtfmQNdUDKEukhLquvJFUAcMsP9wVC9cOzQEAGhu/g5//fiUeOCNUJevIUlQV69BzoNQl/cg1PV6mJ1ra6BrKoZQF0kJdV35TqDuRx3m6cmvgVDX60Goy3sQ6no9up7rdFsTS9Q7fkAbWjV4mEvd5gOtGjy8eh1yL9lkh0RZlmFx8qSsrf8AtOdbvz0a3gyXHq0BqMH38yln7Ppwej4Hzj2k3k0fX4fl95qG8+HWw/X5lK3BM4YFgR2J59oe6JqKIdRFUkJdVz6hrpZPqKt5EOryHoS6Xo/4cy0GuqZiCHWRlFDXlU+oq+UT6moehLq8B6Gu16P9XDsDuqZiCHWRlFDXlU+oq+UT6moehLq8B6Gu16MVrUj3uxhCXSQl1HXlE+pq+YS6mgehLu9BqOv1SE9GMYS6SEqo68on1NXyCXU1D0Jd3oNQ1+eRbrvXw2IIdZGUUNeVT6ir5RPqah6EurwHoa7HI912r8fFEOoiKaGuK59QV8sn1NU8CHV5D0LdvYfJUByhHttMqNsGoa7Ng1BXExPq8vmEuhNtakI93SsYEuo66yDUdeUT6mr5hLqaB6Eu70Goq3ukW+cQ6rHNhLptEOraPAh1NTGhLp9PqDvRphbUY7fcA1AMoS6SEuq68gl1tXxCXc2DUJf3INTlPTr30Al1WymhLghCXZsHoa4mJtTl8wl1J9rUgHriUByhbisl1AVBqGvzINTVxIS6fD6h7kQbfKibL/1KqNtKCXVBEOraPAh1NTGhLp9PqDvRBhvq6XI5hHpsM6FuG4S6Ng9CXU1MqMvnE+pOtMGFerp8DqEe20yo2wahrs2DUFcTE+ry+YS6E20woZ5uvctuB6Ee20yo2wahrs2DUFcTE+ry+YS6E23woJ5uvUu0g1CPbSbUbYNQ1+ZBqKuJCXX5fELdiTZYUE8YiiPUVfIJdWEQ6to8CHU1MaEun0+oO9EGB+qmz0Mn1FXyCXVhEOraPAh1NTGhLp9PqDvRBgPqls9DJ9RV8gl1YRDq2jwIdTUxoS6fT6g70SYf6rbPQyfUVfIJdWEQ6to8CHU1MaEun0+oO9EmF+rC56ET6ir5hLowCHVtHoS6mphQl88n1J1okwd1R89DJ9RV8gl1YRDq2jwIdTUxoS6fT6g70SYH6uZLvxLqmvIJdWEQ6to8CHU1MaEun0+oO9H6D/V0mWIIdZV8Ql0YhLo2D0JdTUyoy+cT6k60/kI9XbYYQl0ln1AXBqGuzYNQVxMT6vL5hLoTrX9Qj91yJ9QFUkLddgehrq8GDR6EupqYUJfPJ9SdaP2BeuceOqEukBLqtjsIdX01aPAg1NXEhLp8PqHuROs91BOH4gh1gZRQt91BqOurQYMHoa4mJtTl8wl1J1pvoW4+5U6oC6SEuu0OQl1fDRo8CHU1MaEun0+oO9F6B3WLn63JFUOoq+QT6sIg1LV5EOpqYkJdPp9Qd6L1BurWQJcshlBXySfUhUGoa/Mg1NXEhLp8PqHuRKsf6vZAlyyGUFfJJ9SFQahr8yDU1cSEunw+oe5EqxfqYqBLFkOoq+QT6sIg1LV5EOpqYkJdPp9Qd6LVB3VnQJcshlBXySfUhUGoa/Mg1NXEhLp8PqHuRKsH6jZLv7orhlBXySfUhUGoa/Mg1NXEhLp8PqHuROse6oKlX90VQ6ir5BPqwiDUtXkQ6mpiQl0+n1B3onXHMAdLv7orhlBXySfUhUGoa/Mg1NXEhLp8PqHuRKvOMIdLv7orhlBXySfUhUGoa/Mg1NXEhLp8PqHuRKvGMImlX90VQ6ir5BPqwiDUtXkQ6mpiQl0+n1B3opVnWLrrPzBCXSAl1G13EOr6atDgQairiQl1+XxC3YlWjmHplkmEusY6CHXbHYS6vho0eBDqamJCXT6fUHeidW4Sd8udUAcIdbGUUNeVT6ir5RPqah6EurxHqkG9Sw+dUAcIdbGUUNeVT6ir5RPqah6EurxHKkHdZKU4Qh0g1MVSQl1XPqGulk+oq3kQ6vIeqQJ1i6VfCXWAUBdLCXVd+YS6Wj6hruZBqMt7pALUbdZyJ9QBQl0sJdR15RPqavmEupoHoS7vEXSoCx7OQqgDhLpYSqjryifU1fIJdTUPQl3eI8hQd/C0NUIdINTFUkJdVz6hrpZPqKt5EOryHkGFusPHpxLqAKEulhLquvIJdbV8Ql3Ng1CX9wgi1J0/D51QN5SEukBKqOvKJ9TV8gl1NQ9CXd4jaFCXALqFG6GusQ5C3XYHoa6vBg0ehLqamFCXzyfUnWhbke7lH4dsMS6kckUQ6g4OR6ireHiRT6ir5RPqah6EurxHUKCeLm1klUCoa6yDULfdQajrq0GDB6GuJibU5fMJdXttut1OaTdCXWMdhLrtDkJdXw0aPAh1NTGhLp9PqFtr0+12Sru5LMZuB6Gukk+oC4NQ1+ZBqKuJCXX5fELdXJs4FEeoK3kQ6iIpoa4rn1BXyyfU1TwIdXmPZEE93fRNIdSVPAh1kZRQ15VPqKvlE+pqHoS6vEcyoJ5u/EuoKxibKwl1gZRQ15VPqKvlE+pqHoS6vIffUO+45U6oKxmbKwl1gZRQ15VPqKvlE+pqHoS6vIefUO/UQyfUlYzNlYS6QEqo68on1NXyCXU1D0Jd3sMvqCcMxRHqSsbmSkJdICXUdeUT6mr5hLqaB6Eu7+EH1E2XfiXUlYzNlYS6QEqo68on1NXyCXU1D0Jd3sNrqP9/lgPb1mTf4xsAAAAASUVORK5CYII=;" parent="1" vertex="1">
          <mxGeometry x="180" y="300" width="120" height="120" as="geometry" />
        </mxCell>
        <mxCell id="59yADgTFWXwvZRfuQB0F-17" value="" style="sketch=0;points=[[0,0,0],[0.25,0,0],[0.5,0,0],[0.75,0,0],[1,0,0],[0,1,0],[0.25,1,0],[0.5,1,0],[0.75,1,0],[1,1,0],[0,0.25,0],[0,0.5,0],[0,0.75,0],[1,0.25,0],[1,0.5,0],[1,0.75,0]];outlineConnect=0;fontColor=#232F3E;gradientColor=#F54749;gradientDirection=north;fillColor=#C7131F;strokeColor=#ffffff;dashed=0;verticalLabelPosition=bottom;verticalAlign=top;align=center;html=1;fontSize=12;fontStyle=0;aspect=fixed;shape=mxgraph.aws4.resourceIcon;resIcon=mxgraph.aws4.certificate_manager_3;" parent="1" vertex="1">
          <mxGeometry x="484" y="370" width="78" height="78" as="geometry" />
        </mxCell>
        <mxCell id="59yADgTFWXwvZRfuQB0F-41" value="" style="shape=image;verticalLabelPosition=bottom;labelBackgroundColor=default;verticalAlign=top;aspect=fixed;imageAspect=0;image=data:image/png,iVBORw0KGgoAAAANSUhEUgAAAgAAAAIACAYAAAD0eNT6AAAACXBIWXMAAA7DAAAOwwHHb6hkAAAAGXRFWHRTb2Z0d2FyZQB3d3cuaW5rc2NhcGUub3Jnm+48GgAAIABJREFUeJzs3Xd8FVX6P/Bn5pbkpvfeAwkpJJSQhFBCL4Ksui5iF8uqsKuia2PVta26dteu64oiCCorxUJvIZRA6AkEUknv5abcOvP7A9mfyxckmTM3c5P7eb9e/qOZ5zxI7p1nzpzzHCIAAAAAAAAAAAAAAAAAAAAAAAAAAAAAAAAAAAAAAAAAAAAAAAAAAAAAAAAAAAAAAAAAAAAAAAAAAAAAAAAAAAAAAAAAAAAAAAAAAAAAAAAAAAAAAAAAAAAAAAAAAAAAAAAAAAAAAAAAAAAAAAAAAAAAAAAAAAAAAAAAAAAAAAAAAAAAAAAAAAAAAAAAAAAAAAAAAAAAAAAAAAAAAAAAAAAAAAAAAAAAAAAAAAAAAAAAAAAAAAAAAAAAAAAAAAAAAAAAAAAAAAAAAAAAAAAAAAAAAAAAAAAAAAAAAAAAAAAAAAAAAAAAAAAAAAAAAAAAAAAAAAAAAAAAAAAAAAAAAAAAAAAAAAAAAAAAAAAAAAAAAAAAAAAAAAAAAAAAAAAYbDilE7AxNRH5E5ErEXkqnAsAAAwMJiLqIqJGItIrnIvNDKYCgCeiEUQ0mYiyiCiRiGKJSKNkUgAAMKA1EVERER0loh1EtJOImpVMSC6DoQBIIaLbiehGIgpWOBcAABjcBDpfBHxJRGuIqFPRbBgM5AJgPBE9TkRzlU4EAAAckp6IPieil4moTuFc+mwgFgDDiOh9IpqidCIAAAB0vhB4loj+SUQWZVPpvYFUAKiJ6GkieoKItArnAgAAcLETRHQbnV8vYPdUSifQS4FE9B8iWkgDJ2cAAHAsgXT+PqUnogMK53JFA+FmmkREOXR+hT8AAIA9UxPRLCKKJKIf6fyiQbtk7wXABCLaQkQBSicCAADQByPp/APsWiKyKpzLJdnzGoBUOr/VwkvhPAAAAKRaS0TXkx0WAfY6AzCEzt/8fRXOAwAAgMUwOv8gu1HpRC5mjwWAM53/HzVE6UQAAABkkEFEpUR0XOlEfo1XOoFLeJvOvzsBAAAYLD4gonilk/g1e1sDMJHOT/3bW14AAACs9tD5+5yodCJE9vUKQEtEP9D50/sAAAAGmwg6/yrgmNKJENnXK4C7iShB6SQAAABs6GU6v9ZNcfYy1a4horN0vnGCPAFVvHlefMzJu0cnd0R5u2sCXHVuWpUKRwMDAMBliaIothtNXQ1d3Ybd5TXiP/cfHVLW2hEi8zCLiOhDmWP2mb0UALcQ0XI5ArlqNV2fzptycEFKXCpHnLccMQEAwHG1dBuO3fjdRn5z8bnhMoUso/M73RTtEmgvBcA2kuF0v6vioo6vv/nqQBXHBcqQEwAAwH8dr2/Kzfh49WiDxSrHFP5UItouQxzJ7KEAiKDz1RDTeoSnstP3vDA1M51wUiAAANiI3mguiHvni8C6zm4/xlDL6PzBQYqxh0WAVxNjHguGx+W/MDUzk3DzBwAAG3J30iSd+vOttU5qlZEx1DxS+B5sDwXAZJaLo7w9alb+YeYQOn8CEwAAgE156ZyGb77tGtbjfn3o/Jk3irGHAiCb5eK1N84t5YjzlCsZAACAK5kYFTpuVHBAKWOYSXLkIpXSBUAQEUl+j5Lg51ORGuQ3VsZ8ZCOK1GERhCqDxVJsslrLraJYT0QGpfOyEYsgUpNJsFb2WCxnTIK1UiSxmeyk25UNdFlFsdZosZYZLdYSqyhUi0RdSicFAP1KtXL+zHrGGMmyZCKR0tPmw1gufnzC6DKSsXeAVCKJrSXNHUXrTpeafjpb7nu0riG0pdvoRUQev/45nuOEGG/PyvSwwPr5SUM7s6NCfb10TolkXx0Zr8hgsRTnVdXXfFtwVru7vCbgVFNLuNkq/J9CTqdRd6cE+lVOjg5rnJ88VBwe6Buj5vlQJXJmYKjr7C7cUlLR8Z/CEq+D1Q3B1R2dgUTkevEPBrm5NKaHBlbPS4hpu2potGuwu0sSEbn0f8oA0B/ifb1TdBp1d4/ZIvVzrujZAErvAlhIRP+WenHrk/ee8NI5ybUvs6+Einb9wb/vzKNlR0+NMlsFSU2Gwj3c6p6enHHqttRhUU5qVbTcScpFEMXmTcUVJ5/atj/scE1DrJQYHEfizCGRx5+fPLZtTFhAGl3iJmov9EZzwbv7j7W8lnsotc1g8rjyFf+Xu1bT+eDYkUcezhrh7q1zHiF3jgCgvDv+s/ngF0dPj5F4eQ0RKfZQpHQB8CCdP/1PEuH5PzdzxPnKmE+vhj1e37Tv1u82Bx+vb4qRKyjPcdYHMlP3vzw9K9BZrbabo5AFUWz86OCJwsc256Z1mcyy3bAD3Vwa/3XN1BNz46IzyI4KgZZuw7F71m8T/lNYIuuJlDOHRh5bdu00c5Cba5qccQFAWR8fPLHzvg07Jkm8vIuI3GRMp0+ULgCeIqIXpFzopFYZDc8s1lI//hm6zJbT81ZssG4vrUyy1RgaFW9+f+7kPXePTkrnlL0xWnMranOvXrk+tbXHaLNFljHenpXbF15bHenlkWmrMXpDEMX6xzbtKXlj75EsW45z75jh+96fmx2h4gbcqxAAuIStpZW7pi/7XupidpHOt8K3yphSryldADxPRE9LuTDQzaW57rG7++vpX9xScm77VcvXT7AIQr/0GkgM8CnPu3eBwVWjZlonIYUgivXzv/mpck1BSb89rT6VPWbvC1PHppICRU+tvutA6gcrYxq7evrlJEovZ60+794FBUN9vRQtegCA3eHahpzRH66awBDClYi65cqnL5TeBTAQdN+9btvBGV+sndpfN38iosKGlii/lz+OKmxs2dNfYxKdf/cd9vq/+f68+RMRvbjrYFbaR6uqrKJQ3Z/jrj5xZmfo65+l99fNn4iozWByj3vny8xPDp3cQQr3AgcAx4UC4DeIIrXN/nJtyWf5BelKjG+wWJ2T3/sqa0dp5c7+GK+us/tw6Gv/iqrVd/XbzfDX8msa4mPf+kI0Wq3F/TCc8MqeQzkLvt04SRSVmQm7d/32yU9szt1LRGYlxgcAx4YC4PK6r1q+tnKjfKc/SSKKxE9Z9v2kHWVVu2w5TpvBeDL2rWXD9DIu9JOiok0fFvnG524mQSiz5Tjv7j+a8+TmvSzTdrL4x5788Y9uyskjzAQAQD9DAXBp1lu/21So9M3/16Yt+35CWWv7PlvE7jFbzka/+XlEt/S9rLKq7+wOSn1/hfhLMyHZrSks2fnAT7uZOlDK6fXcI+P+lV+wW+k8AMCxoAC4hNUnzuR8dbzIrrZrCaLIp76/MsVotbK2nrxY19hPv1VJ3etuK6cbW2NuX7O5hGTuJtjYZTgyf/VPE+WMKYd71m3LLmvt2K90HgDgOFAAXKSlx3D85jWbFJ8avhS9yew67fPvDURkkSvms9sPHDlW1yhbPwM5LT9WlL6rvHqnXPEEUWwe/v5XEYIo2uPvPTf6o6+HWUWxVulEAMAx2OMXoZIss79c72wVRLttzbvnXE3izrJqWXYGtPQYjj+/68A4OWLZypzl69KsglglR6zndhw4Vd/Z3d+No3qttcfo9cjGHJuufQAAuAAFwK9sL63Mzauui1M6jyu5ZuWG0YLI/H5cmPHFWhelVsD3VpfZ4r50Sy7za48Oo7HghV15dl3sEBG9s+9oVlO34YjSeQDA4IcC4P8z3vGfLf3edEeKdqPJ/evjZ46zxChubs/Lr2mwm5bDv+X1vUfGGS1WpifjB37c1W3vxc4Fd6/bpnQKAOAAUAD84kBlfV7l+VPeBoQ//bhjtCiKnVKvv2vdFpu195WbIIqqV/fkn5N6fY/ZcvbLY6ftalHnb1l3qmRkm8F4Uuk8AGBwU/o4YLvxxJZcH7lihXt41907cuyZSVGxKl+dq7PZarVUtLcavjxxyHXdmRMpJquVuaNgm8Hkcby+eU9qkN/4vl7bY7EU7y6vSWDNgYiII07MjowtuHdkZlOcb6CTu8bJqdXQZThSX2N6Pz83/ERDjaSTAy/26p78UU9PSu8kCQdnfH6ksEYUaagceXhonfS3pIw58fv44dYgVw9nIqKGbr1hXdFJftnxg8ltxh5ZCqsPDpxoXZo9YGoWABiAUAAQkdFqLd1ZXsV8wI+vi2vbqmtvPZEWFD6WiIJ+/d/CPbxofHg0fTDruqq/7dpY+cHhvWNZx3t+5wHXNQvm9Pm65UdPVxMR8/T/1Oi4E5/PXcC7a52Sf/3v/V1dKc43gG5IHEFVHW1516/5IrCopSGSZaxOk9m9sLFlT6K/T18LHsuLuw4msoxNRKTieOvb06/Zc3PyqFSO4/7nwKAQdw8aERhKz0ycqV9z+vjORT9/N84sWCUdD33B63vzU5ZmpxmJyIkp8YuYBGvFluJzZT+eKXcua2l37TJb8B0Ag5aPi7Mx0c+na/7woWJqoH8Kx5FdbXdWGj78RJRTUVNJRExb4RL9Ait23LKY06pUv7mFUM2rwv4+eU7YnKGJu6/+5rPxLFvSNhSVJYui2MlxXJ+eij/IOxEudcwLnhk/I2dJRnYmnT/J6rLCPLzS9y18sP3OH74+vLbo5CiWMZcdLhRfndm3+3+H0VhUq+9iKu7ctU6deXcuKQpydf/N5kEckfv1w1ImTYkccjTt87eiWnu6vaSO2dpj9GzsMhzxd3WW61jirpd2HTr8zI59WVZBZCrGAAaSdVRKL+ccIl8XXev6m+buzooItrs+IErBGgAiWnGsiKkDnp+La8vOWxfzWpUqorfXZIVFT1zxu5uZur+ZrYKmRt91qi/XCKJYf7y+MZpl3LtSM/YvycgeT1e4+V/AEXl+PvfGhKzQqD7lerEVx4uGUh8bA+0ur2lkGZPnOGHfHQ+cCnJ1H93ba3x0LiPyFy45p1WpTCxjby2paGe5/gKRxNasT76t+uu2vRPseYsrgC01d/d4j/vXtxNf3ZOPrpu/QAFARD+fLWd6+t+44I9nNbyqz0/Vs2ITsqdFxzGt5t9bWdvVl5+vatdXsKyGD3R1a3pt6tXJ1PejpHX/+cNCJzXPS25iVKPvCrIIfTstcENRuU7qeEREL0+ekxPq7jWmr9d561xS3p5+7V6WsdeeLpVjulK84Zufy/ZV1cbLEAtgwHt8c+7E7aWVNj1bZaBw+AJAJLGVpTlMekjE2VhvP6mnBXIfX/UHpla3e8/V9ekdcUFjSw/LeB9dNb+gr68cLnBSqWMeSs9manfb1N1T15efP1BVJ/lkQye12nD3yMzkK//kpS1IGjnSXeskeadGXnUD866U4ub2A9+eLGZ69QIw2Fz79Y+jBVFkmh0cDBy+AOg0WmpYrv9LxuQ66vvT8H/5OLukhHt49+mm9muHa+v79J75aG2T5L9zjjhxQlg0U6Oku0dkOrNcX9bS0ZcbqniqsSVM6ljXD0s5wRMnuTjkiDxvTR59Qur1FW3tIURklHo9EdFjW3KY/n8DDEYdRpPbtpLKQqXzUJrDFwBdZrOB5fr00AjW1rLc1XFJkjvdNXT29On43vqubskLP+N9/StUPB8s9XoiokBXtySOOMmzHk3dhr4cm9vNsuXymriUbqnXXvC7+OFmqdeKInGCSHqG4Y0bTpdLnsEAGMw+P3JK0kzmYOLwBUCP2SL5C5qIyFWj9WbNIc7bT/JisTaDsU8LGFt6DJILgChPHzkWpel8XVxapV7cauh9vSaIItMNPNzDi3mXTLCbB9M2Poto7dMaj/+5VhAaLYKAnT4Al3C6sUXyLp3BwuELAGKYvv9FX55IL8kiWiVfy3HSn6b7SiBRlla6gig9Dtenvy6OKV+B4e/l/8cQWP9+GF7Z4PMNcDkalYr9Az7AOfwXhKtGw9SwRW80SH6aveBMc5PkaWovJ6c+PeX66nSSV+GXtjYzz3aQSN2tPT2SK29vl94/UPMcMW3vPNfexjQ7RERU3dHB9A5fzfGS/wwqnvd3VquYXnEBDFbJAT5tSuegNIcvAFy0aqZtYjlVZS2MKVi/LzouuU1tkIdLn1aZB7u7SL6pFbc2hVsEoVLq9URE1Z1tJ0SGmYQAF11f9rG7sNwAV506wrwNb9WpI5IX4fEcJ/Ac584wvGbB8HjJixABBrO7Ryc7fHHs8AWAq0YTynL9q3u3RxKR5Kmk2s6OQ43dXZK3qqWHBvXpvfyoYH+mVxYbS0+XsFz/7sE9TONHe3v26YaYFOBbJXWsH8+eGm4VBcm7RKyi2PjtqWMpUq8f4uNVTURM50a8NnM887kTAINNoJtLc2ZEkFxdNgcshy8AOI48Qj3c6qVeX9BUF3m0vkbq3nbLLeu+Yjo8JjMsqE8LCIf5+/Rp18DF/rRxzSiBxGYp1+pNxpOfHNmfyTK+j4tzn3YhjA0PapI6llmwal7Zu13yDo33D+4pNFjMkmeY0kMDJP9eXuDn4pz6xIS0XNY4AIPJjoXXFXFELLNrg4LDFwBERPOGRTOdNT/vm3+N6LFYzvb1uk+P7s85XFc9jGXsrIigPhUQoe5usTzHSX4KbzcaPO76YVUFEfVpLYFI1Dp9xUduLNP/Ud6e1SqO61MB8LuEWKZ38K/v3zH+WEPNnr5eV9Hesv/ZnE2/eS7ElVyXOERyE6Ffe3l61qgbh8fnyxELYCDjOBI33Hz1zgR/n6wr//TghwKAiG4cHsfUs11vMrqO+febHp0m4+leXmJdWXB422PbNkxmGddZrTIEuLr0qYDgOPLJCA3qc7Hya2uLTo56eOu6fJGoV1vUrKJQM/vrT2qLWhqiWMa9NSW+z0/jY8ODmbvpzVz58ZhTTXW9fooubm3em7nsnykiST/oiYhoUnQYa4+JC3Qr/zBzxPqb5+70dNKy9BUAGLASA3zKKx5eeGhufPQkpXOxF9gjTERjw4NjOI5Elh751fr2wKEfvuzx/qzf77o2Lnn05drl6k3Gk3f9sMq8pezMVOkZn3dD8tATRNTnPvV/zkyp3fcdW2/4z4/lZeTVVJStuua2xjAPr8u1QjYfqqnMvWnd8qTG7i7mI3kXjkro8++rq0YdF+3tUVPW2hEidVyj1eKU9cW74x4aMzH3r+OnR6l5/pLrRqyiUPOPfTtKXt+3YzzLTAcRUZCbS5O3zimBJcZFVFfHx0xqXXpfR1Fz697tpZXm0pZ2jckqz9ZOAHvk7qQREgN8zNNjwz0DXF2GE1GU0jnZExQARKTm+bA5cdFHfygqG8ESx2Ax6+76YVX2nzXarhsTRx6YGRtvCHP3VHeZzZai5kbx38f2Bx2uq5atM9uT2WMkbem7LnFINMdtYip4iIgKGuujh3/6WnSMl2/VPSMzS1MCgslX56aq7+qw5Jwr5T8/cTCxubtrEssYF/i4OLdGe3tK6WnPPzcl48xta7ZILgAuePvg7nHvHtpjnRkbf3R+woi2GC8fNcfxVNrWbP628KjnzyWnU6yiwDwOEdFfs8cUEpHsx5ZyHHkM8/POGubHvqMTAAY2FAC/eGV6VtcPRUxLAf6r22xy/ezYgYzPjh2QJd6lBLq5NMf7eksqWJzUqsi5cdHHNhSVpcqRS2lbc9iTO36U3HO/N56dlH6ciLKlXHvD8Ljohd9vtcpxFK5VFFQ/FZ8a8VMx08nGv4njSLxrdFKQzQYAACCsAfivpADfzAQ/nwql8+itz66ZeoKIJK8w//h3UyQ3BOpvGhVvvj89ZYjU67W8KvLPGSPy5MzJlu4clXRQp1YzHboEAHAlKAD+P9VXf5hxTukkeiPIzaXpqrjo0Swxgt1cR88YEjEgmsS8Mn3c3su9d++tl6aP9VfzvN0XPTzHCW/Pnujw25MAwPZQAPzKqOCAcdNiw08qnceVbLr9Gln2sK69ca6zvd8U/Vx1LUuyRjCvm9Cp1UPeumqi3e+H//v0sbluWo2ci/8AAC4JBcD/4tfeNFfjpFYx7R23pesSY4+kBPrJsodVp1EPfX/uJLu+Ke5ceN0pjjhZtsMtTk8ZFevjWS1HLFsI93Crf3z8aBzfCwD9AgXARVw1mvjNt10rtbOfTQW5uTR9c8NVIcR+guF//TEtOWt6bIRdzno8Nn7UrqQA33FyxeOI3I/cf1ObVqVi6vtgCzzHCYfuX1DDEYfl+QDQL1AAXMLEqJBse2uf6qRWGU8svrlKxXHMjW0uovnp1nleLO2QbWFiVMipf8wYnyZ3XHcnTdLOhb+3uwJv462/ywlwdXH43uQA0H9QAFzGy9Oz0m9JiT+kdB5E558OT/7p5sN+rjqmPgWXo+b5sLMP3ab3cXGyi+Mxh/l5n9ux8Pd+RMR0bsHljI0ImrjqD7N22iK2FG/MnrB7+pAISVscAQCkQgFweZrl188cvig9RdGnRa1KZSr48y37h/h4jbXlODq1ekjFw3fWBrm5SD48Rw4jg/xLTv7pZjXPcZJPSOyNG4bHTfrxlnm7bDlGb7w7J3v3w2NHjlc6DwBwPCgAfpvT+3Mnpb00LStHicF9XXStlY/ceXKYn3e/HFzhptUklD+ysDMpwKe8P8a72DUJMUfz77/RV8XzsnTTu5Kr4qKy9/9x/m4l1gSoed6yfeF1u/6UkTqR8DkEAAXgi+fK1E9OTJtw8k8357prNb06/EYO02MjTtY9dldPgJtOSvtbyZxUqqgTi2/2+8v4UXv7a0ye44RVf5i18/sb5w7nOPLqr3GJiDLCgiY2PfHHs0N9vSr7a8xIL/fahsfvLpwcHYZpfwBQDAqAXkoK8B3XuvRe/dKJY2y6ONBVq+n68ZZ5uzbffs0wdT89CV+M4zi312aMzzr3yMKDQ3y8qmw5VlZE8OmWJ+8tvGF43CQiYm7VK4W7kybpzIO3+X4zf/YuW84G8BwnLJ04JrdsyUInb51ziq3GAQDoDaVPAnueiJ6WcmGgm0tz3WN3y3Vcap80dHUfuXvtNl6uXvpE52/8r88cf+iPacmJtn7/3UfdW4rPHbzj+y0JNfquALmCpgb5l351/Yza5ADfsWRHhajRai19dvuB2tdzD2dYBEGWszJ4jhP+nJl64OXpWf46tVpyS2MAsD+HaxtyRn+4agJDCFci6pYrn75AAcCgw2gs+OjgyeZX9xwe3tzdI2n/9riIkNMvTM2sz44KHc5znI/cOcrIcLKhOf+FnXm6NYXFqVIO1nFWqwz3jhl+5JGskepwT/fRZEc3/ouZBGvl9wUlJU9v3x97trktXEqMaG+PmuenjD0zP3lIlFalipI5RQCwAygApBvQBcCvWNp6jKd2llc3bzxbodtfVed/qrElzGS1an/9Q36uupaRQf41EyJDW+cNi+aSAnxilJrmZyGK1FLa1n7mh6Iy0+7yavdD1Q3B59r1/3N6nYrnrLHeXjVpoQH1M2IjOmcMjXAPdnMdRjba2mdLBoulOK+qvmbDmTL1vnN1PsfrGsP1JvP//DlctZqu1CC/yvTQoNbfDYs2ZYQFheg06iGk/GcMAGwIBYB0g6UAuByTKFI3cSLHEeepdDK2JopiJxFn4TjSEpGL0vnYmCCK1EFExHHkTgqtXwAAZQ3kAkCWd5xwWdrzN0Ol66z+wXGcm9I59CO+v3csAADIyW7fwQIAAIDtoAAAAABwQCgAAAAAHBAKAAAAAAeEAgAAAMABDdhdAAazRVvc0rZP6TwAAMBxbS2pFJXOQSql96dJ7gMAAAAwCCjWBwCvAAAAABwQCgAAAAAHhAIAAADAASldACg9PgAAgENS+gYcofD4AAAADknpAsBf4fEBAAAcktIFgLPC4wMAAChJq9TAShcAXQqPDwAAoCSTUgMrXQDUKDw+AACAQ1K6AKhTeHwAAACHpHQBAAAAAApAAQAAAOCAUAAAAAA4IBQAAAAADkitdAJS+fj4tBYVFXUqnQcAADiuHTt2lM6fPz9b6TykGLAFgFqtFjQaTbjSeQAAgOMKDAwsVzoHqfAKAAAAwAGhAAAAAHBAKAAAAAAcEAoAAAAAB4QCAAAAwAGhAAAAAHBAKAAAAAAcEAoAAAAAB4QCAAAAwAGhAAAAAHBAKAAAAAAcEAoAAAAAB4QCAAAAwAGhAAAAAHBAA/Y4YAC4IosgCK0mk6nDarWaLBaL0NnZKZpMJm17e7u2q6uL1+l0ore3t1Gj0ZhdXV0FrVar/oWHSqXyJiKt0n8IALANFAAAA5Aoil1Go7Gmubm5tby83FBUVCQWFBQ4FxcXu9XV1bnV1dV5t7e3exCR/y//SOLu7t7p7+/fFhIS0hETE6NPTk42JCQkUGRkpJOfn5+XTqcL5jjOU74/GQD0FxQAAPZNMBqNFdXV1XWHDx825uTkuOTm5gaXlJSEiaI41NaD6/V6N71e71ZaWkp79uy55M+Eh4fXZGVl1UyYMKFz9OjRmsjISD8XF5cYItLYOj8AkA4FAIB96WptbS09ePBgy7p161w2btwY29zcHE1E0UondjmVlZUhq1evDlm9evV//51Op+seN27c6enTp7dOnz5dExUVFc/zvI+CaQLARVAAACjL2t7eXrh58+aWL774ImDfvn1xVqt1uNJJserp6XHZunXr8K1bt9Ljjz9OHMeJKSkpZ++4447quXPnuvv7+ycRkbPSeQI4MhQAAP1MFMXWkydPFq5YsUK1evXqYa2trQP+hn8loihyx44dG7pkyZKhS5YsIZ1O13Xttdfm3X777T1paWnxKpUqSOkcARwNCgCAfiCKYvupU6dOvv/++9pvv/021WQyjVM6JyX19PS4rly5Mn3lypXE87wwZcqUEw899FDr2LFj41UqVaDS+QE4AhQAALZjKi4uPvzGG2+o16xZk+LoN/3LEQSBv/C6gOd566xZs448/vjjnSkpKaM4jnNVOj+AwQqNgABkZjQay1esWLErPj5en5aWlvn111+nmUwm7KfvBUEQVD/99NPI7OzsCREREeLf//73nc3NzYeUzgtgMEIBACAPy5kzZ/bNnz//eGBgYNTixYuz6+vrfZVOaiDT6/Vur7322qTY2Ni0mTNnns7Pz99eyylSAAAgAElEQVRNRD1K5wUwWKAAAGAgimLnnj17do8YMaIhPT197ObNm1OUzmkwOnDgwLCpU6dOHDp0aPeKFSt2Wa3WOqVzAhjoUAAASGC1Wuu++OKLXVFRUeLcuXMnlpeXhyidkyNobGz0Xbx4cXZoaKjX66+/vttoNJYpnRPAQIUCAKAPBEFoXrFixa7Q0FDPBx98MLu9vd1d6ZwckcFgcH7xxRcnBgcHRz7++OP7jEZjudI5AQw0KAAAekEUxZbvvvsuNyIiwmXx4sXZBoNBp3ROcH4Hwccffzw2ODg4dOnSpbvNZnOF0jkBDBQoAAB+W8/69et3RUREON19993jOjs7ceO3Q4IgaD744IOJoaGhwZ9++ulOURRblc4JwN6hAAC4jKqqqoOjR49uvu2227L1ej32ow8AJpNJ++ijj06KiYmh7du3byMik9I5AdgrFAAAF+ns7Dx1/fXXn0xOTh5TUlISpnQ+0Hetra3e11133dTs7OyKhoaGfKXzAbBHKAAAfiGKYs+yZcv2RUZGxm/dujVZ6XyA3bFjx4bGxcWNfuihh3YJglCrdD4A9gQFAAAR1dTU5I8cObLtoYceGmu1WgfF5yJk4pxc1us5nhfkykdJy5Yty46JiXE6evToTiISlc4HwB4Mii86AKkEQWh+6qmn9iUmJo4uLy8PVjofOWg8vJumrjywffTTHzD1Jhj+0Mva2RuKCtwi42rkyk1JbW1tPpMmTZp0++23H7ZYLOeUzgdAaSgAwGHV19cfSU5OFt97772xSuciF+/E0aWz1560uoVGTZEjnsbNY/jUL3a7h2TPPSVHPHuwbt260WFhYd55eXlblM4FQEkoAMARGb788svchISEETU1NX5KJKD18m3xSUrLkzNmyOR5hyd+8KM/p1LLe5wux7mPef6zuMR7lh6QM6znkOHbdYGhiuzbNxgM7jNmzJj+yCOP7BdFsUWJHACUhgIAHEp3d/eZiRMn1jzwwAPjBEHg+nNsjuctoVOu2Td99cE9s9cWiD2NdRFyxY6df2/umGc/TSGOs1VnQtXQWx7MGPHYW3vkCthVWz56+qqDqlnrCg4PvfmBAyonZ6NcsXvrs88+y0xJSTE0Nzcf7u+xAZSGAgAcxokTJ/bHxMREHj9+PKY/x3UJDK/OeHl5ztVbq1rS/vbxWJegiPHFX39wqqehKkiO+FHzbt+fvPj5dCJSyxHvt0TOuWl8yiOv7pMjlqVL73nszccrnbz8RiX+8a8ZczeXd2W9+V2Oe8TQfu3vX1lZGTJkyJDUb7/9dhMRDYpFjwC9gQIAHIHxgw8+2DdhwoRMg8Hg1F+D+gxPL5qybNe+6d8cCgjKmjGBU6kCiIjMnR0nCj99cZwcYwRlTjuc+sirI4lII0e83oied3vmkBsXy/L6omLD8rE9ded+KSg4H//REyZMWb4ncsbqg/sCx047JMcYvSGKouqee+6ZuWjRokOiKLb117gASkIBAIOa1Wqt+93vfle6dOnSflvoFz7rhkOz1xUenfDehnj36GFj6X9vzsKBpbfxogyvH9wjhpSmv/JVBBH1W1HzCy7pvmdSAsZMKpAjWO7D80OIyPCrf8XrgiLGZr6yIm3OT8UF0dfdtb+/tiOuXLkyPTMzs9VoNJ7pj/EAlIQCAAattra2k4mJidpdu3Yl9Md4QWOnH7rqh6Kjo578Z5rWy3fEpX6mveRkbvOxfUmsY/Fap+7sf221cBynyCJGInLOfHVloJNPAPPTcld1WWT9/q2X7FmgdnVPSnnwpcy5P5eVRV9750HiOJvv4S8qKoqOjo4OPXfu3H5bjwWgJBQAMCiVlpbmDRs2bGh9fb2PrccKGDPp2Oz1p/IzXvkqTePudckbPxGRKIpdB564NU6OMce99d1BlZNOllhScbzKL/uTjaXEsa+lPPTsvemiINRf7r/zzs6xKQ+9PGbOT8WFEbNusPmCve7ubtfU1NQxGzdu/NnWYwEoBQUADDp79uzZnZaWlmbr9/1uEUNrp63MOzr29dWpWk+f0Vf6+drdPxzsaahh3qIXMXP+Pp/k9ImsceSg8w8dlXTv00wdB4mILD2d7iWrPii80s+pXdySRj75z1Gz1xUe8YpPPcs67m8RRVG1YMGC2W+//fZ2IrLYciwAJaAAgMHE8sYbb+TOnTt3oiAINvvdVjnrOtNf/Hzb1OV7vF1DIy/7xP8/RLH96Gt/6d3P/gZn38DaEU++M4SI+nUL428ZcuPi0V7DRjCv3D/12SvjhF526NN6+Y7M/mRz9IQPf8rVevrY9OjfZ599dsoDDzxwiIi6bDkOQH9DAQCDhenhhx8+8sILL8iyuv5yIufcnDvn55LW4AlXTSUi595eV7n5u8NmfZsX0+AcJ07+bHsNx/H+THHk5zz+nbVWXqMxswQRLGbt2eVvlffhErVP4uhxs9cXikmLnzvA8bzN1gd8+eWXmfPmzTsjiqJNiw2A/oQCAAYD46JFiwr+/e9/j7HVAM5+QQ3TVx08OOKxN8dxvCq8TxeLQsvxt59MZ81h6IJFuVpvvyu+alCCylk3JPWhfzAvmiv68q0swWws7dtVnM+Q+fdlzF5/usAjepjNegjs3r175OzZs+sEQUDnQBgUUADAgCaKYvdtt912ZuXKlSNtNUTsDYu2zVxzVO0SHCGpwKjcvOaYpVvvypKEylnXmXDPX6NZYthaxJybRuoCQhpYYoiCVX3mq39WSrlW4+6ZPHnZroDhD760nTjOJtsG9+/fnzBp0qRGQRDqbBEfoD+hAIABSxTFjuuuu65s/fr1w20R39knsGn66vwDyYv+NpWIk7abQBQ7T7z7VCprLmnPfnqQU6lCWePYFMe5Zb7yVTFrmLNfvZMpWq3VEi93jbnurilXrT9V6BYZV8uay6UcP348Pisrq9tqtdokPkB/QQEAA1X3ggULynfs2MG8p/5SwqZff3TGf46qXILCMlniNBzOOWTWtzFtRXQLjz0XNHb6gDix0CM2aWxgxlSmkwMFi9mp4qcVRSwxNB7eyVO/2O0eu+B+2c4u+LXTp0/HjBs3zmi1WplmPACUhAIABiLTXXfddXbTpk0pcgfmeJU546UvN41+6v0UjuO9GcOZj7328FDWnLLe/K6W+rDgUGHcmOc+5Vg7951879kxJIrNbJlwbsn3Pzt+8uc796qcdT1MsS7h9OnTUdOnT2/BaYIwUKEAgIHGvGjRouNr1qxhnla/mLNPQPPM74+fCBo3cybJ8NnQV5bkdddWMk3bB2ZMO6oLCMlgzaU/qXSuw2J/f89BlhhWQ5d746Hdx+TIxyMmIWv2usIKt4ihktYW/JbDhw8PmzdvXq0oip1yxwawNRQAMJAIjz322OGVK1emyR04MHPaiRlrjolOXn6j5Ip56qPndawxRj7xFtPWOqUMu2epP+u2vBPvPhVJRLJs7VM5uwybsjzHM2L2/Hw54v1aTk5O0k033XSW/vc8AwC7hwIABoxPP/10zyeffCL70/CQm/60PfMfK4ZyPC9bX33BbCqpzd3EtDPBZ3j6SSefANmLnf6gcnKOiZxzM9NpfvqKM7Gm9hbZTgTkiPMY+cS7I0Y+8c4uuWJe8PPPP4984okn8gnHCcMAggIABoQDBw7se/TRR+Vtf8tx4pjnPt2VdO/Tk0nmd+wVP6yoIFFk6tY3+qkPOsmOOv71VfLi5zxYzwk48+Wb3TKlc4EqYvaC7OxPt+7m1WyNiy720UcfjVu1apXsxQWAraAAALtXU1NzaM6cOcyNdH5N5eRsnLo892DIpHnZJP9NtvvUZ68wbU30HJJU7BIULuufub+pdK7xYVOvO8ISo/T7z9NFG+y594obPnHmd0ePa9w8O+SMe999903Oy8tDEQADAgoAsGudnZ2n09LSEi0Wi0qumGoXt44Z3x456RYea5MbbEdpYZ5Z38bUrjftmY/raBB8PlOWvMx0IJNotejqD2yXZTHgxbTefqNnrjla4+zjL+tWvquuuiqroaFB9rUGAHIb8F8wMHgJgtA2ceJEr+7ubhe5Ymo9fdpmrjlW1ZvT+6Q6+cGz7izXu4REVLlFDmXqP2AvNG6eiYHpU654yt9vOfnuX6PJRu/WVc4uw2Z8e1jvEhQu2w4Bi8WiycjIiDWbzb062AhAKSgAwF4J99xzT2lpaWmQXAGdfQMbZ3x7uEHt4pYoV8yLCRbzucZDu5l2EiT/6cUSIlLLlJLiEhf9jWmLXFd1eZxZ33Zcrnwuxqm1sVNX7ufdI+PK5YrZ2trqNWvWrB4iknsNA4BsUACAXVq+fPmeNWvWyLYlzyUwvHbGN/ldKiddnFwxL6V+z6ZzLIv/eI3GEpQ13WYFihI8ooeNcPIJ0LPEKN+w3Kb77HmVOnTy5zt1HrFJfTyI6PLy8/Pjn3/+edl2MQDIDQUA2J3y8vIDDzzwwAS54jl7+zdOXbG3m1NrouSKeTlFK95mavwTfd1dR+3wuF9W2oS7n2BqD1y8+sNEIrJpTwROpQqc9K8tLq5hMbJN3b/55psT8/LydssVD0BOKADArlgsltrJkycnioxb6C7QuHm2T/v6QDOv0cbKEe+3WI09Z9rPnGA6sW/ozQ8wNw+yRxEz5odzvPR1nKa2Zh9jayPTjoLe4HhV0JQvc0RdQGiVXDGvvvrqjO7ubqazDQBsAQUA2BPhlltuaWltbWVaRHeBylmnn/7NoTKVznWYHPGupCbnZ6aFZG4RQ2ucPH0H1fT/BZxGExyUNeMMS4zydV/IumXvcniVOnLayn0WZ9/ARjniGY1Gp9mzZ/NEJPt5BAAsUACA3diwYcOejRs3ynK6H6/RmGesOlSicfUYIUe8XhDPfvFGBEuAhHuWnqEB3PjnSuLveITp0Jzibz8eTv3UbpfXOEVNXbGvSa1z7ZIj3rFjx4Z++OGHeXLEApALCgCwC52dnafvvPNO2Y68nfDBT4e03n79dfMnwWg4qT9XLP3kP46zBo2byfT6wN55Dk1OUetcJa+Kt3R2BBqa6/vtJqrWuSZMWZ57kuNVFjniLV26dGJ1dTWKALAbKADAHvRMmzbNxWw2a+QINuqv7233ikuRrZjojdq9G5mayQRmTjvBq1SRcuVjnziXqGvuOMkS4dzPq01yZdMbOv/gjKw3v5VlEZ8oityUKVOiRNZjjgFkggIAFPfVV18dPH36NNP0+QXR1965J3zGHybJEasvSr/9VzjL9XG3PiTLVLO9i7n2LqbOgGXff5ZMMp0Q2Ft+I8dNSV703A45YtXX1wf8/e9/Z2qMBCAXFACgqJ6enjNLliyR5WndOzm9OOWhl0dRP/9ei1ZrQ0vhIcn9BTheJXonjIqXMyd7pQsMTdR6eEt+j29oqguy9OhPy5lTb8TecN/44AlXydKS+PXXX5+AVsFgD1AAgJIs1113nSDH1L/G3at9/Nv/cSIi2doG91Zb0fFiEqU/lAZmTi2U8yhiO6eJmHsz0xNwQ94uWXv395JmzPOfhekCwmrlCDZz5sxAURQdYtYH7BcKAFDMtm3b9u7bt499ix7HCZM/21bAazRM0/BSnft5BdNBRbHz72uVK5eBIOrq25iuL1+3zEumVPqE43nfyf/eVs+p1MzrEMrKysK++OKLg3LkBSAVCgBQhNVqrbv11lvT5IiV+shrO3WBYVlyxJLAVLVtrfTpe44j35R0mzcpsieuIZFJahc3yTfRpiO5SUSiErMApHH3GpH58peyLAp85JFHxhuNRqbeCAAsUACAIl588cUyOU758xs1vijq6ltlaxvcV6aO1mOWLr3kJ1LflMzTnEoTLGdOA4BT2IzrJe8GEAVB3VlVyrSbgEVAxtQp4dP/wPz0brVa1ffccw9eA4BiUABAv+vs7Cx65513mI+7VTm7dI999WsdEcmyfVCKhoM721iuj7n2zhq5chlIIq+6memUvOpt62x6LsAV8KP++s9YOToFrl+/fiR6A4BSUABAfxNvv/12iyAIzB3vst76Lo/XaGXZPihV5cZvmBbv+Y+ZNNgO/ukVzyFJccRJ/xWo2vxtlHzZSMDxPhM//EmWkwOvvfZaPyIyyhELoC8GzZnjMDCcOXPmwLZt25if/oMnXnXIJ3F0thw5MehpOpIjuXe/xsO7Q+PmIfV6PQlCu9Vi0gtGQ5fF0GOxGrrI3Kk3W3u6OKvJYO0oO20mIsndBYtXfaj3HzVuB6/WatRuHqLGxV2tctaRSueiVjs5u3IarTvHqzyJyKOvsTmVKsB72IjK1lNHJC3c7KwqjRMFaxXHq8KkXC8HXWBYxpD59+8q/uZDpt/DM2fOxOTk5OycMGHCJJlSA+gVFADQn6x33HFHEGsQlbNLd9rfPgkghfvmG1sazwhmc6rU68On/b6IiMb86l8ZRIu52tLd2Wxobezpaay1dFeVqrpqzzl1VZa4dDdUOxtbGt1N7S3ugsXsTkSyHJp0OSXffDil5JsPr/hzHK/qcvLyadd6+3fp/EN63EKju13CYgxuIRFWXVC4Wuvl66R19fThNJpQInK9cF3E7BtrpRYARMTpzxWXe0TFK1YAEBElLfpbctW2/zQamuuZZnIWLlyYcvbs2U6O49zkyg3gSlAAQL85ceLE/sLCwnGscca++vVhXq0ZL0dOLBoP53SyXN9dd447+f4z+/Slp131FWf9ehprAogo9pd/BgxRsLoaWhpdDS2N1FFSSPWX/1HByduvzi1iaJN7VHyntaeL6RVk7a4NnEeUwv2TOM53/DtrD2y9ZSxTAdDU1OSzadOmHbNmzZosV2oAV4ICAPqLeeHChcy97n1SMgp8UzP7tc//5VRv+55pP3rd3s2ybIMcQHhja1OQsbUpqPnYPuZg1dvXh8bf/hcZ0mLjGh6TET7jD3mVm79NZ4lz3333pZaVlbVxHKdInwNwPFgECP3i0KFDB4qLi9mmazlOyHx5uZmImBrvyMTUeDgnRukkHJm+vChSFIQ6pfMgIhr5+FsBvEbLdFRxW1ubz/r164/IlRPAlaAAgP5gvvvuu5mnteNve3ivxs2z3474vYweU0fr4bK1n++xGnp0Cufi6LjTn71SamiqPUyiyPQ6hjkRtSYq5eFXmac1HnjggVGiKLbLkRPAleAVANhcYWHhofLycqZpe7WbR2f8HX8ZKldOfdBlbGsqasrP6anescGr/sDWeMFkHKVAHnAJZ756J+vMV+8Qx6vIIzahKnTSvLKQyfPUrqFR8UScT3/mEjl7wZiiz1+t72moCZQao7293XPbtm07pk2bhrUAYHMoAMDmHn30UV/WGGOe/ugIx/P90fFPsHR3FtQf2FZbvmG5V/PRfSmi1YIbvp0TBSu1nz0Z1n72ZFjhpy8Rx/NW74SRhRFzb2kIGjfL28nTJ4ls/X3HcW4ZL391dOddUyQXAEREDz74YHxBQYGJiLQyZQZwSSgAwKaam5uP5ubmMk3b6/yD6wMyp46WK6f/S+zuqj53pmrzN0LFDytieppqhxPRcNuNB7YmCoKqpSA/saUgP5FoCamcXbpCJ887Evm7243e8SOGcDzPvB31UjyHJI31HJpc1H72pOTtCdXV1SGFhYU5iYmJirW4BseAAgBs6qmnnrKyxkh75uPTRCRv0x9RqG05mX+8ePUH7nV7N6eJVovSawvAhqyGbtdzP68ac+7nVcTxvOA3ctzxITfc3+A3OjuOV6vl7CapSnvu0+ZtN7FtVFm0aFHgzp07RVK41wUMbigAwGaMRmPF6tWrmabPXUIiqn1SMpg7BxIRkSi2dZQXFZSs/lBbufm7EaLVMlOWuDCgiILAN+bnpDTm5xARCV7DUguH3vinxuDxs2M5tYa5sZBbaMxYn6S0Uy0FhxKkxjh69GhcU1NTvp+fnw1nvsDRoQAAm1m1alWFIAhMe//HPPfvUiIKZQih7yg7dezs8n961OzakCRYzMyNiGBQ4dtOH0s8+Ld7iON5MTBjamHcHX9p8o5PTSHp+/G5tGc/1W/+w0imxN58882el156iSkGwG9RenrpeSJ6WsqFAQEBzWfOnGFeXAY2Y4qPj++sr6+XvBLbJSSiZvrXBwNIQqFqNRpOV2xYfu7Uv/8xytKlZzqwBxwPr3XSD73xT/mxCxb5aFzcUqTEyFl89amWk3mSZwG0Wq2hrq6uk+d5/P7asWPHjuVkZ2ezrNdwJSKm0zGlQh8AsImSkpLDLDd/IqIRf3njLPXt5m/sqi7bd/CZuw//MCMy/sS7T83AzR+kEExG96Iv3pj00+zYlB13TStoPJyziUSxT0c/pz76RjNLDiaTyTknJ+cESwyA34ICAGzihRdecGa5Xu3mofcfNaFX6wdEi6WmYsPynT/PS+jcelPm2JpdG0aR8rNbMEh0FJ9I2rvk+pk/zh6iKv76vV2C2dirY4A9ouIyXILCz7GMvXTp0jAiElliAFwOCgCQncViqVq/fr3kU/KIiJLveyafOO43T7uzGg1nT336cu4PM6P8j77+l0mm9ha8EvoVtYsb0xnzap2rkTjUURdYejrdCz56IXvD9Mioo68u2WfubD9+hUs0qX957SzLmAUFBUPb2towCwA2gUWAILstW7aUCIIgeTU1p1JbI6666bJd/yzdnQXH33yiu3Lrd2kkikp0B+w3vNbJ7BIc2egSFNasCwzrcAkIMTsHhpHOJ1Cl9fbVaNw8nNTOrlqV1knNqbUunEql43heR0SugslQs2F6ZLTUsaet3F/g5BMwioi6SRR7BIulW7CYewSzySwYu03Gjjajub3V3NNSJxgba8Xu+mp1d12lp6Gxxrurutzf0tPlJN//CTsiinzFjyvHVvy4kgIzph0d9dd/WrWevpdcrR+QNilNrXPTW3o6JR/d/PXXX7fcf//90vMFuAwUACC7N998M4Tl+og5Nx3hVKr/c1Ke1dB9+vg7SzvO/fQ106lr9kTt5tHuGZtc6ZMwos0tOsHiGhKh0gWGOzt5eHnwTjo/jud9iSjkl3+U4kIc58JrNL68RkOkcyEiL3L2/+2URBI7rAZDo1nf2trTVGfoqSm3dpSeVrWeOuLRXnwyzNTe0q+tem2h/sDWET/PS6Tg8bMOj3ziHZXG3et/Z744zjPu9iU5hR+9IHmR2FtvvZVw//33Wwjf1yAz/EKBrMxm87mDBw8yPZXH3bLkf955ilZLZcEHz1WWrPk0k0RxwL624jUaMeXBV/Z5xA0XXYPC3TUeXsEcx/sTkafSudkCR5yH2lnnoXbWkc4/hChhFIVO/fVPiC2WLn1tV+25jo6SAuvJ955JN3W0Dcj2t7V7No6qnRtPYdOvzxv56Js+vJPTkAv/Lfp3d/gWfvSC5NgNDQ2Bzc3Nh319fdGSGmQ1YL9MwT5t3LixnOV6Z9/AWpfAkF82UIvd1dvX7vlhVox/yXefZA3kmz8RkXtkXGXk1bdkecenjtN6+qT8cvN3YJyP2tUjyXNI8tjwmTeM9xs9sVjpjFhVbfku/YdZUVFFy17fKopCIxGR2sUt0Ttx1GmWuCtWrOiQJ0OA/29Af6GC/XnrrbdYmvZQ4h//WkhEan150d5N16XqDz1373jBZGTaUWAvPONS65XOwZ55x48YFMfgioKgPv35a9N+vjpB3XLy4G4iEhL/+HQNS8z33nsvkYgs8mQIcB4KAJCNxWKpOnz4cCxLDP/0SW75LyzK3377xCxDcz3TqWr2xidxVJfSOdgzz6HDmc+NsCdmfZt3zuK5E/f95YZCj9hEb16jMUmN1dDQENDW1lYgZ34AWAMAssnPzy8jIsmr/3mttnrrjRnJVkOPq4xpMVE5u3YEZU0viL7mdpPW01ez/faJWVJjeQwdjj11v8EtIpZppmf8P9fuVDnrtJWbvlNVbvluqLmj1S4WGTYc3Jm86dpkE6dxqiKzOUZqnG3btjX//ve/lzM1cHAoAEA2y5cv17FcL5hMTK8P5OIeFV8TO/++suAJs921Ht6JRDSWiEhffiaXJa5rcISbLAkOUk5efkx9HASzSfRNHZvlFT+Chj/wotXcpT9Rt+fntpJvPopqLy4IlytPSblZzFqySL/5ExH961//CkQBAHJCAQByMa1bt05y33OleQxNqom55q6ykOw5Hhp3r+F0iW133bUVkqdwiYi07l6D6pWG3HitUyinUptEq0XSToDOc6Xkn/bfU6NVGlf34eEz51P4zPlkNZuqmo/mVpd8/WFgw+HdUSQOvOZ6+/fvT7BarfUqlQq/RyALFAAgi8bGxgK9Xs92/Fk/cw2Jqhh252NlIRPnRPFOzlF0hb32nRXFkqfweY1WTzyv5F7+gUDrGhJZ2VlZIulpvb2sUHO5/6bSaMMCxkwOCxgzmQSzqbJ+7+biU5/9I0JfcYZpzUp/EkWRP3v27Jlhw4ahAABZoAAAWWzevFmvdA69oXZxs0Zfc0dRzPV/JGffwAQi6vVxxR1lpyV3tnOPjm8kIsnd4ByFZ2xSm9QCQF9W1Kv/v7xGGx6cPTc8OHsumbv0x8vXLes4u+K9UebONhcp4/anb775hp555hml04BBArsAQBbff/+9XSy4uhyP6GHnMv+xYtecH892Jt77dKKzb2Ai9fHAoI7yUx5Sx3ePHjYotrjZmkdsQo/Ua7sqi/u8hkDj6p4y9KY/j7/qh9OqyZ/vOOo/cnyZ1PH7w9q1ayOUzgEGD8wAgBzMe/bssbue/BzPC5FX35Y37K7HdU6ePqlExPTl2VlVJvloYffwWMk3NkfiGhYjea+7sa05iIi66Pz56n3DcU4eMYkjst5eQ+bOjpNnv3q7rfibjzNEq+WyrxWUUFpaGmm1WutUKlWQ0rnAwIcZAGDW3t5+xmAw2M3BL5xKbRly859z524qL0t9+B+Zv9z8WbVaOjskd+5zC4tFE5decAkKZ9kqqRYsFqaGO0REGjeP5MT7nhk/d3NFbdK9T+3kNVoDa0w5nTt3zht6IYoAACAASURBVK5nKWDgQAEAzPLz85uVzoGIiFdrzHG3PJQ7d1NpVdIfnxrHa51kW+AlmM1NxPB5cQ4Kw2etF5x9A5nOArD2dMr2qoVXqyOG3PTnSXO3VOhH/fX9rSpnF7tox7tjxw67Kkhg4MKXEjD76aefFG3Vy6nUluRFz+6eu7m8MeGeJ8fxGqcoucew9nR2s1yv8w0akIfc9DethzdTrwRTe6tRrlwu4DjeP3zG9dPm/FxiGvXkP3fwWidFX+esXbtW8qsogF9DAQDMduzYIbn7H6vgCbOPzPm5pCz2hvsnciq1zbbZmdpbmZ66NO6e2AHQCypnnTfL9T1NdTZrJ8zxvF/4rBsmz91U1jb0pj8ftNU4V5KXlxdLRIOqbTIoAwUAMBFFsau0tDS4v8d1CQyvnbxsV276i8tGqpycbb4A0dDeZGa5XuXEdmNzGBzvx6nUkhsuGZtrbd7hh+NVwYn3PjVm9vpTR7yGjThj6/EuZjAYXIxG47n+HhcGHxQAwKSjo6NcFMV+63HPa50MY57/187p3xzy8ogeNq6/xjW2NEpexMfxvInjeUzb9g7v7BskeU1JTwPzGsBe03r6jMz+eFP0uLe/36l28+jX9QE1NTV1/TkeDE4oAIBJcXFxW3+N5TkkqfSqDacrQrKvnkRETOcO9FVPQ43kJ0snn4B2wpbbXnMJDpN8amJ3fbVKzlx6QeM3MmvS7PWn9IEZU4/116DHjh3DQkBghgIAmOTl5fVLU/W4Wx7KnfTZ9iCVs0t8f4x3MUNDteRZDmffQBwD3Ac632DJN7eehhpFCi1epQ7NfHVlUsaLy7ZyvIrpdVFv7N69W9GFtzA4oAAAJvv27bPp4jZnb//mGd8eyUu458lxRKRYq9buhmrJDWGcPH1RAPSB1seXoQCo6teZoYuogybMnjZrXUGBS3B4tS0HOnDggOSeFAAXoAAAJqdOnbLZu22f4RmnZ/znmFkXEJJuqzF6y9jSKPnGovX2w3RtHzh5+Ut+gja2Nil+5LLWw3vE9FUHdcHjZh2x1RglJSWhRDTwjjQEu4ICAFgIFRUVNjmZLGrerQcmvLc+nOPto+WpWd8m+cbi5O3HdIywo3Hy8pO8xc3cpZd8XoO8OJ/0l75Iirt1SY4tohsMBp3Vam2wRWxwHCgAQDKLxdJgMplkf+cau+D+PamPvD6apPR0txFTR6vkVx3ODE+0jkjr7Sv5ydZq6PYk+9kjr024+4nxKUte3mWL4F1dXSgAgAkKAJBMr9c3yh0z7paHcpPvfzaL7GzVvKVL7yn1Wo2vvyBnLoOd1t1b+rZSUdSKJNrTmgsu+po7s1MfeX2H3IHr6+vtojUxDFwoAECy2traTjnjBWXNPJJwz5NjyP5+LwWrsUfyAkQnT7s+KdnuaNy92P7+BYGpbbMtRM27ddKQ+fftlzNmSUkJXi0BE3v7ooUBpKamRrYT7jxiEiozXvoimojsr2e+KHaLgvSHeC3rDc3BqF3dmY7gFS1mezx6mUta/NwI/9ETT8oV8Ny5c/3WgAsGJ3wxgWT19fWyrELWuHm2Z3+6RSSO85IjntxEkW1KWe3maVevM+yd2lnHdLS0aLW/GYBfOGe9sTpA5x8sSxe/6upq/F4BExQAIFltba0sXdfGvvb1IV6tiZAjli2IVgvTDUWl1uKLug94jZppFkiwmOxxBuA8jg8Y/956Wc4PqKmpYSqUAFAAgGRVVVXM0/V+I8cf8k4cPUmGdGxGFASmI2Y5tQqfs77gVEyFpWCx2PWuC5egiImRc2/ZyRqnpqZGscZYMDjgiwkkq6qqkrwynoiIOE7MePlLVyLq7/7tfcKRyLSKn1Op8TnrA45nKwBEq9XuG+SkLPlHDK/RMBWWNTU1vnLlA44JX0wgWWNjI9MRt+HTrz+i1rkmyJWPrQhWgWlfOY8CoE84nmcsACx2XwDwanXEkBsWH2KJ0dzcbJdrZmDgwBcTSNbT08P0DjLhrsdl20VgS6IosN1QVGw3NIfDcUxrJgSrZUD0XRhy42KmroVGoxFrS4AJCgCQzGg0Si4AVM4uFl1QeIqc+diMYGW6ofA8ZgD6gnUGQLCY7X4GgIhI4+aR7Owfopd6vclkQmEJTPDFBJIZjUbJX0C+KRmtRDQgjjQVrGwFAOsNzfGwzQCIFvt/BfALLjB9UrPUi0VR5IjIrhc8gn1DAQCSmc1myb8/3vEj7Her1sUYZwCIcVGbo+EYXwGIlgHxZomIiLwT01hv4EwLCcGxoQAAyUwmk+ROZM7+wQPiPS2RDIvKOA4FQB+IREydAK1W00CZASBdYAhTNz9RFDEDAJKhAADJBEGQ/OXFqQfO+iWGLsBERMQRoWVrH3Cs30vigLn/E6di+xyIItsWVXBsKABAMo1GI/mb1tTWMmBuirya8QFetJvjaQcEkWN7r82rmSYQ+pWprYVtfQnH2d/ZGTBgoAAAybRareQvL33F2QHzLc2pGBvTiFYUAH3AiSLTS3xepRowxaW+4izT7xbHcQPmcwT2BwUASMZSADQd3cO0B7o/cbya7T2twNZIyNGIAlsBwGm0A6YAaMrf5cYYAjMAIBkKAJBMq9VKnqrtqa92sxp7ZDkUxdY4nmMrABi3ETocxhkATsVWsPUbUWhoKcgPkHq5RqMRCN/hwAC/PCCZTqczsFxftXWNLMei2hprb3pBwCuAvhBFthkT1QBZYNqYn1MkClbJxYpGoxk4+x3BLqEAAMm8vb07Wa4v+PCFFBJFphj9geN5ts8Jax8BRyMKbDe2gdF50XLszcdiWAJ4eXl1yZUMOKaB8EEBOxUWFia5ixkRkVnf5nXu56/3y5WPzTAWAAOlN729EAWR8fAl+z9+ufHgrt1d1eWhLDECAwOZPn8Adv9BAfsVHBzM9AqAiOjo64+Os5oMp+TIx1Y4xs3aogUzAH3C+sqEcdeGrYmCterA0wtHssYJCQnpkCMfcFwoAECykJAQ5neQotWiO/DEbSYi+90rz/G8C8v1osVkt382e2S1Wpl+r1QqDdMplbZ29LVHaqw9XUxHaRMRhYSEMBfg4NhQAIBkwcHBsrRca8zflVr63ScH5YhlExzvynK5uafbJFcqjkA0G5jOieA0WqaCzZbq9mzcc+6nr9PliBUWFoY2wMAEBQBIFhQUJNvvz4l3n85sPpmXI1c8OXE8x1QAWPSteAXQB+auTsZOgGq7PGWyu7osL+/phePkihccPHDO0wD7hAIAJAsNDdXJGS/3gWvHGprrD8sZUyYaXusk+dQ1Y1uLnLkMeqbOdrZXJrxK1t9LOVh69Ke23zl5uMhwfsbFhgwZYtdrHcD+oQAAyby9vZnfY/6aaLWot96UkWRorjsqZ1w5aFzc9VKvNbY3DYzGNHbC0t7K8mpJ4DjOXbZkZGDt6Tq95Yb0QKuhR9bCJDw83G5fdcDAgAIAJHN2dg7m2Jrk/R9WQ4/TlgXpCd11VXa1JkDj7il5xbWptWlgdKaxE8Z26bvbeLWmg4jsZhGgqb3l+KbrR4aZ2lt85I7t6enpK3dMcCwoAICFLjAwsFXuoILJ6LT1xvS0utyNuXLHlkrj5im5YZGxpREHtvSBsa1Z8tS22tW9Xc5cWOjLz+Rtun7EMHNnO2u///+D4zhBq9UGyx0XHAsKAGASFxdXb4u4omDlDiy9fVzRsv/X3n3HR1Wm/eO/zswkM5NJ7ySBNFKBUAOBJIQmKE0RxQKIsrqy64Moq/vs2kFYdHVXVhZXXZHfouKKWOlIaCG0EBJISO8F0nsy/ZzvH6zPy+VHSeY+M2eSfN6vl/9IznVfaJJzzV2u+53TRNRjjTH6QunhbXEOutZGu9yUZq9YZkwcXdztobOkoWLPjrSjj0+dyBv0VrmsJyAgoI6I8H0FTFAAAJPx48eLPgPwSwXb351y9ImUFnNPV6E1x7kTlc8Qi4/y6dtasFbbB7rWRoun8FU+gZIWi4LJWHN67QMVl959MZkEUU7J3lRcXFy/uEcD7BsKAGAyZcoUq19I0llWELR/QXT41eM/niAiSY4+qX0DLB7X0NbIdIxwsNG3Nln8ydbJL0Cyngsd5QXp++dHeTZmpkVae6yUlBR0AQRmKACAyciRI23y6ZY3GRUZrz+VcmH905cEs/GaLcb8JSdfy9u26xqvib4GPJBp62ssLgDUvoE2vyFP4Pmmy5v/eP7Y4ymJJm23TX4eJk6ciN/dwAzfRMDE15fhzWiB2tTvx+6bG+Fem/pdOhHZrBWq0svf4o1pZr3OhQTBbjan2TttQ63Fx0vVfjb9djQ1ZaefPLAgWln+3aeidPfrrfDwcFGP4MLghAIAmMjlcn8vLy+bvtzMOq36wvpViT8tmdDaUV5gk5MCSg9vpp38vMnYJFYuA5ogdJp6ulwtfVzp7WeT32mG1qbsE0/Nrkhfc/9UY1e7TfsOcBwnuLq6DrPlmDAwoQAAZhMnTqyUYtye+uohxx5PScx4/alsXqcrteZYju5eTAWAsbsTMwC9wBv1TIWS2tvfqk2XeKOhKvvd3104cN+IMW1Fl4Zbc6xbCQ0NreI4zk2KsWFgQQEAzObPn98m5fhXj/84Zu89oWFZb63JMPV05VljDAeNC9NGPn1rI9MFN4OFsaeLaXOb0t3HKj0XzEZDTdGOv57dOyc0oHLP5xOsMUZvzZ8/v0rK8WHgQIcyYJaSkiJ573WB57mqA/+Orzr4FQ27+8HMUas3qhQa1xFixZc5KN1Znu+przG7hkaLlc6ApW9hK5QcnN1E/V4063qK8/65sbX8208nCDwfJGZsS82dOxfXS4MoUAAAs4CAgOEcx5FgxXPPvSYIVHVg1/iqA7soYOrcy6PXvsM7eniPYQ3LyWQ+MoVDB28yWrQ+rb1WifsAekFbV8P0cpMpVb5i5GHs6sjL/eD1nqr9X44nQbCr/3dxcXH+UucAAwMKAGAmk8k8YmJiqvLy8uxqY9LVk/vjrp7cTy4hUXUxT/6hwj/xnmhOxln6SV7u5D+0vqumzKICoKuqDF3beqG7rtLiZUmZg2MLx3F+DMPrOysKc3P+/qprY8aJWIY4VqPRaDqdnJwk2XsAAw8KABDF/Pnza+ytAPhZZ0Wh//lXnvBXqDXmsAd/XRD+wK8dHd08w/oaxzk4sq2rpsyyHKqK7eqGOnvVVVlqcaGkCQxtIKI+X7pj1mnLKvd90VDw/70bZ+xoHW/p+LYwa9asQiKSdA8CDBzYBAiiuPfee6VO4Y5M2m550Y73og8sjAk79sT06msn9x3lTaZeb6hyCYu2uM1sZ3m+6LfBDUTtxTkWN01yCYns9WZUgRfaWnIzzpxZu6Ry75yQsJz3X04wdrTafcvmhx56CB0AQTSYAQBRxMTERMlkMoHnebtaL72VjrK8oedfXTmUk8nIb/JdhcOX/KbNM25iGCeT+9zqGdeQKIvXp3XNDd5E1E5EOL51Gx2Vhd6WPusaGn3bxlCCwLe2FWQXl339sXPt8T3Rgtk02dKxpJKSkoL1fxANCgAQhUwm84qPjy86d+6c1fugi0ngeapLPxRVl36IOJmMfMYmV4QtWVXnMz5pmMzBMeCXX6sJCrO4GyARycw6bY1cpUYBcAuCwDeaujpuWYDdiUto9P/vvgbBbK5vybtQXLrrQ/e69MMjBLPJph37xOTj49Og0WhwlAREgwIARLNy5co6xgKgjYiYjtuxEHieGjJPhDRkngghInIZNrx02NxHKwJmLHJ18guIU3n7M/UC0DXVtWqCQsVIdUAydndcIyKLCwBNQLADEZmNne1lTVmnWip+2OHVkHliOAkCy8ZAMTHNAC1fvryQiEQ55QBAhAIARDR79myml7dM4aAa+7+b92X9+flpvNEg+Q16nVUl4Vc+XB9+5cP1JFc5mT1ixjD1X++sKDSiALi1nqvVXSzP52x5xaujNN9o7GqPECsnMXByhWnU6vVn8j99J9rYYfnt2UuWLOkXy2vQf2ATIIjGw8Mj1tPT0+KWt7zJqHIJi3aad7CsKSBl3iUxc2Nl1vXIm7JOh7PEaM3PchQrn4GoszyP6arn5ktnY41d7XZ13NJz5MS8efuKC4ckz3M0drRaPLshl8uNUVFRmP4HUaEAADEpnn766VyWAPkfbXCVKRyC49d/GjfzizPH1H5BA6btaWv+RZwEuI22/Gy734XfWypPn9bkrXtPJ2/dEyVXO40o/uJ9I0u8hQsXZnMcZ/EGSYCbQQEAolqxYgVTK9b688fG8UZDKRFxzkFh02fvyvSetOmzNIWTs8VH8OxFe3FuqGAyNkidhz0SzObm5pzzQ6XOg5VM4WCIe/6to7O/y5F7joyfQkRyIqGlYs9nTGf3n3vuuX7//Q/2B3sAQFT+/v5xfn5+rfX19Zaul3PVP+2uDp776M/T7U7+U2Ynz91XdK3064/P5f9z4xTeaFSKla8tGTpaVD/ODFLJVU5m19Doq+5RYxo8Ysb0uITFyjVDhrkq1BpfTqHwIiKW0wb2ShDM5kaTtrtJ21Db0VGaZ2oryFa1Flzy6SzPDzB2d3hJnSALTiY3RSxfcybqsd8FyxSKGb/8s8bM9BzeaEixNLZCoTDGxcWJdq8FwM9QAIDYFKtWrbqybt26JEsDFHzy1ojguY/qiej/XvScTD5k+EO/GRL+wFM1RZ/9rbRwx1+nCGaTVW5+szazrkfemn9xaGv+xaHl3//3n8kUDqTy8W92DgpvcRk2vMs5OFKvCQwhtXcAObp7KuUqtbPMQenKyeUeRGQPewqMAm9u443GdrNe22Vobzbomur47qtVQmdlobKzoljTU1vu2VNf7cMbjb40wHaxczIZH75k1dmYX/1hiMxRmXyTLxGufPBaIMsY999/fxbHcf32+CLYLxQAILply5Y5r1u3zuLndc31Pu2lecfdwmOn3fhnnFwRFPX474Iilq+pLN/9SVn+tk0TzXqd5CcGxMKbjNRzrdqr51q1V0PG8dt+rULjIijdvTqUHj5dCieXbgcXtx5HN0+9ysPbKHdylpm62uVEZPGxg6Iv/mbSBIaeMfd0m7TNDQpjZ5va1NnmZOhqdzK0NTvr25pdjV3tDnT96J7FG9z6I5mDgz5i2fPnI5f+T6DMQTnlVl+na6k/315yZRLLWM8+++xtGxwBWErqYyXriehVSx709fVtLioq6tfThgOYEB8ff7W4uNjiTz5uUXFF0z7+KYLu8D0q8HxT7fEfLudsfmm0ob0F3w9gVQqNS+eIVa9lBs9fGs3J5HfsynfhjSfP1x7bY/Gndycnp+7a2lqe4zjcJWGnLl26lJaSknKz2Z/e0hCRJHs8sAkQrIF77bXXSlkCtBdejtS3NFy440AymXfQjEUz7vkx33nWzrNnAlIWXCQiO7iXGAYS94hRV6a8t/vQvH3F5pCFj03rzcvfrNcW1R7fG88y7tq1ay/g5Q/WgiUAsIp77rknWqFQmE0mk8Ub2nLef0WY8MbHvf1ypSYwdHL8+k+INxpKa458W5P7wRsjjB2tODoFFpE5OHaE3v/k+ajHnnNxcHabRER92ohXtGNzPQkCU2vsp59+GrNaYDWYAQCrUCgUvkuWLMliiVF77Id4k7Yrr6/PyRwcw4fd83DK3D0FqmmfHjvilzAzgzgOswLQK15xk/OT//7j0QU/VQkjf/v6rP+8/PuEN5tqS77ayrT2P27cuAIXF5eRLDEAbgczAGA1L730krBz506WENzlv/6xY9zLWyx93tktPHZWwts7STAbrzVlnykv+fIDr4aMY1EsScHA4xYxsjhy+XO1/gl3hciUqhgiimGJV/zZ30p4o5Fp9/+GDRvqiAjd/8BqsAkQrMn8n82ATA1e5u4rynJwdhsrVlKC2VTTeDGtMO+jP3m0F18eS9L/HIAEnIPCiiNX/K4qcNr8IJmjSrSikDcayvbOCQ0SzCaLj2m6uLh0VlVV8RzH4fZIO9efNwFiBgCsSf7ee+9VzJ8/n6kAuLhxtXHSph1i5UScXBHkGz89yDd+OvEmU1VL7rnKst3bPOvPHo7hjUYsiw1QnEwueI6Kzx/+4KqrPhOn+8uVqhFEJPrFQfn/3FgjmE1hLDE2bNhwgeO46WLlBHAzKADAqhITEyd4eXm1Nzc3W/xJpu70oYmG9uZMRzev8WLmRkQkUyiGeY9JHOY9JpGIhJ6eutr82iPf9JT/+K9h2vraYLHHA9tSunk2BMy8v3To7AdM7lFx0ZxMHktEsdYaz2zQF5V+/XEiSwyFQmFctmwZ0+ZBgN5AAQBWxXGceuPGjRmrVq2ayhLn3MuPOyf/fY+ZrNoml3Ny8g8aH7FsDUUsW8MLRkNOW8mVquqfvna4euT7OH178x2PfoG0HFzcu/2nzC4JmnV/h+fIeC+Fk3MU2bD7YPbbz3UIPM/0PfrMM8+ck8vlFnfSBOgtqdc+sQdgEDCZTA2BgYEeer2eqXXv1I8OnfCIHmNxT3VWZoO+tr3oclXd6cNcbeq3YT11NQOqrW1/pHB2bfZPmJUbNPsB3mtEvKfC2TWWiCRpEd1TV3P2p4fGJ7DGqa2tzddoNEybEMF2+vMeAKx3gtUpFArfl1566TxrnHO/f3gECUKzGDlZQu6oDPQcGT859tcvJ9z17wwiNByS3N3fXK4b/+o/UvwmzZyucHYdTRK9/IlId/qFB/1Ygzz88MPn8fIHW0EBADbxzDPPRKhUKj1LDH17q3fZ7n8y9RYQDSfzdQ2NrpI6jcFM4ezaIVep7eKYXF3agVPd1WUW37vwH8I777wzYO61APuHAgBsQqFQ+L7xxhsZrHFyP3hjmlnbXSBGTqwCpi28xvK8zMGxVaxc+iOZg2MXy/P+k2eXkR1cnSyYTTUXNvxmMmucFStWnHVxccG1v2Az2AQINvPUU09Frlu3TqvVatWWxhB4s+L02gdlyf/YbyTppnuJiMg/ea5QsP3PFj8ft2ZTXvCCZaN4o+Gavr21Vd9Q29VVW2boKMtTdlWVqruvVbl1X60MNGu73UVM2ybkKrVO7RPY6BQwrE0TENLlGhbd4zIsQqHyDXRSeXi7ypROfs1ZpwrS1z5g8Zp54KxFHWLmbCEhc+PqBrNOG8QShOM4YdOmTZ5iJQXQGygAwGbkcrnvW2+9lbZmzRqWDTPUkpcZWZd24Ih/8j2zxMrNEq6hkSEsz1fs/WxI8IJlrjIHR1e1tx+pvf3IPXbcTb5S6OGNxkazXttm0vZoTV3tBn1bi0nf1sjrmxtI31wv17c3KY1dXWp9a6PKpO1SmXVaha61UW7q6giwND+Fk3Od0sPHoFCpeYXGVevo7ql3cHbrcXTz0Ku9hpiVnj6Co6evTOnmoXDQuDkqnDRquUrtKlM4+hLHORPR0P/8c1OVB//tZGluRETeoyZJvgm4rSD7eG3qt8zn9Z966qkzTk5Ot7xWGMAacAoAbEoQhPaIiAi+qanJgyUOJ1do5+0vKZOr1JJOmR5ZNrnc4rVfjqOFR2vrenOznCV4g658z13BFq9L3/1dzkWlp+/NKhIx6PfdHSaYtN0qSx5WODm3zztQ6kQSzgIJvLlm//woJ1N3J9Mnd0dHR31NTc01R0fHEJFSAxvCKQCAXuI4zu3zzz+/whpHMJvUp9culhGRQYS0LBZ01wNlFj8sCNRZXlAoYjr9hq6lIdfSlz8R0ZDEObkk7RKQcHHDM1dZX/5ERO+9995pvPxBCigAwOYSEhImjx07toQ1TsuVzJiqQ7vOiJGTpQJTFjD9DFXt/7ek+xikcu3kXqZPPEFzljBtIGTVlJ1+qib1u4mscfz8/BofffRR0TtcAvQGCgCQgnzXrl2i/ALPfmtNsr6lgfl0gaVcgoePII4zW/p81YGvRpPEsxhSKPt2ezjL896jE5jul2Bh1vVcOfPCw/FixPr666/zOY5zFSMWQF+hAABJ+Pj4jHn88ceZX9wCz8uOPZESJPDmGjHy6jNO5usVl2DxsURjd7tG21ibK2ZK9s6s7S7pqiyyeHOi2ifgmsxRJU2zHEFoP/HUXUreaLB4+eJnkydPzouLi2O6NwCABQoAkMy7774b7O7uzjwToG9rGXLmhYdbiMgoQlp9FnrvCqbuhFX7v2RqkNTfXD11sIHl+ZCFy0tJmg3MwqXNf7zSWVUynDWQQqEw7d69myM76GMAgxcKAJCMQqHw/fLLL7PFiNWYeTKuct/nkuwH8J04w4fl+bJvP40lIpNI6di9sl0fDmN5PnDmIuZP35ZovHDiVMX320U5qrd58+Y0tPwFqaEAAElNnjx5ysyZM5lPBRARZb/zQnJnVfFJMWL1hYOLW5TK08/iWQBDW7Obvq05T8yc7BVv0Fe1FV22uGmOzMHBqAkIsXn7X31LY8aZ3z/K3O2PiCgsLKxi2bJlzBsIAVihAACpyXbu3OnEek8AEREJAnf8ienxhs72iyLk1ReyYQuWMRUxVft3doqVjD27ln6omuX5IcnzLv6nyZDN8EZDaepjSaGC2SRG4zTh4MGDzXT97DeApFAAgOSUSmXojh07zokRizcZ1anLJgfzRiPTi6avQuY9wrQmXfzl1mgiGvB7AYp2/NXizX9ERGGLn7RpoSTwfNPRFVPlxs42bzHivfnmmyd8fX1x7A/sAgoAsAuzZ89OWrhwoSj7AQxtzV4nV80xkiC0ixGvN9R+Q8fK1U4WX+5j7Gj16r5aaeuZC5sydnXkdpTlW35jHscZPWPH23L6X3f2xYevddeWh4gRLDo6umT16tUTxIgFIAYUAGAvZNu3b/f38vIS5aXdXnIl7PSLD5cQka0axjiHLlhxmSVA0eebB3RToMof/sV0eY9/wl1ZJJMxXbrTB8bsPz+f1XDhxCgxgjk4OOhTU1P1RGTT5QuA20EBAHZDLpf7Hz16VLSrfhszjo/PeP3JAiLSiRXzdsIeeNKR5fmaw1+PI4FvESsfO6Mv/mrrGJYA5iSDJAAAFcZJREFUEY89Z6t+6Xz+RxtOVe7bKcqmPyKir7766rRGo8FVv2BXUACAXQkODp70yiuvpIsV7+rxPROy//JiJtngmJ3aL2icg4u7xZ9yeaNRVnfmSL6YOdmL9uLL2Yb2Votv/+PkCrNHzFhbvECFki//frJo5xbmG/5+tnjx4owZM2akiBUPQCwoAMDuvPDCCxMSExNFuySn8scdiXn/3HiGiHixYt6CMnTRE0zH+XK3vBJGRBa3FrZXuVvXMd3+GJAy7zLHyZj6LfRG5d7Pj1/58M1pYsULCQmp/uSTT8IIv2vBDuGbEuyR8ocffnD19fUVbTq8+PP3k3M/eP0MWblbYOi9jzMtA3RfrRyibagVZTOkvTBpu4uask5FssQY/shqrVj53IJQ8eOO49nv/E60T/4qlUqXnp7eyXEcri0Hu4QCAOySQqEYkp6eXiWXy0X7NFz61YeJWW8/l0VW3BOg8vaPU3n6XGOJUfDp29aeqbCpst0f17M8L3Nw7HKPGGnN6X9z0WebUy/95cVpYgY9dOhQhkajiRUzJoCYUACA3fLx8Rmzc+dO0fYDEBFV7f9yYsarT2QTkbXOkytinnqZ6XKf6kNfj+ONhnKxEpKSwPPNRZ+/P44lxvAlqzKI49zEyukGhpwtr53O/2TTLDGDvvHGG8dHjx6dLGZMALGhAAC7NmfOnKmvvPLKWTFjXj25P+H02iVlJAhMl/jcytA5Dw5nuSJY4Hl58edbbNrIyFpqj3x72azrYep6F7F0tVVe/oIgdGdueCa7bPdHor6o58+ff/65554T5c4AAGtCAQB274UXXhh/3333ZYkZszHzxOjU5YndvNFQKmZcIiJOrggNnLbgAkuMos/fmyyYTf26CBBI6Lj8/stjWWK4RYwsVGhcmWLcjGA216c/e19VzU+7Re3JP3r06JLPPvssioiY9oIA2AIKAOgPHLZv3z583LhxxWIG7aouHXbg3lhPfWuDqDMMRESxv36Fae8CbzI6lH79sejFiS3VpR24YOxsc2eJEbfmT7Uk8tW/Zr224MjSSabmy2dFvY0vICCgPjU1Vc1Zb7kCQFQoAKBf4DjO5fDhw04BAQGNYsY1dXd6HFo8dkxrXuZRMeM6BQRPVPsG1LHEyP9kU4LAm5liSKj70rsvxrEEkCtVXZ4jJzLtH7hR99XKMwcWxgT2XKsOFDOus7Nz54ULF1oUCoWocQGsCQUA9BsKhSLw4sWL7V5eXqJ2yxPMJtXJ38ydUbTjvXMk3gkBRezTrzJ1NeSNBlXljztE64xoS40Zx8/r25qYLtCJeHR1JnEc0wzCL5iqj3ybeuTRSZPMOq2LSDGJiEilUmkvX75c4uTkJOqMAoC1oQCAfkWlUg3Pyclp9PDwEP2in/xtb01Ke2Z+hWA2VYgRL3DawkiZwoGp70DuP9bFC7yZ6VihzQlC58VNzzIffxv+0G9FuYFP4Pm6cy+tyLr45m9mkiCI+jvPwcHBkJmZmePp6Sn6PgUAa0MBAP2Ok5NTVHZ2drVGo+kWO3ZLbkb0/gXRHl1VpadZY3EKRUDYQ6vOs8Qw67Sa/I829Ku9AJX7d17QNdf7scQYkjIvU652Yj77b2hrzj784FihLv1gPGusG8nlcvPp06cvBAYGirqREMBWUABAv+Tm5jYyKyurSKVS6cWOberudEtdPmVK8c4tp4jxNsHoFS/4EscJLDGK//1BoqGjtV90B+RNxsrL7/2B+Qjc6OfeYvpvRkT6qgP/Pnlw0cg4XVPdENZ8biSTycxpaWmnIyIicNwP+i0UANBv+fr6jr1y5Uqhs7OzVW6Jy/toQ1Lq0sn1xq72DEtjyJWqiKF3PZDJmAp37g/LVNQP7gjIfvv5et5oULLE8BwxvlDp6Tve0ud5g64w7bfzyrLeWjNV4HnRf8fJ5XLj6dOn02NjY9HoB/o1FADQr3l5ecXl5eVVenp6Mt01fytdNWXh++dHjS/Z9WE6kWBRoTHy2TeZXohERC1XLkS35l08xRrHmrSN185WH/6aeTp83MtbW8iyo3+G2hN7Du+9Ozyk5coFq2zIc3R01F+8eDEzOjp6qjXiA9gSCgDo91xdXWNycnKuiXl50H8RBNmVra8npi5LatG3NPS5wY+ji8eowBn3MjcyOvvHZSOJBOv8HdnpzvxuCdO6PxGRR8y4Qk1g6KS+Pmfq6bp08jf3lF147cnZgtnEXHDdjFqt7snJyckJDg5OsEZ8AFtDAQADgkajibp8+XLr0KFDmS6euZ2u6pKgg4tGjb/07gvHeZOpqi/Pjvn9X1SsewEMbc1el/76v6Jdkyym0m8+OdNZWRTKGid+3T/bqC+/lwS+ofiL90/unxcxqjXvYjTr+Lfi4eHRmp+fX+zn5zfBWmMA2BoKABgwVCpVeFZWFjdp0iRrviS5ij2fTds/N9y7+vDuI9TLTYIKtUvMsLuXMLUHJiKq+OFfk9uLLp9gjSMmXXN9Ru6WV6axxvEanZCn9gvq7RKCsSXn3NF986PkeR9vtMpa/8/Cw8OrCgoKWtzd3UdbawwAKaAAgAFFoVD4Hjx4MOiRRx4R9e6AG5n1OqeLG5+Z9dMj8W0dZXnHich0p2finv+zOyeTM1/1m7Z64XjeqC9jjSMGgeebTjx1VzAJAnO73vj123R057V/vvtqxaljK6dXp/3Pwhmmrg4v1nFvZ+rUqTkZGRlqpVIZbs1xAKSAAgAGHI7jNP/4xz/iNm7cmGbtsXquVgUde2L6tNSlk8vbS/OO0G126suVqoiYlb8/wzqmWad1Tn/uAT0RGVhjMRKy3nquVNdc78saKHjBsnNKd+/btv3VtzVdTFu9MP/II5OSOkrzwljHvJPHH3/87I8//hguk8l8rD0WgBRQAMBAJX/mmWeS9+7de9LBweGOn85ZddWURRxfOX3WyVV3F2nra84Q0U0/6Q9f+myUwtm1k3W8ltzzMeXfbEtnjcOi/uyRo9WHvurzhr0byRwcDHFr/nTLDYT61sYLp9cuuXTw3hHjWi6fY24OdCccx/Hbtm07tnnz5olE5GTt8QCkggIABrSkpKSpRUVF+QEBAQ22GK81Pyvm8JLxk4+umFrdnHMunYj+6+ggJ5N5x7/20UUxxrr8/kvTW3LPS7IfoKeuOv3cH5dPEyPWqGc3pcsclCE3/GtDV1XJ0ZO/nZtz8L6RExozT9hk/d3V1bUzOzv7/OLFi6cTfj/CAIdvcBjwPDw8RuXm5srnzp2bZ6sxOysKg0/9z8LEgwtju2qPfn9E4Pn/O53gO2nGFPfoMaKs4Z96dtEUbWPdOTFi9Zapq+PS0ceSxgg8L2eN5eQ/9FrIgmW/aNMrtDScPZJ6+IGxDanLE2e0XskcxTpGb40aNaqgpKSkHsf8YLBAAQCDgkwm89q5c2fEX/7ylzSO8TheX+jbm30vrHt61p6ZQZ6Z61elaeur04iIEt/7RsfJ5Myd/QSzyeHIIxPidC31NikCzLqewsOPTBxm1us0YsRLev/7KuI4J2NHa27Rv/56bu+cUKcz/7t0prbxapAY8XvrxRdfTEtLSxvq6Og43JbjAkgJBQAMJg6/+tWvkgsLCy8FBgY22nJggTc71KR+l3x4yYTkQ4vH1F89sfdq4MxFokzf80aj+sgjk0ZoG65atQgwdLVd/mnJOC9jR6uHGPF8xiefas3P6vrp0YkV+xdEj8z/9O1JZp1WJUbs3nJzc2s9f/582ssvv5xMRKIUNQD9BQoAGHR8fX3H5OTkyJcvX858Lt8SuqZrQVlvrZlV89PuGUTEdF3wz8w6rfNPD02Y0JSdflKMeDfqqi49f/j+0VH69lZRruglIlNjZlpSxutPzuyprbT6jv6bmTVrVmZpaWlnZGQkevrDoIQCAAYlmUzmuWXLlglHjhw55erqynTjHyMHsQIJvFmevub+qcU7t6QRkVhXJRurD+06kbo8caJZrxOzxa5CxFh9olKptLt27Tq2e/fusQqFYphUeQBIDQUADGoTJkxIKisr61m5ciXrjX12I++jDclHV0yt6qqpKGeJ011T0ZS2euGVi39anUKCzbZNWNVdd92VVVlZeXX27NnY5Q+DHnP3LkbriehVSx709fVtLioqsmoXMBhcKioqsubNmze0trZWrGluqfHE9pIzkYSf1MXk5ubW9tVXX2UmJCTgxQ+iunTpUlpKSgrLMpKGbjgubCv4QQD4j5CQkLG5ubmK119//ZRczt6y1w6w/nz3+5c/x3HC6tWr08vKyvQJCQkzCb/zAP4PfhgAfoHjOPfnn38+qaampnLx4sU5UucDlps8efKV8vLyy2+++WaiXC5nvqoYYKBBAQBwE2q1OnTbtm2jcnNzMyIiIqqlzgd6LyAgoD41NTXtwIED0bjBD+DWUAAA3EZQUFB8RkaG7969e08OGTLEpr0DoG88PDxav/jii2NXrlxxHj9+fDIRMXcqBBjIUAAA3JkyKSlpan5+vuvhw4dPDxkyxCb3CkDvaDSa7q1bt54oKyvj5s2bN53jODT0AegFFAAAvaecOHHilLy8PM2XX355ws/Pr1nqhAYzNze39g8//PB4TU2NfunSpSkcx7lLnRNAf4ICAKCPOI7T3HPPPSmFhYUup0+fTo+LiyuVOqfBJCAgoH779u0nKioq6OGHH57GcZyn1DkB9EcoAAAs5xgbG5t48uTJ0Nzc3Iy5c+dekjqhgSwhISH//Pnz6Xl5eZ6LFi1K4TjOTeqcAPozFAAA7GRBQUHxO3fuHF1fX1++devWE76+vlgeEIGLi0vX2rVr04uLiy8ePHgwJjIyMpFEbJ8MMJihAAAQkVKpDF26dGlKUVGR8/nz588sXLgwWyaTDYw+ujaUkpKSe+LEibSqqirutddeS/Tx8RkndU4AA02/7/QFYKeUkZGRk3fs2EFms7nuzJkzRZs3b/ZITU0dKQiC1C247VJcXFzp888/XzN37txhSqVypNT5AAx0KAAArEwul/snJSX5JyUlkclkqj158mTJ+++/752WlhZjNpsH7Swcx3HC+PHji5599tlrc+bMGaZUKsOJKFzqvAAGCxQAADakUCgCZ8yYEThjxgwSBKGlvLy88Pvvvzdt3749orq62l/q/KxNo9F033fffXkrV67UjRkzJlwul0cRUZTUeQEMRigAACTCcZxnWFjY5LVr19LatWuF7u7uwqysrPp9+/Y57t27N2QgFAR+fn5Nc+bMKb3vvvu0EyZM8HZ1dY0honip8wIAFAAA9oLTaDRRSUlJUUlJSbRp0yYymUxXy8rKKk6ePGlKS0tzOXfu3NC6ujq7varY09OzddKkSZXJycntKSkp8oiIiCBHR8cQIrLbnAEGMxQAAHZKoVAEREZGBkRGRtKTTz5JREQ8zzc3NzdXFRYWdubl5QmXLl1S5+fne5SUlAzp6OhwtnZOarW6OzIy8tqIESNaR4wY0RMbGyvExsY6e3t7B8nlcn8i8rB2DgAgDhQAAP2ITCbz8vHx8fLx8aGkpKT/+jNBEFp1Ol1jT09PT3t7u66pqcnQ2Ngo1NTUODQ1NTlrtVqnpqYmF5PJ5NTT06PUarUypVLJOzs7G+RyudbT07PD2dm5x8PDo2vo0KF6X19fmaenp8Ld3V2t0WicVCqVt0wm8yKi4dL87QFATCgAAAYIjuM81Gq1h1qtJi8vLwoLC+vto45E5ExEPtbLDgDszaA9ggQAADCYoQAAAAAYhFAAAAAADEJSFwC8pQ8ajUbsXwAAAEkZjUbWEBa/B1lJXQD0WPpgW1ubKxHpRMwFAACgT2pqaswMjxtJwveY1AVAp6UPCoLAmUymRjGTAQAA6IuSkhKW2WiL34FikLoAYHqBFxQUVImVCAAAQF99++23QQyPS/ohVuoCoIjl4W3btmEfAAAASEKn05Xl5eWFMIQoFCsXS9hDAWDx+snOnTvHmkymahHzAQAA6JXt27fXMIaQtACQSzk4EZmIaBERWXTrmdlsluv1+rzp06cPFTctAACAWzMajdULFiyIMZvNLO/R94goX6yc+krqGQAioqMsD2/ZsiWhsrLynFjJAAAA3IHhkUceaTcYDA4MMXgiOi5SPhaxhwLgJ5aHeZ7npkyZMqqnp0fSqRQAABgUhLfffjvjyJEjIxnjZBFRsxgJWcoeCoAjRFTPEqC7u9spKioqsKam5rxIOQEAANxIt27dujObNm1KFCHWThFiMJF6DwDR9WmQICJKYAliMBgcP/rooyE+Pj6nxowZ48pxnFqc9AAAYLBrbGzMmj9/vuG7774bLUI4MxGtJKIuEWJZjJNy8F+IJqIrJNKMhIeHR/v69esvLVy40NPNzS1WrLgAADB48Dzfmp+fn//OO+84ff/992NEDP01ES0RMZ5F7KUAICLaRUQPih3Uzc2tOzg4uD48PLzL3d3dnv6+AABgZ0wmk1BbW6soLS31rKmp8WHc5X8zAhGNI6JskeP2mT29EOOI6CLZx7IEAACANXxLRIulToLIvl629UTkTUSTpE4EAADACrREdB8RtUmdCJH9rY2/SkRXpU4CAADACtYTUbnUSfzMnpYAfpZCRKlkX7MTAAAALE4Q0UxiaH8vNnt8yVbS9aOBM6ROBAAAQAR1RDSbiDqkTuSX7LEAICJKo+u9AcZJnQgAAACDTrr+8i+WOpEb2WsBQES0n4jGEFGU1IkAAABYQEfXN/2lS53IzdhzAcAT0W66PhMwVuJcAAAA+qKNiOYR0TGpE7kVey4AiK4XAXuISElEiWSfmxYBAAB+qZyI5hBRhtSJ3E5/eqHOIqLPichP6kQAAABu4QcieoKIWqVO5E7srQ/A7Ryh60sBX0qdCAAAwA3qiOgxIlpE/eDlT2T/SwA36iKib+j6KYEour4/AAAAQCpdRPQ3InqYiPrVlfT9aQngZmYS0fN0fa1FIXEuAAAweNQQ0XYiep+ImiTOxSL9vQD4mR9dr77uJqJkItJImw4AAAxAxXS9U+03RHSUrm9U77cGSgHwSw50vX9ADBFFE9EQInIhIjcpkwIAgH5DT9en9puJqIyICojoEl3/1A8AAAAAAAAAAAAAAAAAAAAAAAAAAAAAAAAAAAAAAAAAAAAAAAAAAAAAAAAAAAAAAAAAAAAAAAAAAAAAAAAAAAAAAAAAAAAAAAAAAAAAAAAAAAAAAAAAAAAAAAAAAAAAAAAAAAAAAAAAAAAAAAAAAAAAAAAAAAAAAAAAAAAAAAAAAAAAAAAAAAAAAAAAAAAAAAAAAAAAAAAAAAAAAAAAAAAAAAAAAAAAAAAAAAAAAAAAAAAAAAAAAAAAAAAAAAAAAAAAAAAAAAAAAAAAAAAAAAAAAAAAAAAAAAAAAAAAAAAAAAAAAAAAAAAAAAAAAAAAAAAAAAAAAAAAAAAAAAAAAAAAAAAAAAAAAAAAAAAAAAAAAAAAAAAAAAAAANBf/D9ZYEToIxjqCwAAAABJRU5ErkJggg==;" parent="1" vertex="1">
          <mxGeometry x="100" y="470" width="122" height="122" as="geometry" />
        </mxCell>
        <mxCell id="59yADgTFWXwvZRfuQB0F-43" value="&lt;b&gt;https://cloudmancermedia.com&lt;/b&gt;" style="text;html=1;align=center;verticalAlign=middle;resizable=0;points=[];autosize=1;strokeColor=none;fillColor=none;" parent="1" vertex="1">
          <mxGeometry x="61" y="460" width="200" height="30" as="geometry" />
        </mxCell>
        <mxCell id="59yADgTFWXwvZRfuQB0F-48" value="" style="shape=image;verticalLabelPosition=bottom;labelBackgroundColor=default;verticalAlign=top;aspect=fixed;imageAspect=0;image=data:image/png,iVBORw0KGgoAAAANSUhEUgAAAgAAAAIACAYAAAD0eNT6AABUcElEQVR42u3dd5yU1dn/8c+ZLXRYehVRERCwd8VeEntJNBqjEYVdUGOMJiZ5fnmeEJOYmKLGWFjQYNQkBmusMdgrqNgFVJTeyy5lF9gy5/fHWQIsW+a+5545U77v12teC8tdrntc91xzynUMIpLRbDlFFNKTenph6YWhBEsJlq4YSjCUAF2wdADaAx2AYqALUNjwdXsdgaJG36sFNjb6XiVQD6wDaoAqoBpDFZZKLJUYKhuOq8BSCaykiFUsYqWZQJ3v905Emmd8ByCSz+xf6MkWBlDALlgGYhhAnAHE6I+lF9Cz4ZWNVgErMazCshjDEiyLsSwgxiIsi00Zq30HKZKvlACIpJCdSgHrGEg9g4E9MA1f+e/Xdr5j9GwTMBf4EstcDHMxfEk9c1nBQjOBuO8ARXKVEgCRiNh76Ec9w4ERWIZjGIFlP1yXvARXg0sOPgVmAZ9imEUJc8z51PsOTiTbKQEQCciWU4RhCHEOxDS8LPvjxt8l9WqBL4CZGGZimQm8Z8qo9h2YSDZRAiDSAjuVAioYDhyK4TAshwB74SbXSeaow/USvI1lOpYZrGCWhhBEmqcEQGQ79jY6U8woDEcChwMHAZ18xyWhrAfeAaZjeIMCXjeXs8F3UCKZQgmA5DV7D52o51DgRGBUwyf8oiQvK5mpHvgMeB14HnhJqxAknykBkLxib6Yd7RmF4STgJGBf9P9BvooDHwLTMEyjiNfNaDb7DkokXfSLT3Kenci+GL6Ga/BHAW19xyQZaRPwGoZpWJ4zZXzsOyCRVFICIDnHTqEttYzCcgZwNjDQd0ySlRYAz2F5ijZMU++A5BolAJIT7O10p5izgDOxnIjW3ku0qrD8hxhPEOMJM4a1vgMSSZYSAMlatpweWE4Fzmvo4tfkPUmHegzTgYewTDVlLPMdkEgYSgAkq9jJ9Kae8zGcDxwBxHzHJHmtHngDmEoRU81lrPIdkEiilABIxrM3044OnI7lEn3SlwzmegYs91HIP1RzQDKdEgDJSHYChfTj68S5GMMZaNMcyS7VwBPAA3Tl39q7QDKREgDJKPZOhlLAhcBoNHtfcsMy4CFi3GPG8pHvYES2UgIg3jVU47sAy2hc+V2R3GR4gzhTqOef5ko2+g5H8psSAPHGljMMw6VYSoGuvuMRSaMNwD+w3GnG8aHvYCQ/KQGQtLJTKaaCs4BSXP19kXw3E5hEFfeba9nkOxjJH0oAJC3sPfSjjitwDX9P3/GIZKCVGCZhuVO1BSQdlABIStlyDgDKgEtQDX6RRNQA/8JyixnHW76DkdylBEAiZycQow/nYvgBrliPiITzOpZbWM7jZgJx38FIblECIJGxUylmLRdg+CkwzHc8IjnkKwy3UUS5NiWSqCgBkKQ1LOO7DMuPgP6+4xHJYSuAiRRzqxlNpe9gJLspAZDQ7N10I84PsHwP6OI7HpE8UonlNuLcaq6gwncwkp2UAEhg9na6U8T3gO8DJb7jEcljGzHcQYzfaYtiCUoJgCTMltMDuAq4Bn3iF8kkG4G/EONGM5YVvoOR7KAEQFpl76AjBVzZMLlPDb9I5nI9ApbfmDLW+Q5GMpsSAGlWQ9W+S4EbgN6+4xGRhK3B8nva8CetGpDmKAGQnTRsxTsay/8BA3zHIyKhLcTwC0r4q7YklsaUAMgO7CROxHIzsLfvWEQkMnMwXGtKedZ3IJI5lAAIAHYiw4nxeyyn+o5FRFLE8hSGa0wZX/oORfxTApDn7F30x/ArDJcAMd/xiEjKbQH+xBZ+ba5mve9gxB8lAHnKllOE4QosvwQ6+Y5HRNJuDYZfUsLtmh+Qn5QA5CE7kRMw3AYM9x2LiHj3PpZrzDhe9R2IpJcSgDxiy9kD+A1wnu9YRCTDWJ6igKvNWOb5DkXSQwlAHrDlFAE/Av4XaOs7HhHJWJuACSzjZjOBOt/BSGopAchxdhL7YbkbONB3LCKSNT7CMMaU8o7vQCR1lADkKHsz7ejIz7H8ECjwHY+IZJ064E7a8T/mEqp8ByPRUwKQg+xEjsYwGRjiOxYRyXpfYSgzpTzvOxCJlhKAHGKnUEINNwFj0X9bEYnWQ9Qy3lzFGt+BSDTUSOQIO5EzMNwF9Pcdi4jkrBVYrjfjuM93IJI8JQBZrqGS30QMp/uORUTyhOFfWMabMpb5DkXCUwKQxewkzsEyGejuOxYRyTuVGMabUh70HYiEowQgC9mbaUcHfgtc7TsWEcl791PHFeZKNvoORIJRApBl7EQOwvA3NMNfRDLHPCwXmXG85TsQSZwSgCxhLYbJXI3ld0Cx73hERBqpA35NV36pzYWygxKALGDLGQjcBxzjOxYRkVa8RYyLtKdA5tP+7xnOTuSbwPuo8ReR7HA4cd63k7jIdyDSMvUAZCh7G51pw+3Axb5jEREJxXIv9XxPEwQzkxKADGTvZCgFPAoM9x2LiEiSPsdwrinlU9+ByI40BJBh7CTOpIAZqPEXkdwwBMtbDcOZkkHUA5Ah7FQKqOTXWK5H/11EJPdY4M8s4zozgTrfwYgamoxgy+mB4e9YTvIdi4hIir1CjG+ZsazwHUi+UwLgmS3nAOARYJDvWERE0mQx8E1TxgzfgeQzzQHwyE7kEuB11PiLSH4ZALxiJzHWdyD5TD0AHtjbaEMxf8boh19E8t79VFFmrmWT70DyjRKANLP30I86HgcO9h2LiEiGmEEdZ5srWe47kHyiBCCN7F2MJMbTwEDfsYiIZJglGE43pXzgO5B8oTkAaWIncSIxXkeNv4hIU/pjedVO4hTfgeQLJQBpYCcyGsszQBffsYiIZLBOWJ6w5ZT5DiQfKAFIIWsxtpwJGP4CFPmOR0QkCxQCE205f7JWw9SppDc3RRpm+t+D0Y5YIiIhPUQxl5jRbPYdSC5SApAC9m66Uc+jaAtfEZFkvQmcZcpY7TuQXKMEIGL2TnangKeBYb5jERHJEXOxnGrG8YXvQHKJ5gBEyN7FIRQwHTX+IiJRGozhNTuZA30HkkuUAETE3sWxxJgG9PQdi4hIDupNnJdtOcf5DiRXKAGIgJ3IGcR4FujsOxYRkRzWEXjKlnOy70BygRKAJNmJfAfDo0Bb37GIiOSB9sCTdhLn+A4k2ykBSIIt5wcY7sOtWxURkfQoxvJPO5Fv+Q4kmykBCMmW8yPgZrSSQkTEhyIMf7MTudx3INlKCUAIdiI/Bn7nOw4RkTxXgGGyLeca34FkIyUAATWU9v2t7zhERARwvbC32HJ+7juQbKPu6wDsJH6J5We+4xARkSYYbjKl/MR3GNlCPQAJsuX8Wo2/iEgGs/zYlnOD7zCyhXoAEqBP/iIiWeWnpkxDta1RAtAKO4n/w/IL33GIiEgAluvMOG72HUYmUwLQAlvOdcAffMchIiKBWQxlppTJvgPJVEoAmtGwrOQW33GIiEho9VguMuP4p+9AMpESgCbYSVyM5a/o/RERyXa1WL5hxvGk70AyjRq4RuxEzsLwMCrvKyKSK2ownG1KedZ3IJlECcB27GSOJ87TaGMfEZFcU43lFDOOV30HkimUADSwd3EIMV7AbTcpIiK5Zx0xTjBjmek7kEygBACwk9mNONOBXr5jERGRlFpNAYebMcz1HYhveV8J0N5NN+I8ixp/EZF80IN6nrR30tV3IL7ldQJgp1JMHQ8BQ33HIiIiaTOMAh63t9HGdyA+5W0CYC2GCu7GcLzvWEREJO2Opg33Wpu/Q+F5mwAwiV8BF/sOQ0REvLmASfm7jXBeZj52Epdhucd3HCIi4p0FRpsy/uo7kHTLuwTA3sWxxHgOKPYdi4iIZIRaDKeaUp73HUg65VUCYCcyHMMbQInvWEREJKOsB0aZMj72HUi65E0CYMvpC0wHBvqORUREMtJ86jjcXMly34GkQ15MArRTaAv8CzX+IiLSvEEU8Fi+LA/MiwSAWm4HDvYdhoiIZDjDYbThT77DSIecTwBsOaVYLvcdh4iIZI0yOzH3242cngPQsMHPq5Af3TkiIhKZzViOMuN413cgqZKzCYC9ne4U8S4wyHcsIiKSlRYCB5oyVvsOJBVycgjATqWAIv6OGn8REQlvIPCgnUqB70BSIScTANbyW+Bk32GIiEjWO4EKbvAdRCrk3BCALeds4NFcfDYREfHCYjnfjONh34FEKacaSXsnQyngbaCz71hERCSnbMBymBnHLN+BRCVnhgDsbXSmgH+hxl9ERKLXCcND9g46+g4kKjmTANCG24GhvsMQEZGcNZwibvUdRFRyYgjATuSbGB7yHYeIiOQBywVmHP/0HUaysj4BsJMZQJwPgW6+YxERkbxQCexryljoO5BkZPUQgJ1AjDj3ocZfRETSpwS4P9vrA2R1AkBffgoc5zsMERHJO0dTwXW+g0hG1g4B2MkcSJw3gWLfsYiISF6qJc4oM563fQcSRlYmAPY+OrCJmWjWv4iI+DWXOvY3V7LRdyBBZecQwGb+hBp/ERHxbzBF/N53EGFkXQ+AncQ5WB71HYeIiMh/Wc424/iX7zCCyKoEwN5Ff2J8CHT3HYuIiMh2VgP7mDKW+Q4kUdk1BFDAHajxFxGRzNMDmOw7iCCyJgGwk7gAy1m+4xAREWnGabacb/sOIlFZMQRg76Yb9cwCevuORUREpAVriDHCjGWF70Bakx09APXcjBp/ERHJfN2xlPsOIhEZ3wNgyzkOeCEbYhUREQHAcp4Zx8O+w2hJRjeqtpz2wEfAHr5jERERCWAF9exlrqDCdyDNyewhAMMvUeMvIiLZpzeF3Og7iJZkbA+AncTBWN6C7N5tSURE8lYcw1GmlDd9B9KUjOwBsBMobJhEocZfRESyVQxLuS2nyHcgTQeXifpyPbC/7zBERESSNBLLtb6DaErGDQHYcvYAPgHa+o5FREQkAtUUMNyMYYHvQLaXiT0At6DGX0REckd74vzBdxCNZVQPgC3nZOA533GIiIhEzvB1U5o5bVzGJAB2KsVU8BEw1HcsIiIiKTAb2NeUUes7EMikIYBKrkONv4iI5K69sHzPdxBbZUQPgL2L/sSYA3T0HYuIiEgKrSfGkEzYLCgzegBi/Bo1/iIikvs6E+cG30FABvQA2Insi+E9MiUZERERSa16YH9Txsc+g/Df6Br+kBFxiIiIpEcBllt9B+G14bWTOB040febICIiklaG4+0kvuY3BE/sBArpy0fAXj7fABEREU8+oSv7mfOp93Fzfz0AfbkMNf4iIpK/RlLJxb5u7qUHwE6hLTV8Duzi68FFREQywAK2MNRczZZ039hPD0AtV6HGX0REZFfaUObjxmnvAbD30Ik65gK9fDywiIhIhllFIXuYy9mQzpumvwegnutR4y8iIrJVT2r5frpvmtYeAFtOD+AroFO6H1RERCSDraOe3cwVVKTrhuntATD8EDX+IiIijXUhxjXpvGHaegDs7XSniHkoARAREWnKeuoZlK5egPT1ABRyHWr8RUREmtOZgvTNBUhLD4C9m27UMx8lACIiIi1J21yA9PQA1HMtavxFRERa04UCrk7HjVLeA2BvozNtWACUpOOBREREslwFdQw0V7IxlTdJfQ9AG65Ajb+IiEiiulLA6FTfJKU9APY22tCGeUDfVD+IiIhIDpnHMoaYCdSl6gap7QFow6Wo8RcREQlqN/pyTipvkLIEwE6lALgulcGLiIjksB+l8uKp6wFYyznAnqkMXkREJIcdbMsZlaqLpy4BMFybsmuLiIjkh5T1pKdkEqCdzIHEeTd174eIiEhesMQYYcYyO+oLp6YHIK5P/yIiIhEw2NQUBoq8B8DeQz/qmAcUp/xtERERyX2biTHIjGVFlBeNvgegjitR4y8iIhKVtsQZF/VFI+0BaCj8swjomba3RUREJPetZAsDzdVsieqC0fYAFHMeavxFRESi1otizo3ygtEmAIbxaX07RERE8oWJdhggsiEAO5l9iPNh+t8RERGRPBFnbzOeT6K4VHQ9AFaf/kVERFIqxtioLhVJD4C9g44UsgTo7O1NERERyX3raEd/cwlVyV4omh6AIi5Ejb+IiEiqdWEz50VxoWgSgDiXeX07RERE8oVldBSXSXoIwN7JUAqYHcW1REREpFWWAoaYMcxN5iLJ9wAUcDlq/EVERNLFUM+lyV8kCXYChfRlIdDX97shIiKSR5bQlV3N+dSHvUByPQB9OAU1/iIiIunWn0pOTOYCySUAhot9vwMiIiJ5KZ5cGxx6CMDeQyfqWAG08/0eiIiI5KEq6uhjrmRjmJPD9wDUcS5q/EVERHzpQAFnhD05mSGAb/t+chERkbxmuDD8qSHYu+hFjCVAoe9nFxERyWO11NLXXMWaoCeG6wGIcQFq/EVERHwrojBcaeBwCYDhfN9PLCIiIgDhEoDAQwD2Dvo07PwX3VbCIiIiElY9cfqZ8awMclLwRryIc0OdJyIiIqlQQIwzg54UvCGP8w3fTyoiIiI7CNw2BxoCsLfTnSKWowmAIiIimaSWenqbK6hI9IRgPQCFnIkafxERkUxTRCGnBzkhWAJgONv3E4qIiEiTAs0DSHgIwN5GG9qwGujo+wlFRERkJxvZQg9zNVsSOTjxHoBiTkCNv4iISKbqSFuOSvTgxMfzTbCxBRGRvFbcGQraQVGHbd/bUgn1m6Buk+/oJFdZTgOeT+TQIBP6TvX9XJKj2veDkmFQMgQ6DoR2faBdT2jbE2KFQAyKu0BdFcRroL4GajfAppXuVb0E1s2Fik9gw3ywcd9PJPnCxKD7vtDrMOg2EkqGQ6ddoX1fKGjb/Hk166F6qft5XfsxVHwKaz+BytlQV+37qSS7nQn8IJEDE5oDYCezD3E+9P1UkgMK2kCfo6D3EdD7MPeLs03X6K5fVwUr34alL8KSF2DlDCUEEq3CdjDwdNjjW9DvOGjTLbpr2zisn+t+dhc/B0tedMmuSDB7mTLmtHZQYglAOdcDN/l+IslS7XrBwNPcL80BJ0NRGqeSVC2GL/4Gn//VfbqKWqfd4NDfQuc9Wj7Oxl1vxcYFMOcvsHpm+t6DHRj332DIxdBhQMv/LWqroGoJrHoHZk/0223d6zAYNsa9z8WdWj62ZoP77/35vdHG0HkP2PsaGPJdKOqU9OUSEq+F5W/Awqfhy3+4/x4irfuBKePW1g5KNAGYBpzo+4kki7TvC3teDLudAz0PcV2lXlmY/zjMvAHWfBDdZU9+HAadFeyceC38+zRYPC39b8OxU2DIpcHPW/EmPHmsiz3dRlwFR/452Dk2Dv8cAuu/TP7+HQfCITfCHhf6/Tm2cVj0LMz8hUvKRJpjeMaUclrrh7XCTqEtNawF2vl+JskC/Y6Fkd93n/ZjmVgzysKcu2H6j6BmXfKX+8b70H2/4OdVzoapw9P76N33c/GG9do4mF2e3pjb9YZvz295PL05T53ghoLCihXC/v8P9vtJuPunjIXP7oW3roWaSt/BSGaqYgvdW1sO2Ho6W8PRqPGX1gz4Gpz1Jpz+Egw6O0MbfwADw8bCeZ9C36OTv9z6r8KdV7KX69ZOp8HfTu78PS9Ob7xb7xm28d0Q8r8NQJc94cw34MAJGdb4AxgYOhrOfDXa+QeSSzpQxOGtHdR6AmA5yfeTSAYrbA8nPQyn/ht6t/rzljk69IfTpoXrDt/eyhnhzx18YXqfebck9/HqdQgUdkjuGkHt+Z1w521c4GbYhzHga3DO2+55M1m3veHoSb6jkEwVa73tbj0BMEoApAUnPZx8w+JLrNiNie9VFv4ai54Jf27/E9L3rB0GQOfdk7tGrAh6HZq+mNv1hu77hDt30b/DnTfkUjjlaSguSd9zJmPQOW4ZrcjOkksA7N10A/b2/RSSoToNgl1O8R1F8kbd4YYtwlj7SfhPml2HuxUS6dA34eJg6blOIvodR8ANS7dZ8FTwcwZfCMfcDaYgfc+YLBNzwxUiOzvQTqGkpQNa7gGo5+hWj5H81WEX3xFEwxTA8Q9A58Hhzl/wRNgbQ99j0/OMfUZFc53eR6YnXoD+x4c7r3YjLEmoENo2vQ6DY+/NrsZ/q+LOviOQzBSjhiNbPqBlEcySkpyVS794Cju44YAwDcCCJ8Pft99x6Xm+yBKAw9M3wbNfyARg8XNQvznx49v1ckNZseL0PJdI+rTYhrf2f/IxvqOXDJbKNdG1G90yvfotLtEo6pj62dh9RrlZ50ELyCx7xcVa3CX4Pfsdm9pnAjee3XVkNNcq6uiWE656N7Uxd9y19eJKzZn/r2DHH3GbmxQalXgNrJ/nKvptXNTwc7zZ7QEAUNTZJZptukLbHtBliOvGL2iTmvdS8lmLbXizCYC9jc7Avr6jlxy2/itXB33tx7D2I1cPvXqZ+4XZVPneWKFrZDsOhM57ulnafUZBz4OjS0YOmuAqrtUntJumE691k872+Fbw+5UMc5O4qpem5C0GoM8R0SZrfUalPgEI2zMSr3NV8xK1yynh/rs1VjHLFZpa9G9Y+ZaLIwgTcz/X3fdzk0P7He/miIgk50B7D53M5TRZT7r5HoBiRgFZOCAmGWvzKlf9bvE0WPyf4I1evA42r3Gv1e/DV1Pd9zv0d8vFRl6d/Izojru6Uq+zAy6vWvBE+Iak37Ew9+/Jxd2SqLr/t7/ex7emLl4IP/6//FXYsjbx4w/+ZXJxrn4f3ruhodfBhr+OjbvJpBvmu0QCoH0fGHiG+3ns08JQbhQFrSRXFVLLYUCTZUdb+lgQ8W8NyTm2vvVjqpbAR3+ARw+C+/vAixe5LvYoP/FWLYEPboJ/7OF+GSdbrnav0uDnLHo2+Ke+rVI9DyAVCUCqhR3/39p4JqL/CdDjwJABWvjoZnj8kIZ7JtH4N6d6OcyZDE+Mgn8Ohfdv3HkvgLpqWPNR9PeW3GFodulOYQsnpblMmWSd6hVNf79mPcx7BL54AJa9nL7d+Oo3w7s/h2WvwkmPhBuTB9co9NjffbpL1JYKWP5auMY8lfMACtq4vRii1K63G7Ne90VqYi4ZGnJM3gYb/0+mCNSMH8OHv0/N8zdl3efwzv+DmT93wxb9T4COg1xZa5UDlpY1W7yjyR4AO4EYEDY1lnyx5n239S40jL0+Ay9+Gx7oA69c5uqw+9iKd8kLMO0b4T+RA+wacIMfCL8aoPNg6JiiJZU9D07N5LJU9gKE/fS/+n3YuDCxY2NFbofKMBY+Ax/+IXXP35J4nfs5e/Ma+M/ZsDBEvQPJN4c2tOk7aXoIoD8jgRxa4yUpYeOue3LqMJjS0e1wN/cffreN3WrJC/Dh78Kfv8vXg58Tuh4AqRsGSFVDnYkJQJBP/z0PcrPww3j3Z6Sky18kNbrQh2FN/UPTCYAljfU+JavFa6Hys2Cz5tPl/V/BppXhzu15UPBysOu/dLPBw8iEBCDIf8NUJQAmFn5IJMj4f7eQJYbXfhJsaEgkE8SaHtJvbhKgEgDJfnWb4NOA+8hvZQqge4hVsGF7AVJREdDEoPcRiR//2ZTEj+0yxM0FiFq3fdza+KA2zHNLSRO+T8i6CCveiP6ZRVKtmQ/1zfUAZPg2WCIJ+vw+QnfX9tg/+Dlh5wF0GuReUeo6MvFu7pr18Ontwa7fJwVlgcNukDTvsWDHh0kyYOdZ+CLZIbEEwE6hLbCX72hFIrFxIaz5MNy5XUcEP2fl9PDDDmHHvpsTpJt+xZtu+CJI7H1SsDFQ2KGQoD0vRSGnOG2piP6ZRVJveEPbvoOdewA2sw+tlwgWyR7LXg13XpiZ+TYerBLd9qJeDhgkAVj+GmAbvqbg+omIFULfENuPbF4Ny18PeK+QNc7ado/2mUXSo4gadiotuXMCECNEv6dIBgs7aStsVcGw8wCinggYpIFe9tqOXxPRfT+3N0BUeh4MRZ2Cn7fwqcSKUm1v06pwMYbpFRLJBHbntr2pOQBKACS3VM4Od177vuHOWzwt2G50W3UYEN3e7h13TbwHo34LrHrH/Xl5gN6SWKHbRjcq6Vj+t9XmkAnAgK+lflMqkVQwiSUAB/iOUyRS1cvDnRf2021dlatDEEZUvQB9A4zPr3p7W8Ky5qNgteWjHAYIU/+/rtrtKxFU2Ml8xZ3dnhMi2aflBMBOpQCIaN9QkQwRdrOUgjaACXdu2NUAUS0H7B1ghv724+e23k0ITFRUCUBB22BLFrdaPM0lAUEtT2I53wE/C19HQMSffRpXBNyxB6CSPYB2vqMUiVTtesItBTRQGLK7d8GT4e7Z7zhCJx3bC9ID0HjcP8g8gN6HubK6yep9eLiu9SDFf7a3+l2o3RDu3KJOcMrTmg8g2aYj/dl1+280HgLQT7TkHhuH2o3hzjUhF8RUL4VVM4Of174PlAwLft722nRLfC/5pj7xB5kHUNghXL2ExsKM/9v68LXw43Ww7JXw8XYYAGdPhz0vJpKETSQd7I5tfKzRPyb4W0Mky4RNAJLhazVAnyNJuFFqasx/1bvB9nOIYhggzPj/8jfcEsCwZk9OLuaijnDcfXDmK0lsKyySRo3a+MY9AEoAJEd52Lwl7DyAZOsBBCnQ09Sn/fotbmJgooLMN2hKUSe3BDCo+QGr/zW28Cm3j0Wy+hwF574LZ74Ou56BegQkgykBEEmLNR8kvj3t9vodS1KNSJASvc0V0AlSPKnPqOTi7XtUuHkEyey+CG5oKGj54xbfhyPha0/ABZ/DgT932zyLZJamE4CG2YFDfUcnArgGIcoiM76E6QVo2xO6hZyOU9jO7WSYqOYSgCAVAdv1gpIh4d+jMOP/az+C9V+Fv+dWs8tdohalzoPhwAlwwRdwztuw30+hRNXVJSPsZe22bH3bDKf+7EpcKwAkDUzMTVLrto/bca/LEFd0p8MAN4GtsNGPYV0V1Ne4OuybV8LGxVC1GDYugA0LoOIT1xgErQaXDguegBFXBj+v33Fu69mgeh4CseLEjl33efM1Ela85SbKxRKcBNlnVPju9DAJQJjiP02J18Irl8PZMxJ/1iB6Huxeh9zo3p/5j7uhi1XvuB4IkfTqyN30BxbD9glAPYM1dCUpU9wZBp0Du5zidnwLshtbYQf3atMVOu8OvZo4pn6z28ymYhaseR9WzoDV7wWbzJYKS192O+0VB9x8pt9x8EmIrYzDlP9tSu1G9/71SnBj0D6jYM49weNt2z3ctsthl/81ZfV78OFNsP//i+6aTSkZCvv92L2ql8L8J1wysPRliNek9t4iW9UxmJ0SAIMGrCR6vQ6Fkd9zjX9h+9Tdp6At9DjAvfb8jvtevNbtBLhyBhR6Gk6I18Di52D384Kd1/cY11MS9FNi4A2AWvn3IAlAGH2Pdc8ZxMaF4fd3aM67P3c/O7ucEu11m9O+Hwwf5141lbDwGZfULHrWz4oVyR8xBgMvuz9us4fvuCSH9DoMTv2PWys9+KLUNv7NiRW58fARVwb/BB6lMPMA2nQLXm3OFLiCOolqbQe9IPMAOg8Ot3dCmOV/8/9F5Ks6bD1MOy+52gBhFZfA4G/DiVPh4hVuaWG/44MnRiKJ+W9bv+0nTD0AEoU23eDoSXDWGzDgJN/RZIZFz7jx9KCC1gPovg8Ud0ns2OqlsP7Llo9Z/jqBGtowvQBhxv8XRDT+31hdFTx7WnTzC8IobO+KC53+Alz4lVtN0Karv3gk92zX1m9LAKwSAElSn1Fw3scwbKw+vWxv85pg9fW3CpoARDX+v33caz8NcP+A9QDa9wte9XBLRbAlikHVVcG0c2HmL8IlbVHquKtbTXDhV7D//7h5MCLJso0SgIZlAbv5jkuy2Igr4fQX3S912VmYNet9j3bd+omKcvw/6HEQrAARhOv+X/i0m9uRSjYOMyfAE0dBRYAEKFWKS+DgX8MFc2HoZajQkCSp0RDAFHoAHgZpJScc9As48vZoNoXJVWHmARR3CVZnP+oeAAj2abv7vq6qX6LClDxOVfd/U1ZOh0f2gzevhk0r0nff5rTvA8fc4zYiCrKKRmRHneyddIWtCUAtu/iOSLLUwb+CA/7PdxSZb93nUDkn+HmJNpKdd0+892VLhaudkIggPQBBJyEGHf+v3wyL/h3snGTF69xyzH/sDm9+Hypnp/f+TdnlFFd6WFsSS1hFrs13CYBVAiAhDLk09Wunc0mYXoBEE4Ag3e8r3kh8eWHVkmAV9xLthei8O3QaFOy9WPKCvyVyddXwyW0wdTg8frirIFhT6ScWcPMDzngpWNVHka3irs13dQCMEgAJqPu+cHR5tNfcMN+t21/7kfu0XFMJtVXul35NBRQ3zIYu7gQF7VwJ2vb9XNdoh/6uomCXIVDQxve707QFT8C+Pwp2Tp9RrkJdaxPSgkzAS7T7f6vlr7oGO9F4ExGq+t/jwc9JhZXT3eutH8Aup8Kgs2DgaW4FTDq16QanPAOPHxZNWWTJJwNhWyEgJQCSuFgRHHtv4iVnW7L+S/jifvjigdaXpSXCFECnXaHrSFfEptehrjyuzzoAW614y21fG2T8tqgT9DjINTgtCbQD4OuJHwsuYRhyaWLH9jrU/Xy0NlEvaAJg4+F3V0yVuk0w7xH3ihVCn6Nh0NkuIeg4MD0xtO0JJz4Mjx/if9WCZA+7fQ8ADPAdj2SRkd+D7vsld40N82H6D2Heo0Ra1MXWu09D67/aNvPexODc98KVnI2SrXez2Id8N9h5/Y5rOQFo29OVmU1E3SZY9W6w+weZB1DYHnoc2ErCYoJPAFzxVmZMxGtOvA6Wvuheb17tqgoOOsslBKkeq++xP+z9A/jw977fBckWZvs5AAat3ZLEFHWEfX+c3DXmP+5mV897hMgrujXFxsFmyKejVMwD6HMkCS8NWzkjeN35dV9A9bLEj29tGKDrcDdsE0Q6Z/9HYfV7rrzww/u6CYRvXeuqDKZqw6oDJ0AnreSWhPWFbZMAe/uORrLEsDFu7D2sLx6Aad+EmnW+n8SPxc9B/ZZg5/Q5ouXhllSs/0/mvNbiCV3+N0ttmAcf3wJPHgsP9IM3r3EJQpQK28O+1/t+UskevWFbJUAlAJKYoZeFP3fldLf1qpdtezOkeErtRtdNHERhh5Y35UlHAhBk4mBrPRJBx/8rZrlllLlg00r45E/w6IHw6AEuIY6qsNGe30m8FLTku14AMVtOEaBi09K67vtBt73DnRuvg5cv87ftaZGn3QCbEuUwQGEHN96ciHidG0sPI0hBoLY9mi/xawrcTodBZFv3f6JWvw8vXQwPDoYvHyTp4bCijsHnl0i+6mEnUBgjTi8y5uORZLRkNvf58kG/RVQy6ZPRgicJ/Mu+37FNf3/rrPtErHk//Dr6ik9cAaFENdcr0WP/4JvbZMryv1TZuBBeuBCeOhE2r0ruWunazliyXYz+dI/R0BUg0qqgn9y29+WDfmPPpASganHw/ex7HQ4FbXf+firK/zbFxl0BoUQ1F1fQ7v+qJbDynfBxZ5OlL8Jjh7gVMmH1PjzY/hGSz3rHiNHTdxSSJRLtam6sblPwce8oFbZruvH0KegwQGE76H3Yzt9Px/j/VkGGAZqLK+gEwAVPkJaVIpliw3yY9o3gE0W3Ku4C3Ub6fgrJBvX0jGE1/i8JKOoYfOnWVitnuCTAly4JrpFPp1C7Ax67499jhU0nBU2ywQsANRakB6Hz7q464w7xFgdLWCC7Z/+Htfo9mHN3+PO1HFASEaMkhqHEdxySBToNIvRUkU3L/cbePQM3TVn9vhsKCKLxRMDu+yW++17lHFeFMKmYZ7qa+Ilq3Nj3OiTYnvY162DpS8nFnK0+vjX8uekuSSzZydI1hlYASCKKkiiluynJiU3JSqYSW8pWD9jgwwC9DnXrvbdK1/j/VvHa1ksSb693o/0Jgo7/L3rW36oR39bPDV8au21339FLNjCUxIAMmh0lGasowCe3xmrX+42979Hhz23cjR2loMMABW2g9xHb/p7O8f+tgswD6Ntof4Kg4/+5Pvu/NevnhjvPFIY7T/JNFw0BSGKS+aXicwZ+p92S2zI1lbEvfSn4srztlwOmuwcg6HW67b3t/StsD70Sna+A++S/6NloYs5WYatl1m7wHblkg4YhAPUASOuCjP02FnTdd5T2uZakylykMgGo3+JKAwexdR5Alz2hXYIFPDcuhI0Lool55fTEu+VNgVuWBq46YJBtmpe+BDWee458S3R+R2O+e9wkO1hKYlgyqESaZKy6qvDndhzkJ+aSYTBsbHLXSHXvRdB5AD0PdvMSAm3/G9Gnf3CJ4KqZiR+/tZci6Ph/vnf/Q/jVK1Fsqy25z9AhBrRP+kKS+4LOWN9ez4PSvw4/VgTH3BPsU2dTOu2e2jgXPh1sb4RYkZtc1+fIxM+Jqvt/qzAbAwVKACzMD7FMMpd0HuyWUoZR4bHipmST9jGgne8oJAtUrwg/DNB48lo6HH5LNPcMu/dBojavDl6fv99x/noAIFhC0fMQaNsTeh6Y+Dkr34bqpdHGnG2GXR7uvA3zYcta39FLNrC0Uw+AJMjC2k/Cn77399MUp4EjboURV0Zzub5Hpb60atDVALt/080BSMTm1dF/Ilz+uisNnIjCdrDPdcHew3ws/rO9jgPD//wu+rfv6CVbGNcDoARAEhNkDXhju57hNoJJpYK2cOxfYGSEyUabbs1vxBOVoPMAOu+R+LHL3yDyUro1lbD248SPH3FFsOunevy/sD0c9kf4+pNw2O+3TVTMBLFiOP5v4ScALnza9xNI9tAQgASQVFU2Ayc+nLoiJZ13h7PegCGXRn/tvUpTE/NWlXNSt9991N3/Ya4bpDFb93nqd40ccaVbHTLwdNjnh3DWm/DNj2Hva9xwhS+F7eHkR4KXS96qagksVg+AJKxdDMiwXVIkYy1+Lvx2suAa6a896faLj0phezjoBvjmJ+E3K2rNoLOhXYo3zQzaC5CoVCUAQQoCBZGO2f9N/Zx0G+nmjXxnMZz0iEsOYmksqNPvWDj3XXffsGaXQ7wufTFLtmsXA1Q2ShJTtwnmPZLcNXofDue87ZazJaPTIDjkRrhwHhzwv26sOVVixTA8YDd2UGE2B2pNXZXbWCYVUpVYpGP8v6X9CGLFsNu5bnjgO0vhhH+4CXmdBkUfhymAASfBGS/D6S9ByV7hr7VpBXxyW6rfOckthYUoAZAgPr4Vhnw3uWt02g3OmQELn3HXW/FG67sFFraHHge6GfC7ntEwqzxIgR/rJq6FndA38mr4+Jbw1dlas+JN2Lwm2iGSFW+l7hNh9XJY90XikxETvWYy80yi1rYn7HGBe4Erzbv89YYhmy+g8jP3vUS37i1s59b2dx0Bu3wNdjk1uv/eM65P3c+m5KqCQiDFU5wlp6z5wE00Gnhakhcy7hoDT3OV5Va+Axvnw5YKqG0oOtSmK3To59bidxmSXJfsW9dB173CFwZq0xVGXAXv/zoFbyquoV70DOx5cXTXjHr9/07XfzXaBGDhk4mvLvCh82D32p6th6qlrvxuXbWbIFlb5X6mC9q6PTSKu7jJpB13BROLPq6FT8Hn9/t+dyT7FCoBkOCmX+e6LmPF0VwvVtxQ2CZAcZsg3rvBfXrvMAAGfyf8cMHeP3A9FslURWzJgiejTQBS1U2//fXDrldvSjYu/zMF0HEXf/evWgwvjybylR6SDwpiKAGQoCo/g/d+5TuKxHx0M7z7c/fnqsUw647w12rbHXZNYpJWaxY/F932t/EaWDkjdbFCtAlG7UZY8kJq490qV7YYrt0Az53taj2IBFeoBEDCef/GJJcFppiNw/Qfud6K7X3w2+TGSsOuz05EzXpY+nI011o1M7kNnBKx/qvkSkRvb9G/oX5zauPdasP89Nwnleo3u8Z/dYB9GUR2VJCCASnJC7Yenj8v9Wu2w6jfDC9cCB/9Yed/27ym6e8nYvOq1HdTR7UaYPnrqY1zq6jmGaRz85/5j6XvXqmwpQKePhmWvug7EslyMSDATiQi29m8Bp75mpsJnSnWfgKPHw5fTW3+mA9/H6ySHbgZ6s+e6pKAVFrwRDQT4dLVO7PsleSvEa9xEyDTZfkbMOuu9N0vSpWz4YlRqZ/fIfmgXgmAJGfjItfgrnjTbxw27sb7HzvYrVRoSf0WeOmSxMeC5/4dHh4Jq95N/XNsXARLpiV3jS0V6RtPjyJhmf+4izmdXr8CXh2bXGGrdJtdDo8eBBWzfEciuaFOCYAkb/NqePI4N74eZGvbqCx9ER4/1I33JzqOvOYDeG18y8dUL4P/nA0vXuR6O9Ll0yQmKgJ8+WD6JrpVL0u+F2BWeXpibWzO3fDPoQ0rO1I8XyIZK9+GJ46C18ZldpySbeqNLWc9kMKZTZJXeh0Ch/4e+h6d+nutnAEzfwGLng1/jUNvgn2v3/n7X9wPb17jb2vVY+8NV3Cpagk8vE964y4ZBufOdMWagvrsL/BKhEsJwyougcHfhqGjoedBvqNxlr/mkpN5j6FlfpIClcaWsxbo6jsSyTEDToaR33PVzqIsflKzDub+DWZPgjUfRnPNIZfAwTdCu95uVvXMCZmxrequZ0DfY6F9H1eVzjRT+TBeB5tWQuUs+GyK+3O6lezlagJ02dO9jy0VbapZ71YQzH0gulUPUeo0CHY9yy357H1kastMN1a9FL56CD6/L3VlnEWcNcaWsxLwuAWW5LQO/V1DNvB06HVY8NKn9Vtcd/2S52HxfxrK29amJtZYoTZTkR0VtHX7V/Q9xvVu9Twk2nLN8VrXk7XkBTf3Y8VbmV0NUXLJCmPLWQh4LGUleaXTbq7LuOMurjJfrNiVSrX1bkJWTYX7uv4rWPeZW7OtX4iSSTrtBiVDXV3/Lnu6JLdtT2jXc9t2wkWdXEJZu8EllTWVbiVJ1RKoWgQVn8LqD6Dik8T3EhCJ1nxjy/kMGOI7EhEREUmb2TFA00pFRETyS7USABERkXxjXQKwKekLiYiISPYwbFIPgIiISP6pjmHIolqYIiIikjRLVQxLpe84REREJI1irFUCICIikm8slTGMEgAREZE8sy4GSgBERETyiqFCPQAiIiL5Jk5ljDgVvuMQERGRtFoXI8Yq31GIiIhIGllWxLCs8B2HiIiIpNXKGMtYBWi/VRERkfxQT3fWGABbziqgh++IRETyXkEb6LQbtOsNHfpDu15Q1AkKO0BRR4gVbTu2rhpq1sGWCqiphI2LoGoxbFwA9Vt8P4lkrhWmjD6FDX9ZiRIAEZH06tAfeh8OvQ6FriOgy1DotCuYguSua+th3VxY+zGsnA7LXoXV77nvi+CG/gu3+8tw3xGJiOS04i4w4GQYeBr0PwE6DEjNfUwBlAx1r92/6b63aQV89RB8ejtUfub7nRC/VsK2BGCZ72hERHJSYTsYdC4MvRT6HrNjF346tesNI66C4ePh41tgxo/BavpXnloGWxMAwyKs73hERHJIyVAYeTUM/jYUl/iOZhtTAPv8EFbNhC8f9B2N+LEQtiYAlkW+oxFPCjvAiCuhXU9Y/Dws/g8oGxQJr+sI2P//wR7nJz+Wn0q7fUMJQP5aBOoBkBP+Drue6f68zw9h1bsw/To3aUhEEte2Jxz2B9jzO2BivqNpXY/9fUcgvjR86Hc/pfXqAchbfY/d8e89D4IzXoGTH4MuQ3xHJ5IFDAy9DL41B4Zckh2NP7iERfKTdUMAWxOAhb7jEU+Wv9b09wedDed9Akf8Cdp29x2lSGYq7ABffxKOuQfadPMdTTBFHX1HIL7EtusBMFexBqj2HZN48No4VzikKbEiN4npgrlueKCgre9oRTLLEX9yS/qykWoC5Kv1pox1AGbrd2w5HwMjfUcmHnQYAF9/Crrv2/JxVYvh/V/DnL9AvMZ31CL+jd6Q+CdpG4fNq2Dz6m2vLWtdNb+tFf1qN0K8dsfzCtq5aoAd+kHbhq8lw5JPyGs3wpROvt9BSb/3TRkHwLY6AABzUQKQn6oWwxNHwYn/hF1Oaf64DgNg1F2w7/Uw8waY+wDE63xHL+LPnLvdKhobh6olUL0ENixwf65aDBsXuq/VS6F6BZGtsIkVQrd9YdBZbv5Bh/7Br7FZG8Hmqblb/7CtB2Aiv8fwQ9+RiUexQjjizzB8XGLHV34G7/0CvvynCoqI+FLYDg75DYz8frDzVk6Hxw/3Hb2km+U3Zhz/A1snATpf+o5LPIvXwevjYfqPEmvQS4bC8X+Hb3wIe3wrs9c8i+Squk3w5jUw//Fg523U3O889d+2XgmA7OyjP8Dz57tfLInoNhJOeBDOnw3DxrjdzEQkvT69PdjxlZ/7jlh8sE0lAAXbxgVEmPcIPHWs2140UV32hKMnwwVfwj7XapmRSDqtejfY8euUAOSlwm1t/bYEYAkLgAQ/8kleWPk2PHYQLH0p2Hkd+sNhf4QL58OBP1cdAZF0qFkfbFLumg99Ryzpt5ExLNn6l/8mAGYCcWCO7+gkw2xaCU+fBB/cROAZzG27w4ET4KIlcNx90G1v308jktuMSey4umqonOU7Wkk3wyxjtv0i37FmpUU/EbIzWw9v/wSev8CtHQ6qoA3seTF880M4bRrsekb2lEsVyRZFHRKfiLv6fS3hzUfxHdv4wh3+0SgBkBZ8NRUqPoWTHw25T4CB/ie61/q58Mmf4bMpULvB95OJ+NdtH9j9G9C2B1Qvhy/uhw3zEz+/0+6JH9tcCXDJbaalBAAlANKKik/hsUNc7fPdvhH+Op0HuzKqB/8K5v4D5kwOPolJJNsVtoPdv+Vqb/Q6dMd/O+D/4JXR8MUDiV2r24jE77v0Rd9PLn7s0Mbv2A+rHgBJRM06mPZNeHUs1FUld62iTrBXKZzzDpz7HgwfD8VdfD+hSGqV7AVH3Ormxxw7ZefGH1xhrmP+4ipwJqJrgglAvAaWv+H7HRAfYi0lACV8iTYFkkTNuRsePRBWvxfN9XrsD6PuhO8scb/4eqtKmeSQoo4w5Ltuu+3zZ7nKfW26tnxOrKjl8tzb65pgJfelr7hJgJJvNjas9vuvHRIAcz71wMe+o5QsUvmZKyf60R+IrM55YQcYOhrOetP9otz//0GnQb6fVCQEA32Pdp/yv7MMjr3X/T2IhHbtM033IjRl/mO+3xTx44OG1X7/VbjTIYb3sST4kySC61Kc/iNY/B849q/Qvm901y7Zy80TOPiXrtty7t/gy6luFzWRTNVlTxj8bdjzEugcYHJeY3VVsOiZ1o/rOhza92n9OBuH+f/y/e6ID4b3G39r5wTA7nyQSEIWT4OH94VRd8Du50V8cQN9RrnXEX+Chc+63QgXPp14yWKRVOowwO2JsccF0POg5K9n6+G1cW5FQGv6n5DYNVe84XYmlHz0QeNvNJUAvEeCtSREdrJ5ldtHYNA5LhGIsjdgq1ix2wZ10FnuE9LCZ2H+oy4ZqFnv+x2QfNK+j/tZ3+MCl5xGVd9i8yp4+TJY+FRix/c7PrHjPv+rn/dJ/Kvf+cP9Tk29vY02tGEDUOQ7Xslybbq6ksBDL4V0ZJX1W2DJNJj3KCx4Ajav8f0OSC7qtBvsdq5r+HsfHn1Rq4XPwKuXJ/bJH9xEwUtWQnFJy8fVVcP9fVR3Iz/VsIXO5mq2bP/NJn8r23I+BPbxHbHkiAEnwVGT0juRL14Hy152vQILn9HGJ5IE41aoDDzNNfo99k/NbeqqYPoPYVY5gSbU9j/RVdhszef3wcvfTcs7JhnnA1PGTj+4hU0eapmBUQIgEVk8DR7eGw6+EUZcmZ4ywLHCbVUHD78F1n/pEoFFz8CyVzRvQFpW1MklrrucCgNPTc1Q1vZWzoCXLoZ1XwQ/d7dzEzvuk9tS+wySuQzTm/52E+xELsdwt++YJQf1PAiO/DP0OsxfDHXVsPRllwwseREqZ/t+V8Q3E4Pu+8OAE6H/SdD3KDfXJNXqquDdCfDJreFq85sYXLS49QRl2avw5DGpfx7JTIbRppR7G3+7pR4AkeitehcePwKGXAKH/DaxpUtRK2zvPtUNPNX9vXq52/J42cvua5hPYZJ9Og92s+f7nwj9jkv/ttULn4Y3rgpW77+xXocl1jvx8S3pfTbJLDZID8AEYvRlLaCarJI6xZ3hgP91FdFiGTTntGqJSwSWvgQr3oLKOURW5Ej8MDFXKrfv0Q3LSY+CDv39xFK9FN78Pnz1cPLXOuyPsM+1LR+z9iN4ZH9XA0DyUSXL6N64CBC0MDXblvM8kODiUpEklAx1a/sHfM13JE3bUuHGaFfOgJXTYcV0qKn0HZW0pLgz9DzYVcfrfTj0PrL1srupFq+DWXfBuz+LZrmqKYCLFkL7fi0f99xZblWM5Kt/mzKarCdd2MJJ01ECIOlQ+Rk883U3y/qQ30C3vX1HtKM2XWGXr7sXANb1CqycAatmwpoP3Kcs1SDwo7Cd+3Tf82DodQj0PARKhqVnsmmiFj4F06+Pdr5Jv+Nab/xXvg0LnvT99OLXjOb+ofkEwPCGej0lrRY+DYuehT0uhINuSK6EakoZV6K4ZC8YcmnD9yysn+eSgTUfwtoP3ddkxndlZ+37uASx+/7QfV/36jLUrfrIRGs+cEv7lrwQ/bX3/E4rB1h3b/0iz2+G15v/p2bYe+hEHWtpuZdAJDViRTBsLBzws9QvwUql2g2uh2Pd567XYOuf132uHdmaY2LQYRf3Kb7rcOi6F5Q0fG3TzXd0ialaAu/+r6u8l4qx98J2cPEKt1yxOZ/fCy+P9v1OiF+1tKOruYQm921vca6/LecdIIKi1iIhFbaHkVfDvtf7H8ONlIWNC92Kgw3zYeMi2DjffW/jQti42G2ylKvadHWNfMeBrqen82DovEfDa7f0LMFLherl8OFNMLs8tbUmBl8Exz/Q/L9vXgNTh8Hm1b7fEfHrLVPGEc39Y8uf7g2vYpUAiEd11fDBb90v1BHfg5Hfg7Y9fEcVAQMdd3WvJlmoXgYbFsCm5e7Pm1fDplWwaSVsWuHqxW9a1fBL3nM3r4lBm+5uKV3b7u6/0X//3tP9vUN/t2FOp13dls+5pHo5fPi7hoY/DT07wy5v+d+nX6vGX1wb3uI/t8BO5CwMj/t+BpH/KuwAe42Fva+Fjrv4jiZzbKmA2o1Qt9F9rVnnhh9qt/59uwmKNRXb/hyv27k2fGEHKNjuE3hRJzckU1zivhZ1dF3QWxv4rV/z0aYVruGfNTF9QzqdB8MFn9Psr++5f4cXL/L9zkgmsJxmxtHsftItJwB30416VgEZNJ1WBNcQDb4Q9v2xGycWSaf1X8Inf4Y5k9M/l+OQG2G/nzYT11fw6AEuAZR8V08xPcxoKps7oNV6f7ac94AU7X4hkiQTg0Fnu0Sg1yG+o5Fct/Ql+OhmV0baR2GdWCF8e0HTy//qql2531Xv+n6XJBMY3jalHNrSIYnM8J+GEgDJVDbutv+d96gr+jL8CtjjfCho6zsyyRXxGvjqIdfwr37Pbyy7nNp042/rXbe/Gn/ZytLqFpGtJwCGaViu9/0sIq3aWq3vze/DkO+61QMZW0tAMl7VYphzD8y60028zATDxjT9/beuhfmP+45OMolpPQFofQhgCm2pYS3QzvfziARiYu4T04grXJnhTKoMJ5kpXgvz/wVzJrniPZlUP799P9f937jo0Ts/g/d/7Ts6ySxVbKG7uZotLR2U0J5/dhL/wXKS7ycSCa3TbrDnxa56Wpc9fUcjmabiU/jifle4p3q572iaNuJKOPL27b5hXW/XJ3/2HZlkGstTZhxntHZYYlX+3FiCEgDJXhvmwXs3uFevw2DPi2CPC3KkpoCEUrUY5v4D5v7NlW3OdMUl2/5ctwleK3NJi0hjCXT/u8MSYO9iJDE+9v1MIpGKFbkNfvb8Dux6piYO5oMta2HeYzD3AVj2amZ18bembQ846Beu8Z9d7qpIijSlnmHmCj5r7bCEEgAAW85XwG6+n0skJYo7u/kCg86GXU5xf5fcULXETZCb/xgse8UVPxLJXV+aMgYncmCQjX6eBq7y/WQiKVGzHr580L1ixW6r1UFnw6AzW99yVTJP5WeuwZ//GKx8B++lkkXSxfCvxA9NkJ3I1zE86/vZRNLLuAJDg852wwXd9tFqgkxUsw6WvgiL/+Ne67/yHZGIHzFOMGN5MZFDE08AbqMNbVgFdEr0HJGc07aH6x3odzz0P0ErCnyJ17qiN0umuQZ/5Qx17YvAerrS05xPQluJJpwAANiJPIrhHN9PKJIxOu4C/U6A/se7xKDDAN8R5aa6KlgxHZa/Bstecw1+XVXy1xXJJZapZhzfSvTwIHMAIMYTWCUAIv+1cRF8fq97gdvytuchbtig1yHQ4yBNKAzMuhnuq951rxVvwuqZ+oQv0rongxwcrAdgCiXUsAIoDnKeSN4yMSgZti0p6L4fdN1rxzXd+Sxe53bWW/2ea+RXz3R/3n77YhFJRA319DFXUJHoCYESAFBVQJFItO/ntjHuuhd0HeGShK4jcrcwUbzWNfQVn0LFrIavs6FyjttsR0SS9bQp4/QgJwQbAgCwPIKqAookp3qpey15fsfvt+0JnXeDDru4+QWdBjX8eaD7e7veviNvWrzGbZizcaGrurh+nvu69VW1WF34Iqnk2uZAgvcATKY3cZYABb6fVyTvFLR1iUCb7tC2G7TpBm26Nnxt9PeCYlfToLCDO7ew3bZqh0Ud3L+BqyxXv9n92cbdkjqAmgrXFV+zHmrXu+/XrIfNq11jX70MNq2ATcth8xrf74xIPqsD+poyVgc5KXACAGDLeQU42vcTi4iI5D3DNFPKyUFPC1vR5CHfzysiIiKA5eEwp4VLAIr4J67LQURERPypoTb4+D+ETADMZawCng9zroiIiETE8Ky5ilCTcMIXNTf83fdzi4iI5LU4/wh7avgEoC2PAqrFKSIi4kcV7Xkq7MmhEwBzCVUQ/sYiIiKSlEcb2uJQkt3X9H7fTy8iIpKXbHJtcHIJQFf+DSz2/R6IiIjkmcV048VkLpBUAmDOpx7D33y/CyIiInlmijmf+mQukOwQAMBfAOv7nRAREckTFvhrshdJOgEwpXwOvOX73RAREckLhldMGV8me5koegDA8hff74eIiEheiDMlistEkwDU809gvc/3Q0REJA9UYsLV/m8skgTAXMlGLA/4fU9ERERynOWvpozqKC4VTQ+AcweaDCgiIpI6MSZHd6mImHHMAt7w8oaIiIjkOsPLppRPo7pclD0AYJiY9jdEREQkH8SjbWOjTQA28zCwKp3vh4iISB5YQTcei/KCkSYA5mq2gHoBREREInaXOZ+aKC8YbQ9AQ5AQbZAiIiJ5bAt1lEd90cgTAFPGMmBqWt4SERGR3Pd3cyXLo75oKnoAAG5J8ZshIiKSHwy3peKyKUkATBnvAa+n9A0RERHJdZYXTSkfpOLSqeoBAKteABERkSTdmqoLpy4BWM7jwKyUXV9ERCS3zWY5T6fq4ilLAMwE4lhuTtX1RUREcprlt2YC8VRdPnU9AACG+4BFKb2HiIhI7llMNx5M5Q1SmgCYMmpTNXtRREQkZxn+EHXhn8ZS2wMAUEA5UJHy+4iIiOSGtdRyT6pvkvIEwFzOBix/TvV9REREcsSt5ko2pvomqe8BADDcDFSm5V4iIiLZax3F6fnQnJYEwJSxDsPt6biXiIhI1jLcbEan5wNzenoAAIr4I+oFEBERac46itI3cT5tCUBDRnNnuu4nIiKSZW5J16d/SGcPAEAtNwPr03pPERGRzFdBMX9K5w3TmgCYq1gDqg4oIiKyA8Pv0/npH9LdAwBQxx+BFWm/r4iISGZaSUH6J8qnPQFoWNv423TfV0REJEPdYC5nQ7pvmv4eAICu3AnM83JvERGRzDGfLdzt48ZeEgBzPjUYfuXj3iIiIhnD8nNzNVt83NpPDwBACX8FPvJ2fxEREb8+oBt/83VzbwmAOZ964Bpf9xcREfHKcE1DW+iFvx4AwJTxEvC4zxhERETSzjLVlPKKzxC8JgAA1HMd+Bn/EBER8WAzlh/7DsJ7AmCu4CtIb/UjERERbwx/MOOZ7zsM7wkAAIX8CljmOwwREZEUW0ItN/kOAjIkATCXswHL//qOQ0REJKUsP2koiOddRiQAACxnCvCO7zBERERSZAZl/pb9NZYxCYCZQBzDNYD1HYuIiEjELPBDYzKnjcuYBADAlPImlod8xyEiIhKxB0wZr/sOYnsZlQAAUMj1wCbfYYiIiERkI3F+6juIxjIuATBjWIDlF77jEBERicj/mvEs8R1EYxmXAACwnD8CM32HISIikqR36MqffQfRFOM7gObYieyL4R2gyHcsIiIiIdQR5xAznvd9B9KUzOwBAMw4PgRu8R2HiIhIKIbfZmrjDxmcAABQxQRgru8wREREAvqcIn7tO4iWZHQCYK5lE3HGotoAIiKSPSwxxpvRbPYdSEsyOgEAMON5GZjiOw4REZGEGMrNWF70HUZrMj4BaHAtZN4SChERkUaWUZR5a/6bkhUJgCljHfAD33GIiIi0yHClGU2l7zASCzWL2HIeA872HYeIiMhODA+bUs7zHUaisqIHYDtXAKt9ByEiItLISgxX+Q4iiKxKAEwZy7CM8R2HiIjIdiyWMWYsK3wHEkRWJQAAZhz/Aib5jkNERKTBnWYcT/oOIqisSwAa/ACY4zsIERHJe7OB630HEUZWJgCmjGrgIqDGdywiIpK3tmD4dkOblHWyMgEAMGW8B/zcdxwiIpKnLP9jSvnAdxhhZW0CAMAyfofN/GpLIiKSYwzTWM6tvsNI7hGynL2L/sT4COjmOxYREckLFdSxr7mSRb4DSUZ29wAAZjxLsIz1HYeIiOSNsmxv/CEHEgAAM45HsdzrOw4REcl5k0wZD/kOIgo5kQAAUM/3gFm+wxARkZz1Me241ncQUcn6OQDbs5MYguVtoIvvWEREJKdUUsDBZgxzfQcSldzpAQBMKZ9juASwvmMREZGcYTFclkuNP+RYAgBgSnkCy299xyEiIjnC8ktTymO+w4haziUAACznZ8C/fYchIiJZzjCNbtzgO4zUPFqOsnfTjXreBXbzHYuIiGSlBcBBpiw3t6HPzR4AwIxhLYZzgU2+YxERkayzmRjfyNXGH3I4AQAwpXyAocx3HCIikmUsV5ixzPQdRirldAIAYEq5Hyj3HYeIiGSN2804pvgOItVyPgEAYAvfB2b4DkNERDLem3TlOt9BpEPOTgJszN5BHwqZDuzqOxYREclI84hxuBnLCt+BpEN+9AAA5kqWE+MUoMJ3LCIiknHWEefMfGn8IY8SAAAzltkYzgG2+I5FREQyRi2Wb5jxfOI7kHTKqwQAwJTyCpbRqFywiIiAxTLGjOMF34GkW94lAABmHP/A8kvfcYiIiHc/N+O4z3cQPuTNJMDGrMUwmXuxXOI7FhER8cDwD8ZykTH52SOclz0AAMa4bh/Iv24fERHhFTYzOl8bf8jjHoCtbDldgNeBkb5jERGRtJhFPaPMFfm9KizvEwAAexeDiDEd6O07FhERSanlFHCYGcMC34H4lrdDANsz45lPjNOAdb5jERGRlKnEcIoaf0cJQAMzlplYTgE2+o5FREQiV02MM00pH/gOJFMoAdiOGcdbWM4GNvuORUREIrMJON2M5TXfgWQSJQCNmHG8gOFsVC1QRCQX1GI435Txku9AMo0SgCaYUp7D8m2gzncsIiISWj2GS0wpT/kOJBMpAWiGGcejwBgg7jsWEREJzALjTCkP+g4kUykBaIEp46/A1b7jEBGRQCyGq0wZd/sOJJMpAWiFKeMO4Ae+4xARkQRZfmpKudN3GJlOCUACTBm3YviV7zhERKRVvzDjuMl3ENlAlQADsBP5MYbf+o5DRESaYLjJlPIT32FkC/UABNCQVf7YdxwiIrKT/1PjH4x6AEKwExmH4Q6UQImI+GYx/MCU8iffgWQbJQAh2UlchOVeoNB3LCIieaoey1gzjim+A8lGSgCSYCdxPpYHgCLfsYiI5JkaLBeZcTzsO5BspQQgSbac04CHgHa+YxERyRNbsHzLjONfvgPJZkoAImAncQyWJ4FOvmMREclxVRjONqU87zuQbKcEICJ2Egdj+TfQzXcsIiI5qhLDaaaUN30Hkgs0iz0ippR3iHEysMJ3LCIiOWg5cY5X4x8d9QBEzE5mN+I8DezlOxYRkRzxKQWcZsawwHcguUQ9ABEzY5lHPUeC9p4WEUma5UWKGaXGP3pKAFLAXEEFXfk6hvt8xyIikrUs99KNU8xoKn2Hkos0BJBC1mKYxM+B/0PvtYhIoixwA6X8whis72BylRqlNLDlfBeYBBT7jkVEJMPVYBhjSrnfdyC5TglAmtjJHE+cR4AS37GIiGSoCuKca8bzsu9A8oESgDSyExmO4WlgkO9YREQyzDxinGbGMtt3IPlCkwDTyIxjFnUcjmW671hERDLIm8Q5TI1/eikBSDNzJctZzlEYbvIdi4hIBphEV44z41npO5B8oyEAj+xEvoOhHGjvOxYRkTTbjOFKU8pffAeSr5QAeGYnsR+WR4HdfMciIpImCzF805Tyju9A8pmGADwzpXxALQdjec53LCIiafAsBeyvxt8/9QBkCGsxlHM9hhtRYiYiucdi+B1L+R8zgbjvYEQJQMaxkzgdy/2oXoCI5I71GC41pTzmOxDZRglABrIT2RPDo8BI37GIiCRpDjHO1RK/zKOu5gxkxvEFdRwOmh0rIlnMMpl2HKTGPzOpByDD2Ymci2ES0N13LCIiCarEMN6U8qDvQKR5SgCygL2DPhQyBfi671hERFrxAnG+a8azxHcg0jIlAFnCWgyTuRrLTUAb3/GIiDRSC9zIMm7QLP/soAQgy9i7GEmMvwN7+45FRKTBbOJcZMbzvu9AJHGaBJhlzHg+oYpDgdsA6zseEcl799OOg9X4Zx/1AGQxO4mvYbkX6OM7FhHJO6uwXG7G8aTvQCQc9QBkMVPKc8ABwBO+YxGRvPIIMfZW45/d1AOQI2w55wF3Aj18xyIiOWs5lu+ZcTzsOxBJnnoAcoQp4yHijADu9x2LiOQcC9xPASPU+OcO9QDkIDuRb2L4M5obICLJ+wxLqRnHq74DkWipByAHNWTow3ArBep9xyMiWakOw00Us58a/9ykHoAcZ8s5AJgEHOg7FhHJGu8TY6wZy0zfgUjqqAcgx5ky3gMOx/IToNp3PCKS0aqAH9CVg9X45z71AOQRexf9ifEb4GLfsYhIRrHAwxTwIzOGBb6DkfRQApCHbDnH4eYHjPQdi4h49y5xrjHjecN3IJJeGgLIQ6aMl1jG/hiuAdb5jkdEvFgKlLGMQ9X45yf1AOQ5O5nexLkBuBwo8B2PiKTcZuCPtOM35hKqfAcj/igBEABsOcOAG4DzfMciIilieYoCrjZjmec7FPFPCYDswE7iRCx/APb1HYuIROZ9LNdoPb9sT3MAZAemlOfpyoFYLgPNBhbJcvOwfJdlHKTGXxpTD4A0y06lmAouBX6BygqLZJPVWP5AG/5kRrPZdzCSmZQASKvsfXSgmqsw/AQo8R2PiDRrA4Y72cyN5mrW+w5GMpsSAEmYvYdO1HKFEgGRjOMa/jpuMldQ4TsYyQ5KACSw7RKBHwNdfccjksfU8EtoSgAkNDuFEmr4PnA10M13PCJ5ZA3wJ+A2U6ZiXhKOEgBJmp1CW7ZwPob/AYb6jkckhy0HyoFb1PBLspQASGTsBGL04bSGOQJH+I5HJIfMxXA7m5lormaL72AkNygBkJSw5YwCrgPORPUmRMJ6CcstlPGUMVjfwUhuUQIgKWXvZHcK+D4wBmjvOx6RLFAD/Av4oyljhu9gJHcpAZC0sH+hJ3WMx3Il0Mt3PCIZaAUwkRh3mbGs8B2M5D4lAJJWDdUFzwJKgRPQz6DITGASVdxvrmWT72Akf+iXr3hj72QohYzGMgbo7jsekTRaB/wTuN2U8bHvYCQ/KQEQ7+x9dGAz5xHnMgyj0M+l5CYLvIrlLxgeNmVU+w5I8pt+0UpGsXewCwV8G0MZsJvveEQisATDA8S424xhru9gRLZSAiAZyU4gRj9OIs7FGM4GOviOSSSADcDjWO5nOS+YCcR9ByTSmBIAyXgNlQZPwnAxcBZQ7DsmkSbU49bt3089j5or2eg7IJGWKAGQrGJvpztFfBPL+RiOAQp8xyR5rQ54GcNUYjxixrDWd0AiiVICIFnL3k036jgdOA/DyahnQNKjHsN04CEMD2rNvmQrJQCSE+wUSqjlDCxnAScDnXzHJDllPfAclicwPKmNeCQXKAGQnGOnUkAFh2M4HcuZwF6+Y5Ks9BXwPJan6MZz5nxqfAckEiUlAJLzbDnDgK9jOAnLMWhFgTRtI/AKhmnAs6aUz30HJJJKSgAkr9ipFLOGIzCcjOEkYH80kTBf1QPvAf/BMI0S3tKnfMknSgAkr9k76EgRh2EZBRwJHI0mE+aqeuAD4A3gdQp4QbP2JZ8pARDZjr2DjhRyBDAKOLTh1cV3XBJKJZYZGKZjeJ22vGUuocp3UCKZQgmASAvsBGL0YRhwKIbDcAnBcKDId2yyg1rgU/hvgz+DMcwxBus7MJFMpQRAJCBbThGGIcQ5ENPwsuwLdPQdW57YCHwGzMIwE8tMqpiprXRFglECIBIRew/9qGc4MALLcAwjsOyDahKEtQX4EvfJfhbwKYZZLGW2auuLJE8JgEgKWYvhTgZQyGBgDwyDsQ1/dq98Tw7WA19hmItlLvAlceZSyFzGsERd+CKpowRAxCN7J10pYACGXbHsAgwAdgH6Ab2Bng2vmO9YA4oDqxpeK4ClwCIsi4ixGMsCillkRlPpO1CRfKUEQCTD2akUsIqeFNKTGD2ppxuGEgwlWErgv1/bY+gEtAXa4QoeFeNWMWyfQGz99+1tAjZv9/c4sA6oAaqwVGPYgmUDUI2hEqjEUEmcCmJUYqggzirqWMUqVqqbXiSz/X/fZ3hGMYXBGwAAAABJRU5ErkJggg==;" parent="1" vertex="1">
          <mxGeometry x="630" y="180" width="82" height="82" as="geometry" />
        </mxCell>
      </root>
    </mxGraphModel>
  </diagram>
</mxfile>
